<svg width="330" height="190" viewBox="0 0 330 190" fill="none" xmlns="http://www.w3.org/2000/svg">
<path d="M0 10.9978C0 6.28375 0 3.92673 1.46447 2.46227C2.92893 0.997803 5.28595 0.997803 10 0.997803H320C324.714 0.997803 327.071 0.997803 328.536 2.46227C330 3.92673 330 6.28376 330 10.9978V189.313H0V10.9978Z" fill="url(#paint0_diamond_439_636)"/>
<path d="M106.331 78.683L110.578 145.265L108.477 145.4C108.447 145.4 106.887 139.067 106.887 139.067L103.045 78.8781L106.331 78.683Z" fill="#E1558B"/>
<path d="M108.927 145.37L109.933 149.617L110.158 145.295L108.927 145.37Z" fill="#E77D3B"/>
<path d="M107.622 138.362C107.547 137.207 108.432 136.201 109.588 136.126C110.743 136.051 111.749 136.937 111.824 138.092C111.899 139.248 111.013 140.253 109.858 140.328C108.687 140.403 107.682 139.518 107.622 138.362Z" fill="#F8D451"/>
<path d="M107.907 78.263L140.215 136.637L142.061 135.616C142.076 135.601 139.99 129.434 139.99 129.434L110.788 76.6724L107.907 78.263Z" fill="#E1558B"/>
<path d="M141.641 135.856L143.081 139.968L140.56 136.441L141.641 135.856Z" fill="#E77D3B"/>
<path d="M133.666 115.578L132.629 116.152L135.194 120.787L136.231 120.213L133.666 115.578Z" fill="#F8D451"/>
<path d="M104.733 65.8346L102.367 66.5126L104.707 74.6773L107.073 73.9993L104.733 65.8346Z" fill="#E77D3B"/>
<path d="M111.118 76.1321L110.608 80.844L112.919 88.8872L107.652 90.4028L105.341 82.3596L102.415 78.6231C101.725 76.2221 103.12 73.7161 105.521 73.0258C107.937 72.3355 110.443 73.7311 111.118 76.1321Z" fill="#F8D451"/>
<path d="M105.551 77.5876C105.356 76.9274 105.746 76.2521 106.392 76.057C107.052 75.8619 107.727 76.2521 107.922 76.8973C108.117 77.5576 107.727 78.2329 107.082 78.428C106.422 78.623 105.746 78.2329 105.551 77.5876Z" fill="#E77D3B"/>
<g opacity="0.5">
<g opacity="0.5">
<path opacity="0.5" d="M249.894 59.8955H249.069V59.5804H249.594V59.0552H249.894V59.8955Z" fill="#7FE1D3"/>
</g>
<g opacity="0.5">
<path opacity="0.5" d="M247.643 59.8955H246.218V59.5953H247.643V59.8955ZM244.807 59.8955H243.382V59.5953H244.807V59.8955ZM241.971 59.8955H240.546V59.5953H241.971V59.8955ZM239.12 59.8955H237.694V59.5953H239.12V59.8955ZM236.284 59.8955H234.858V59.5953H236.284V59.8955ZM233.448 59.8955H232.022V59.5953H233.448V59.8955ZM230.612 59.8955H229.186V59.5953H230.612V59.8955ZM227.775 59.8955H226.35V59.5953H227.775V59.8955ZM224.939 59.8955H223.514V59.5953H224.939V59.8955Z" fill="#7FE1D3"/>
</g>
<g opacity="0.5">
<path opacity="0.5" d="M222.088 59.8955H221.263V59.0552H221.563V59.5804H222.088V59.8955Z" fill="#7FE1D3"/>
</g>
<g opacity="0.5">
<path opacity="0.5" d="M221.563 57.7497H221.263V56.4441H221.563V57.7497ZM221.563 55.1386H221.263V53.8331H221.563V55.1386ZM221.563 52.5125H221.263V51.207H221.563V52.5125ZM221.563 49.9015H221.263V48.596H221.563V49.9015ZM221.563 47.2904H221.263V45.9849H221.563V47.2904ZM221.563 44.6644H221.263V43.3588H221.563V44.6644ZM221.563 42.0533H221.263V40.7478H221.563V42.0533ZM221.563 39.4423H221.263V38.1367H221.563V39.4423Z" fill="#7FE1D3"/>
</g>
<g opacity="0.5">
<path opacity="0.5" d="M221.563 36.8312H221.263V35.9908H222.088V36.291H221.563V36.8312Z" fill="#7FE1D3"/>
</g>
<g opacity="0.5">
<path opacity="0.5" d="M247.643 36.291H246.218V35.9908H247.643V36.291ZM244.807 36.291H243.382V35.9908H244.807V36.291ZM241.971 36.291H240.546V35.9908H241.971V36.291ZM239.12 36.291H237.694V35.9908H239.12V36.291ZM236.284 36.291H234.858V35.9908H236.284V36.291ZM233.448 36.291H232.022V35.9908H233.448V36.291ZM230.612 36.291H229.186V35.9908H230.612V36.291ZM227.775 36.291H226.35V35.9908H227.775V36.291ZM224.939 36.291H223.514V35.9908H224.939V36.291Z" fill="#7FE1D3"/>
</g>
<g opacity="0.5">
<path opacity="0.5" d="M249.894 36.8312H249.594V36.291H249.069V35.9908H249.894V36.8312Z" fill="#7FE1D3"/>
</g>
<g opacity="0.5">
<path opacity="0.5" d="M249.894 57.7497H249.594V56.4441H249.894V57.7497ZM249.894 55.1386H249.594V53.8331H249.894V55.1386ZM249.894 52.5125H249.594V51.207H249.894V52.5125ZM249.894 49.9015H249.594V48.596H249.894V49.9015ZM249.894 47.2904H249.594V45.9849H249.894V47.2904ZM249.894 44.6644H249.594V43.3588H249.894V44.6644ZM249.894 42.0533H249.594V40.7478H249.894V42.0533ZM249.894 39.4423H249.594V38.1367H249.894V39.4423Z" fill="#7FE1D3"/>
</g>
</g>
<g opacity="0.5">
<path opacity="0.5" d="M253.991 71.4652C253.481 71.4652 252.956 71.4352 252.461 71.3902L252.491 71.0451C252.986 71.0901 253.496 71.1201 253.991 71.1201V71.4652ZM255.522 71.3902L255.492 71.0451C255.987 71.0001 256.482 70.925 256.977 70.82L257.052 71.1501C256.542 71.2552 256.032 71.3302 255.522 71.3902ZM250.93 71.1501C250.435 71.0451 249.925 70.91 249.444 70.76L249.549 70.4298C250.03 70.5799 250.51 70.7149 251.005 70.805L250.93 71.1501ZM258.538 70.775L258.433 70.4448C258.913 70.2948 259.378 70.1147 259.844 69.9196L259.979 70.2347C259.513 70.4298 259.018 70.6099 258.538 70.775ZM248.004 70.2197C247.539 70.0097 247.073 69.7846 246.623 69.5295L246.788 69.2293C247.223 69.4694 247.674 69.6945 248.139 69.9046L248.004 70.2197ZM261.359 69.5445L261.194 69.2444C261.629 69.0043 262.049 68.7341 262.47 68.434L262.665 68.7191C262.245 69.0193 261.794 69.2894 261.359 69.5445ZM245.333 68.7041C244.913 68.404 244.507 68.0889 244.117 67.7587L244.342 67.5037C244.717 67.8338 245.123 68.1489 245.528 68.434L245.333 68.7041ZM263.865 67.7737L263.64 67.5187C264.015 67.1885 264.375 66.8434 264.721 66.4682L264.976 66.7083C264.63 67.0835 264.255 67.4436 263.865 67.7737ZM243.022 66.6783C242.677 66.3032 242.346 65.913 242.031 65.5078L242.301 65.2977C242.602 65.7029 242.932 66.0781 243.262 66.4532L243.022 66.6783ZM265.966 65.5228L265.696 65.3127C265.996 64.9076 266.281 64.5024 266.551 64.0673L266.836 64.2473C266.566 64.6975 266.281 65.1177 265.966 65.5228ZM241.161 64.2323C240.891 63.7971 240.651 63.347 240.426 62.8818L240.741 62.7317C240.951 63.1819 241.191 63.6321 241.461 64.0523L241.161 64.2323ZM267.572 62.9118L267.257 62.7617C267.467 62.3115 267.662 61.8464 267.827 61.3662L268.142 61.4862C267.992 61.9664 267.782 62.4466 267.572 62.9118ZM239.84 61.4562C239.675 60.976 239.525 60.4808 239.405 59.9856L239.735 59.9106C239.855 60.3908 239.991 60.886 240.171 61.3512L239.84 61.4562ZM268.592 60.0156L268.262 59.9406C268.382 59.4604 268.472 58.9652 268.547 58.47L268.892 58.515C268.817 59.0102 268.712 59.5204 268.592 60.0156ZM239.12 58.47C239.045 57.9598 239.015 57.4496 238.985 56.9394L239.33 56.9244C239.345 57.4196 239.39 57.9298 239.45 58.425L239.12 58.47ZM269.012 56.9694L268.667 56.9544C268.667 56.7893 268.682 56.6092 268.682 56.4442C268.682 56.114 268.667 55.7839 268.652 55.4538L268.997 55.4238C269.012 55.7539 269.027 56.099 269.027 56.4442C269.027 56.6242 269.027 56.7893 269.012 56.9694ZM239.33 56.4442H238.985C238.985 55.934 239.015 55.4088 239.06 54.9136L239.405 54.9436C239.345 55.4388 239.33 55.949 239.33 56.4442ZM268.472 53.9532C268.382 53.458 268.277 52.9628 268.142 52.4826L268.472 52.3925C268.607 52.8877 268.727 53.3829 268.802 53.8931L268.472 53.9532ZM239.63 53.458L239.3 53.3829C239.405 52.8877 239.54 52.3775 239.69 51.8973L240.021 52.0024C239.855 52.4826 239.735 52.9628 239.63 53.458ZM267.662 51.072C267.482 50.6068 267.272 50.1416 267.046 49.7064L267.347 49.5564C267.587 50.0066 267.797 50.4868 267.977 50.9519L267.662 51.072ZM240.546 50.5918L240.231 50.4567C240.441 49.9916 240.666 49.5264 240.921 49.0762L241.221 49.2413C240.966 49.6914 240.741 50.1416 240.546 50.5918ZM266.281 48.4009C266.011 47.9807 265.711 47.5756 265.396 47.1854L265.666 46.9753C265.996 47.3655 266.296 47.7857 266.581 48.2209L266.281 48.4009ZM242.016 47.9807L241.731 47.7857C242.031 47.3655 242.346 46.9603 242.677 46.5702L242.932 46.7953C242.617 47.1704 242.301 47.5756 242.016 47.9807ZM264.39 46.075C264.03 45.7148 263.655 45.3847 263.28 45.0696L263.49 44.7995C263.88 45.1296 264.27 45.4747 264.63 45.8349L264.39 46.075ZM243.982 45.7148L243.742 45.4597C244.117 45.1146 244.507 44.7695 244.913 44.4693L245.123 44.7394C244.747 45.0546 244.357 45.3697 243.982 45.7148ZM262.064 44.1692C261.644 43.8991 261.209 43.644 260.774 43.4039L260.924 43.1038C261.374 43.3439 261.824 43.599 262.245 43.8841L262.064 44.1692ZM246.383 43.8991L246.203 43.614C246.638 43.3439 247.088 43.1038 247.554 42.8787L247.704 43.1938C247.253 43.4039 246.803 43.644 246.383 43.8991ZM259.393 42.7886C258.928 42.6086 258.448 42.4435 257.968 42.3085L258.058 41.9783C258.553 42.1134 259.033 42.2784 259.513 42.4735L259.393 42.7886ZM249.099 42.6086L248.979 42.2935C249.459 42.1284 249.955 41.9783 250.45 41.8583L250.525 42.1884C250.045 42.2934 249.564 42.4435 249.099 42.6086ZM256.497 41.9783C256.002 41.8883 255.507 41.8283 255.012 41.7982L255.042 41.4531C255.552 41.4831 256.062 41.5431 256.572 41.6332L256.497 41.9783ZM252.01 41.9033L251.965 41.5582C252.476 41.4831 252.986 41.4531 253.496 41.4231L253.511 41.7682C253.001 41.7983 252.506 41.8283 252.01 41.9033Z" fill="#7FE1D3"/>
</g>
<path d="M81.3913 188.768L63.354 160.511L99.7887 137.237L81.3913 188.768Z" fill="#F8D451"/>
<path d="M79.7706 175.337L71.6223 162.567L88.084 152.048L79.7706 175.337Z" fill="#EBF3FA"/>
<path d="M66.0426 159.511L65.8782 159.616L67.1948 161.678L67.3593 161.573L66.0426 159.511Z" fill="#060633"/>
<path d="M66.9901 158.893L66.8257 158.998L67.601 160.212L67.7654 160.107L66.9901 158.893Z" fill="#060633"/>
<path d="M67.7865 158.372L67.6221 158.477L68.3975 159.691L68.5619 159.586L67.7865 158.372Z" fill="#060633"/>
<path d="M68.5533 157.888L68.3889 157.993L69.1644 159.207L69.3288 159.102L68.5533 157.888Z" fill="#060633"/>
<path d="M69.2579 157.464L69.0935 157.569L69.869 158.783L70.0334 158.678L69.2579 157.464Z" fill="#060633"/>
<path d="M70.0321 156.945L69.8677 157.05L70.6431 158.264L70.8075 158.159L70.0321 156.945Z" fill="#060633"/>
<path d="M70.8155 156.45L70.6511 156.555L71.9676 158.617L72.132 158.512L70.8155 156.45Z" fill="#060633"/>
<path d="M71.7853 155.828L71.6208 155.932L72.3962 157.147L72.5606 157.042L71.7853 155.828Z" fill="#060633"/>
<path d="M72.5797 155.342L72.4153 155.447L73.1908 156.661L73.3552 156.556L72.5797 155.342Z" fill="#060633"/>
<path d="M73.333 154.844L73.1687 154.949L73.9449 156.162L74.1092 156.057L73.333 154.844Z" fill="#060633"/>
<path d="M74.0221 154.407L73.8577 154.512L74.633 155.727L74.7974 155.622L74.0221 154.407Z" fill="#060633"/>
<path d="M74.804 153.885L74.6396 153.99L75.4151 155.204L75.5795 155.099L74.804 153.885Z" fill="#060633"/>
<path d="M75.8941 153.199L75.7297 153.304L77.0476 155.365L77.212 155.26L75.8941 153.199Z" fill="#060633"/>
<path d="M76.857 152.61L76.6926 152.715L77.4681 153.929L77.6325 153.824L76.857 152.61Z" fill="#060633"/>
<path d="M77.6471 152.087L77.4827 152.192L78.258 153.406L78.4224 153.301L77.6471 152.087Z" fill="#060633"/>
<path d="M78.4007 151.615L78.2363 151.72L79.0116 152.934L79.1761 152.829L78.4007 151.615Z" fill="#060633"/>
<path d="M79.1185 151.17L78.9541 151.275L79.7296 152.489L79.894 152.384L79.1185 151.17Z" fill="#060633"/>
<path d="M79.8848 150.645L79.7205 150.75L80.4966 151.963L80.661 151.858L79.8848 150.645Z" fill="#060633"/>
<path d="M80.6632 150.154L80.4988 150.259L81.8155 152.32L81.9799 152.215L80.6632 150.154Z" fill="#060633"/>
<path d="M81.6121 149.551L81.4478 149.656L82.2232 150.87L82.3876 150.765L81.6121 149.551Z" fill="#060633"/>
<path d="M82.4398 149.037L82.2754 149.142L83.051 150.356L83.2154 150.251L82.4398 149.037Z" fill="#060633"/>
<path d="M83.1715 148.541L83.0071 148.646L83.7825 149.86L83.9469 149.755L83.1715 148.541Z" fill="#060633"/>
<path d="M83.8744 148.102L83.71 148.207L84.4853 149.421L84.6497 149.316L83.8744 148.102Z" fill="#060633"/>
<path d="M84.6686 147.617L84.5042 147.722L85.2796 148.936L85.444 148.831L84.6686 147.617Z" fill="#060633"/>
<path d="M85.6598 146.975L85.4954 147.08L86.812 149.142L86.9764 149.037L85.6598 146.975Z" fill="#060633"/>
<path d="M86.6021 146.351L86.4377 146.456L87.2132 147.67L87.3776 147.565L86.6021 146.351Z" fill="#060633"/>
<path d="M87.3983 145.843L87.2339 145.948L88.0094 147.162L88.1737 147.057L87.3983 145.843Z" fill="#060633"/>
<path d="M88.1663 145.37L88.002 145.475L88.778 146.689L88.9423 146.584L88.1663 145.37Z" fill="#060633"/>
<path d="M88.8563 144.927L88.6919 145.032L89.4672 146.246L89.6316 146.141L88.8563 144.927Z" fill="#060633"/>
<path d="M89.6573 144.421L89.4929 144.526L90.2685 145.74L90.4329 145.635L89.6573 144.421Z" fill="#060633"/>
<path d="M90.4283 143.921L90.2639 144.026L91.5804 146.087L91.7448 145.982L90.4283 143.921Z" fill="#060633"/>
<path d="M91.392 143.324L91.2275 143.429L92.003 144.643L92.1674 144.538L91.392 143.324Z" fill="#060633"/>
<path d="M92.1771 142.793L92.0127 142.898L92.7882 144.112L92.9526 144.007L92.1771 142.793Z" fill="#060633"/>
<path d="M92.9581 142.315L92.7937 142.42L93.5693 143.634L93.7337 143.529L92.9581 142.315Z" fill="#060633"/>
<path d="M93.6556 141.883L93.4912 141.988L94.2674 143.201L94.4317 143.096L93.6556 141.883Z" fill="#060633"/>
<path d="M94.4376 141.367L94.2732 141.472L95.0487 142.686L95.2131 142.581L94.4376 141.367Z" fill="#060633"/>
<path d="M95.5003 140.67L95.3359 140.775L96.6526 142.836L96.817 142.731L95.5003 140.67Z" fill="#060633"/>
<path d="M262.77 169.275C262.77 169.275 262.935 161.562 270.648 160.616C278.361 159.671 293.097 160.226 293.097 160.226V164.668C293.097 164.668 276.38 164.518 270.813 164.668C268.487 164.728 265.681 164.938 262.77 169.275Z" fill="#373C52"/>
<path d="M275.21 163.812C275.21 163.812 274.579 186.817 271.113 188.693C267.647 190.583 263.025 188.272 265.651 183.861C268.277 179.449 269.853 179.239 270.798 174.092C271.743 168.945 271.743 163.797 271.743 163.797H275.21V163.812Z" fill="#373C52"/>
<path d="M282.143 163.812C282.143 163.812 279.727 179.569 280.567 183.876C281.407 188.182 285.294 190.388 289.18 188.077C293.067 185.766 291.912 182.405 291.912 182.405C291.912 182.405 288.745 184.926 286.239 183.035C283.733 181.144 284.994 162.972 284.994 162.972L282.143 163.812Z" fill="#373C52"/>
<path d="M77.8051 127.858C72.7031 127.858 67.9011 125.877 64.2997 122.261C60.6982 118.659 58.7024 113.857 58.7024 108.755C58.7024 103.653 60.6832 98.8513 64.2997 95.2498C67.9011 91.6484 72.7031 89.6526 77.8051 89.6526C82.9072 89.6526 87.7091 91.6334 91.3106 95.2498C94.912 98.8513 96.9078 103.653 96.9078 108.755C96.9078 113.857 94.927 118.659 91.3106 122.261C87.7091 125.862 82.9072 127.858 77.8051 127.858ZM77.8051 90.0127C72.7931 90.0127 68.0962 91.9635 64.5548 95.505C61.0133 99.0464 59.0625 103.758 59.0625 108.755C59.0625 113.767 61.0133 118.464 64.5548 122.006C68.0962 125.547 72.8081 127.498 77.8051 127.498C82.8171 127.498 87.514 125.547 91.0555 122.006C94.5969 118.464 96.5477 113.752 96.5477 108.755C96.5477 103.743 94.5969 99.0464 91.0555 95.505C87.514 91.9635 82.8171 90.0127 77.8051 90.0127Z" fill="#7FE1D3"/>
<path d="M77.8049 114.758C77.7299 114.758 77.6549 114.758 77.5798 114.758V114.563C77.88 114.563 78.1651 114.563 78.4652 114.563V114.758C78.2401 114.758 78.03 114.758 77.8049 114.758ZM76.6945 114.743C76.3944 114.743 76.0942 114.728 75.8091 114.713V114.518C76.0942 114.533 76.3944 114.533 76.6945 114.533V114.743ZM79.3505 114.728V114.533C79.6507 114.533 79.9358 114.518 80.2359 114.503L80.2509 114.698C79.9508 114.713 79.6507 114.728 79.3505 114.728ZM74.9238 114.683C74.6236 114.668 74.3385 114.653 74.0384 114.638L74.0534 114.443C74.3385 114.458 74.6386 114.473 74.9388 114.488L74.9238 114.683ZM81.1213 114.668L81.1063 114.473C81.4064 114.458 81.6915 114.443 81.9916 114.413L82.0066 114.608C81.7215 114.623 81.4214 114.653 81.1213 114.668ZM73.153 114.578C72.8529 114.548 72.5528 114.533 72.2677 114.503L72.2827 114.308C72.5678 114.338 72.8679 114.368 73.168 114.383L73.153 114.578ZM82.892 114.533L82.877 114.338C83.1771 114.308 83.4622 114.278 83.7623 114.248L83.7773 114.443C83.4772 114.488 83.1921 114.518 82.892 114.533ZM71.3823 114.413C71.0822 114.383 70.7971 114.338 70.497 114.308L70.527 114.113C70.8121 114.158 71.1122 114.188 71.3973 114.218L71.3823 114.413ZM84.6477 114.353L84.6177 114.158C84.9178 114.128 85.2029 114.083 85.488 114.037L85.518 114.233C85.2479 114.278 84.9478 114.323 84.6477 114.353ZM69.6266 114.173C69.3265 114.128 69.0414 114.083 68.7563 114.037L68.7863 113.842C69.0714 113.887 69.3715 113.932 69.6566 113.977L69.6266 114.173ZM86.4184 114.113L86.3884 113.917C86.6735 113.872 86.9736 113.827 87.2587 113.767L87.2888 113.962C87.0036 114.007 86.7035 114.068 86.4184 114.113ZM67.8709 113.872C67.5708 113.812 67.2857 113.752 67.0006 113.692L67.0456 113.497C67.3307 113.557 67.6158 113.617 67.9159 113.677L67.8709 113.872ZM88.1591 113.797L88.1141 113.602C88.3992 113.542 88.6993 113.482 88.9694 113.422L89.0145 113.617C88.7443 113.677 88.4442 113.737 88.1591 113.797ZM66.1452 113.497C65.8451 113.422 65.56 113.347 65.2899 113.272L65.3499 113.077C65.62 113.152 65.9201 113.227 66.2052 113.302L66.1452 113.497ZM89.8848 113.392L89.8398 113.197C90.1249 113.122 90.41 113.047 90.6951 112.957L90.7552 113.152C90.47 113.242 90.1849 113.317 89.8848 113.392ZM64.4345 113.032C64.1494 112.942 63.8643 112.852 63.5942 112.747L63.6542 112.567C63.9243 112.657 64.2094 112.762 64.4945 112.837L64.4345 113.032ZM91.5955 112.897L91.5355 112.702C91.8206 112.612 92.1057 112.507 92.3608 112.402L92.4358 112.582C92.1657 112.702 91.8806 112.807 91.5955 112.897ZM62.7538 112.432C62.4687 112.312 62.1986 112.192 61.9435 112.072L62.0335 111.892C62.2886 112.012 62.5588 112.132 62.8439 112.252L62.7538 112.432ZM93.2612 112.267L93.1861 112.087C93.4713 111.967 93.7264 111.832 93.9815 111.712L94.0715 111.892C93.8164 112.012 93.5463 112.147 93.2612 112.267ZM61.1482 111.667C60.8781 111.516 60.623 111.351 60.3979 111.186L60.5179 111.021C60.743 111.186 60.9831 111.336 61.2532 111.486L61.1482 111.667ZM94.8368 111.441L94.7318 111.276C94.9869 111.111 95.227 110.946 95.4371 110.766L95.5571 110.916C95.347 111.096 95.1069 111.276 94.8368 111.441ZM59.7076 110.616C59.4675 110.391 59.2874 110.151 59.1374 109.911L59.3024 109.806C59.4375 110.031 59.6176 110.256 59.8427 110.466L59.7076 110.616ZM96.2024 110.286L96.0523 110.166C96.2474 109.926 96.3974 109.686 96.4875 109.446L96.6675 109.521C96.5775 109.776 96.4124 110.046 96.2024 110.286ZM58.8072 109.055C58.7922 108.95 58.7922 108.86 58.7922 108.755C58.7922 108.455 58.8673 108.155 59.0023 107.87L59.1824 107.96C59.0623 108.23 59.0023 108.5 59.0023 108.77C59.0023 108.86 59.0023 108.95 59.0173 109.04L58.8072 109.055ZM96.6225 108.62C96.6075 108.35 96.5175 108.08 96.3824 107.825L96.5625 107.735C96.7126 108.02 96.8026 108.32 96.8326 108.605L96.6225 108.62ZM59.6476 107.24L59.4975 107.105C59.6776 106.895 59.9027 106.685 60.1578 106.489L60.2778 106.639C60.0377 106.85 59.8277 107.045 59.6476 107.24ZM95.8722 107.15C95.6922 106.955 95.4671 106.76 95.227 106.579L95.347 106.414C95.6021 106.609 95.8272 106.805 96.0223 107L95.8722 107.15ZM60.9981 106.159L60.8931 105.994C61.1332 105.844 61.4033 105.709 61.6734 105.559L61.7634 105.739C61.4933 105.874 61.2382 106.024 60.9981 106.159ZM94.4917 106.084C94.2516 105.949 93.9965 105.799 93.7114 105.664L93.8014 105.484C94.0865 105.619 94.3416 105.769 94.5817 105.904L94.4917 106.084ZM62.5738 105.364L62.4987 105.184C62.7538 105.079 63.039 104.959 63.3241 104.854L63.3991 105.034C63.099 105.154 62.8289 105.259 62.5738 105.364ZM92.916 105.319C92.6609 105.214 92.3758 105.109 92.0907 105.004L92.1507 104.824C92.4358 104.929 92.721 105.034 92.9761 105.139L92.916 105.319ZM64.2244 104.764L64.1644 104.569C64.4345 104.479 64.7196 104.389 65.0198 104.314L65.0798 104.509C64.7797 104.584 64.4945 104.674 64.2244 104.764ZM91.2654 104.719C90.9953 104.629 90.7101 104.554 90.425 104.464L90.4851 104.269C90.7702 104.344 91.0553 104.434 91.3404 104.524L91.2654 104.719ZM65.9201 104.269L65.8751 104.073C66.1602 103.998 66.4453 103.938 66.7455 103.863L66.7905 104.058C66.4753 104.133 66.1902 104.209 65.9201 104.269ZM89.5697 104.239C89.2846 104.163 88.9995 104.103 88.7143 104.043L88.7594 103.848C89.0595 103.908 89.3446 103.983 89.6297 104.043L89.5697 104.239ZM67.6308 103.893L67.5858 103.698C67.8709 103.638 68.171 103.593 68.4561 103.533L68.4862 103.728C68.216 103.773 67.9159 103.833 67.6308 103.893ZM87.844 103.863C87.5589 103.803 87.2738 103.758 86.9736 103.698L87.0036 103.503C87.3038 103.548 87.5889 103.608 87.874 103.668L87.844 103.863ZM69.3715 103.578L69.3415 103.383C69.6266 103.338 69.9267 103.293 70.2119 103.248L70.2419 103.443C69.9567 103.488 69.6566 103.533 69.3715 103.578ZM86.1033 103.563C85.8182 103.518 85.518 103.473 85.2329 103.443L85.2629 103.248C85.5631 103.293 85.8482 103.323 86.1483 103.368L86.1033 103.563ZM71.1272 103.338L71.0972 103.143C71.3823 103.113 71.6824 103.083 71.9826 103.053L71.9976 103.248C71.7125 103.278 71.4123 103.308 71.1272 103.338ZM84.3476 103.323C84.0625 103.293 83.7623 103.263 83.4622 103.233L83.4772 103.038C83.7773 103.068 84.0625 103.098 84.3626 103.128L84.3476 103.323ZM72.8829 103.158L72.8679 102.963C73.153 102.933 73.4532 102.918 73.7533 102.903L73.7683 103.098C73.4682 103.113 73.168 103.143 72.8829 103.158ZM82.5919 103.143C82.3067 103.113 82.0066 103.098 81.7065 103.083L81.7215 102.888C82.0216 102.903 82.3217 102.933 82.6069 102.948L82.5919 103.143ZM74.6386 103.038L74.6236 102.843C74.9088 102.828 75.2089 102.813 75.509 102.798L75.524 102.993C75.2389 103.008 74.9388 103.023 74.6386 103.038ZM80.8211 103.038C80.536 103.023 80.2359 103.008 79.9358 102.993V102.798C80.2359 102.813 80.536 102.828 80.8211 102.843V103.038ZM76.4094 102.978V102.783C76.7095 102.783 76.9946 102.768 77.2947 102.768V102.963C76.9946 102.963 76.7095 102.963 76.4094 102.978ZM79.0654 102.978C78.7803 102.978 78.4802 102.963 78.1801 102.963V102.768C78.4802 102.768 78.7803 102.768 79.0654 102.783V102.978Z" fill="#7FE1D3"/>
<path d="M77.7599 127.783C77.4448 127.783 77.1446 127.708 76.8295 127.573L76.9045 127.378C77.1897 127.498 77.4748 127.558 77.7449 127.573L77.7599 127.783ZM78.6903 127.603L78.6152 127.408C78.8703 127.303 79.1254 127.153 79.3805 126.958L79.5156 127.123C79.2455 127.333 78.9604 127.498 78.6903 127.603ZM76.0342 127.063C75.8091 126.883 75.584 126.657 75.3739 126.402L75.524 126.267C75.7341 126.507 75.9442 126.732 76.1542 126.898L76.0342 127.063ZM80.1759 126.477L80.0258 126.342C80.2059 126.132 80.401 125.892 80.566 125.622L80.7311 125.742C80.551 126.012 80.3709 126.252 80.1759 126.477ZM74.8187 125.652C74.6536 125.412 74.5036 125.142 74.3535 124.857L74.5336 124.767C74.6836 125.052 74.8337 125.307 74.9988 125.547L74.8187 125.652ZM81.2113 124.947L81.0312 124.842C81.1663 124.587 81.3013 124.317 81.4364 124.031L81.6164 124.121C81.4964 124.407 81.3613 124.692 81.2113 124.947ZM73.9483 124.031C73.8283 123.761 73.7082 123.476 73.5882 123.176L73.7833 123.101C73.9033 123.386 74.0234 123.671 74.1434 123.941L73.9483 124.031ZM81.9916 123.266L81.7965 123.191C81.9016 122.921 82.0066 122.636 82.1116 122.336L82.3067 122.411C82.2167 122.696 82.1116 122.996 81.9916 123.266ZM73.2581 122.321C73.168 122.036 73.063 121.735 72.973 121.435L73.168 121.375C73.2581 121.675 73.3481 121.961 73.4531 122.246L73.2581 122.321ZM82.6068 121.525L82.4118 121.465C82.5018 121.18 82.5768 120.88 82.6669 120.58L82.862 120.64C82.7869 120.94 82.6969 121.24 82.6068 121.525ZM72.7329 120.55C72.6578 120.265 72.5828 119.965 72.5078 119.65L72.7028 119.605C72.7779 119.905 72.8529 120.205 72.9279 120.49L72.7329 120.55ZM83.087 119.74L82.892 119.695C82.967 119.41 83.027 119.109 83.087 118.794L83.2821 118.839C83.2221 119.154 83.1621 119.455 83.087 119.74ZM72.3127 118.749C72.2527 118.449 72.1926 118.149 72.1326 117.849L72.3427 117.819C72.4027 118.119 72.4627 118.419 72.5228 118.719L72.3127 118.749ZM83.4772 117.939L83.2821 117.894C83.3421 117.594 83.3872 117.294 83.4472 116.994L83.6573 117.024C83.5822 117.339 83.5222 117.639 83.4772 117.939ZM71.9675 116.949C71.9225 116.648 71.8775 116.348 71.8325 116.033L72.0426 116.003C72.0876 116.303 72.1326 116.618 72.1776 116.904L71.9675 116.949ZM83.7623 116.123L83.5522 116.093C83.5973 115.793 83.6273 115.493 83.6723 115.178L83.8824 115.208C83.8524 115.523 83.8073 115.823 83.7623 116.123ZM71.7124 115.118C71.6824 114.818 71.6374 114.503 71.6074 114.202L71.8175 114.187C71.8475 114.488 71.8775 114.803 71.9225 115.103L71.7124 115.118ZM83.9874 114.292L83.7773 114.277C83.8073 113.977 83.8373 113.662 83.8674 113.362L84.0774 113.377C84.0474 113.677 84.0174 113.992 83.9874 114.292ZM71.5324 113.287C71.5024 112.987 71.4874 112.672 71.4723 112.372L71.6824 112.357C71.6974 112.657 71.7274 112.972 71.7425 113.272L71.5324 113.287ZM84.1525 112.462L83.9424 112.447C83.9574 112.147 83.9874 111.831 84.0024 111.531L84.2125 111.546C84.1825 111.846 84.1675 112.162 84.1525 112.462ZM71.4123 111.441C71.3973 111.141 71.3823 110.826 71.3823 110.526H71.5924C71.6074 110.826 71.6074 111.141 71.6224 111.441H71.4123ZM84.2425 110.616H84.0324C84.0474 110.316 84.0474 110.001 84.0474 109.701H84.2575C84.2575 110.001 84.2425 110.316 84.2425 110.616ZM71.3523 109.611C71.3523 109.325 71.3523 109.04 71.3523 108.755V108.68H71.5624V108.755C71.5624 109.04 71.5624 109.325 71.5624 109.596L71.3523 109.611ZM84.2725 108.785H84.0624V108.755C84.0624 108.455 84.0624 108.155 84.0624 107.855H84.2725C84.2725 108.155 84.2725 108.455 84.2725 108.755V108.785ZM71.5624 107.765H71.3523C71.3523 107.465 71.3673 107.15 71.3823 106.849H71.5924C71.5774 107.165 71.5624 107.465 71.5624 107.765ZM84.0324 106.939C84.0174 106.639 84.0174 106.324 84.0024 106.024L84.2125 106.009C84.2275 106.309 84.2425 106.624 84.2425 106.924L84.0324 106.939ZM71.6224 105.934L71.4123 105.919C71.4273 105.619 71.4423 105.304 71.4723 105.004L71.6824 105.019C71.6524 105.319 71.6374 105.634 71.6224 105.934ZM83.9424 105.109C83.9274 104.809 83.8974 104.494 83.8674 104.193L84.0774 104.178C84.1075 104.478 84.1225 104.794 84.1525 105.094L83.9424 105.109ZM71.7425 104.103L71.5324 104.088C71.5624 103.788 71.5924 103.473 71.6224 103.173L71.8325 103.188C71.8025 103.503 71.7725 103.803 71.7425 104.103ZM83.7923 103.293C83.7623 102.993 83.7323 102.678 83.6873 102.378L83.8974 102.348C83.9274 102.648 83.9724 102.963 84.0024 103.263L83.7923 103.293ZM71.9375 102.288L71.7274 102.258C71.7575 101.957 71.8025 101.642 71.8475 101.342L72.0576 101.372C72.0126 101.672 71.9675 101.972 71.9375 102.288ZM83.5672 101.462C83.5222 101.162 83.4772 100.847 83.4322 100.562L83.6423 100.532C83.6873 100.832 83.7323 101.132 83.7773 101.447L83.5672 101.462ZM72.1926 100.472L71.9826 100.442C72.0276 100.142 72.0876 99.8266 72.1476 99.5415L72.3427 99.5865C72.2977 99.8566 72.2527 100.172 72.1926 100.472ZM83.2821 99.6615C83.2221 99.3614 83.1621 99.0613 83.1021 98.7612L83.2971 98.7162C83.3572 99.0163 83.4172 99.3164 83.4772 99.6165L83.2821 99.6615ZM72.5378 98.6712L72.3427 98.6261C72.4027 98.326 72.4778 98.0259 72.5528 97.7258L72.7479 97.7708C72.6728 98.0709 72.5978 98.371 72.5378 98.6712ZM82.892 97.8608C82.8169 97.5607 82.7419 97.2606 82.6669 96.9755L82.862 96.9154C82.937 97.2006 83.012 97.5007 83.087 97.8158L82.892 97.8608ZM72.9579 96.8854L72.7629 96.8254C72.8379 96.5253 72.9279 96.2252 73.018 95.9401L73.213 96.0001C73.138 96.2852 73.048 96.5853 72.9579 96.8854ZM82.4268 96.0901C82.3367 95.79 82.2467 95.5049 82.1417 95.2198L82.3367 95.1597C82.4418 95.4448 82.5318 95.745 82.6219 96.0301L82.4268 96.0901ZM73.4982 95.1447L73.3031 95.0697C73.4081 94.7696 73.5132 94.4845 73.6332 94.1993L73.8283 94.2744C73.7233 94.5595 73.6032 94.8446 73.4982 95.1447ZM81.8265 94.3644C81.7065 94.0793 81.5864 93.7942 81.4664 93.5241L81.6465 93.434C81.7665 93.7041 81.8866 93.9893 82.0066 94.2894L81.8265 94.3644ZM74.1884 93.449L74.0084 93.359C74.1434 93.0739 74.2785 92.7888 74.4285 92.5337L74.6086 92.6387C74.4586 92.8788 74.3235 93.1639 74.1884 93.449ZM81.0612 92.7138C80.9112 92.4286 80.7461 92.1735 80.596 91.9334L80.7611 91.8134C80.9262 92.0535 81.0762 92.3236 81.2413 92.6087L81.0612 92.7138ZM75.0738 91.8584L74.9087 91.7384C75.0888 91.4682 75.2839 91.2131 75.479 91.0031L75.629 91.1381C75.4339 91.3482 75.2539 91.5883 75.0738 91.8584ZM80.0558 91.2131C79.8457 90.973 79.6356 90.763 79.4106 90.5829L79.5456 90.4178C79.7707 90.5979 79.9958 90.823 80.2059 91.0781L80.0558 91.2131ZM76.2743 90.5228L76.1542 90.3578C76.4243 90.1477 76.6945 89.9976 76.9796 89.8926L77.0546 90.0877C76.7845 90.1777 76.5294 90.3278 76.2743 90.5228ZM78.6603 90.1177C78.3751 89.9976 78.09 89.9376 77.8049 89.9376V89.7275C78.12 89.7275 78.4352 89.7876 78.7353 89.9226L78.6603 90.1177Z" fill="#7FE1D3"/>
<path d="M96.7276 108.83H96.6526V108.695H96.7276V108.83ZM96.0374 108.83H95.4221V108.695H96.0374V108.83ZM94.8219 108.83H94.2066V108.695H94.8219V108.83ZM93.6064 108.83H92.9911V108.695H93.6064V108.83ZM92.3909 108.83H91.7756V108.695H92.3909V108.83ZM91.1604 108.83H90.5451V108.695H91.1604V108.83ZM89.9449 108.83H89.3296V108.695H89.9449V108.83ZM88.7294 108.83H88.1141V108.695H88.7294V108.83ZM87.5139 108.83H86.8987V108.695H87.5139V108.83ZM86.2984 108.83H85.6832V108.695H86.2984V108.83ZM85.0829 108.83H84.4677V108.695H85.0829V108.83ZM83.8524 108.83H83.2372V108.695H83.8524V108.83ZM82.6369 108.83H82.0217V108.695H82.6369V108.83ZM81.4214 108.83H80.8062V108.695H81.4214V108.83ZM80.2059 108.83H79.5907V108.695H80.2059V108.83ZM78.9905 108.83H78.3752V108.695H78.9905V108.83ZM77.775 108.83H77.1597V108.695H77.775V108.83ZM76.5445 108.83H75.9292V108.695H76.5445V108.83ZM75.329 108.83H74.7137V108.695H75.329V108.83ZM74.1135 108.83H73.4982V108.695H74.1135V108.83ZM72.898 108.83H72.2827V108.695H72.898V108.83ZM71.6825 108.83H71.0673V108.695H71.6825V108.83ZM70.467 108.83H69.8518V108.695H70.467V108.83ZM69.2365 108.83H68.6213V108.695H69.2365V108.83ZM68.021 108.83H67.4058V108.695H68.021V108.83ZM66.8055 108.83H66.1903V108.695H66.8055V108.83ZM65.59 108.83H64.9748V108.695H65.59V108.83ZM64.3745 108.83H63.7593V108.695H64.3745V108.83ZM63.1441 108.83H62.5288V108.695H63.1441V108.83ZM61.9286 108.83H61.3133V108.695H61.9286V108.83ZM60.7131 108.83H60.1128V108.695H60.7281V108.83H60.7131ZM59.4976 108.83H58.8823V108.695H59.4976V108.83Z" fill="#7FE1D3"/>
<path d="M77.8799 127.678H77.7449V127.603H77.8799V127.678ZM77.8799 126.988H77.7449V126.372H77.8799V126.988ZM77.8799 125.772H77.7449V125.157H77.8799V125.772ZM77.8799 124.557H77.7449V123.941H77.8799V124.557ZM77.8799 123.326H77.7449V122.711H77.8799V123.326ZM77.8799 122.111H77.7449V121.495H77.8799V122.111ZM77.8799 120.895H77.7449V120.28H77.8799V120.895ZM77.8799 119.68H77.7449V119.064H77.8799V119.68ZM77.8799 118.464H77.7449V117.849H77.8799V118.464ZM77.8799 117.249H77.7449V116.633H77.8799V117.249ZM77.8799 116.018H77.7449V115.403H77.8799V116.018ZM77.8799 114.803H77.7449V114.187H77.8799V114.803ZM77.8799 113.587H77.7449V112.972H77.8799V113.587ZM77.8799 112.372H77.7449V111.757H77.8799V112.372ZM77.8799 111.156H77.7449V110.541H77.8799V111.156ZM77.8799 109.941H77.7449V109.326H77.8799V109.941ZM77.8799 108.71H77.7449V108.095H77.8799V108.71ZM77.8799 107.495H77.7449V106.88H77.8799V107.495ZM77.8799 106.279H77.7449V105.664H77.8799V106.279ZM77.8799 105.064H77.7449V104.449H77.8799V105.064ZM77.8799 103.848H77.7449V103.233H77.8799V103.848ZM77.8799 102.633H77.7449V102.018H77.8799V102.633ZM77.8799 101.402H77.7449V100.787H77.8799V101.402ZM77.8799 100.187H77.7449V99.5716H77.8799V100.187ZM77.8799 98.9713H77.7449V98.3561H77.8799V98.9713ZM77.8799 97.7559H77.7449V97.1406H77.8799V97.7559ZM77.8799 96.5404H77.7449V95.9251H77.8799V96.5404ZM77.8799 95.3249H77.7449V94.7096H77.8799V95.3249ZM77.8799 94.0944H77.7449V93.4791H77.8799V94.0944ZM77.8799 92.8789H77.7449V92.2636H77.8799V92.8789ZM77.8799 91.6634H77.7449V91.0481H77.8799V91.6634ZM77.8799 90.4479H77.7449V89.8326H77.8799V90.4479Z" fill="#7FE1D3"/>
<path d="M272.314 97.6658L258.448 93.7642L258.673 89.0673L279.321 75.4268L284.589 76.9124L279.697 94.2894L283.508 95.3698L282.083 100.442L278.271 99.3614L276.545 105.484L270.588 103.803L272.314 97.6658ZM273.739 92.6087L276.23 83.7701L266.206 90.4779L273.739 92.6087Z" fill="#373C52"/>
<path d="M115.305 61.261L117.526 53.6379C121.248 54.8834 124.474 55.1385 127.58 53.773C131.197 52.1823 132.682 49.4362 131.272 46.2249C129.951 43.2087 126.62 42.5784 122.958 44.1841C120.752 45.1595 119.012 46.6301 117.661 48.0707L111.899 47.0652L105.296 29.3131L126.875 19.8292L129.846 26.597L114.885 33.1696L117.151 39.4121C118.396 38.4367 119.552 37.6414 121.503 36.7861C128.33 33.7849 135.248 34.7002 138.775 42.7285C142.031 50.1565 138.835 57.1943 130.761 60.7358C125.149 63.2268 120.152 63.0167 115.305 61.261Z" fill="#F8D451"/>
<path d="M238.895 86.5013C238.91 86.2462 239.105 83.5451 243.217 83.41C243.217 83.41 241.191 83.6501 240.846 84.5355C240.846 84.5355 242.227 83.44 243.352 83.7852C244.477 84.1453 245.138 86.1111 245.138 86.7564C245.138 87.4016 244.522 89.4875 243.802 89.6676C243.532 89.7276 243.217 89.7126 242.947 89.6676C243.142 89.9677 243.322 90.2828 243.502 90.658C245.138 94.0343 243.457 97.3206 242.061 96.9605C241.176 96.7204 240.921 98.251 240.921 98.251L232.263 91.2432C232.247 91.2282 235.429 84.6405 238.895 86.5013Z" fill="#412013"/>
<path d="M221.999 126.462C224.535 126.207 227.536 125.772 228.736 125.022C230.552 123.911 233.718 119.229 235.669 115.823C235.729 115.733 235.849 114.007 235.894 113.932C236.915 112.117 237.365 113.242 237.425 111.801C237.47 110.931 237.365 110.166 237.185 109.521C236.945 108.65 236.554 107.975 236.149 107.465C236.089 107.375 236.044 107.3 235.954 107.225C235.279 106.429 234.634 106.099 234.634 106.099C234.304 105.964 233.943 106.129 233.568 106.534V106.549C233.268 106.864 232.923 107.36 232.608 107.975C232.593 107.99 232.578 108.005 232.578 108.02C232.503 108.14 232.443 108.29 232.353 108.44C232.323 108.47 232.308 108.515 232.293 108.545C232.143 108.86 231.993 109.205 231.828 109.551C230.117 113.287 228.826 119.455 227.311 121.135C226.65 121.856 223.124 122.756 220.753 123.821C219.042 124.542 220.318 126.642 221.999 126.462Z" fill="#E2B097"/>
<path d="M235.894 185.751L237.74 186.442C237.74 186.442 245.723 175.367 246.713 165.613C246.893 163.873 246.833 162.192 246.443 160.631C246.443 160.631 246.518 160.181 246.653 159.401C246.713 159.026 246.788 158.59 246.878 158.08C247.134 156.595 247.494 154.554 247.899 152.243C248.844 146.916 250.06 140.088 251.005 135.076L250.51 134.911L245.153 133.185L244.042 129.659L240.051 128.608C240.051 128.608 239.165 130.349 238.355 138.587C238.205 139.668 238.07 140.853 237.98 142.159C237.665 146.105 237.65 150.997 238.355 156.595C238.535 158.02 238.775 159.506 239.06 161.021C239.27 162.132 239.3 163.647 239.21 165.403C238.805 173.371 235.894 185.751 235.894 185.751Z" fill="#7FE1D3"/>
<path d="M237.98 142.159L246.653 159.401C246.714 159.026 246.789 158.59 246.879 158.08C247.134 156.595 247.494 154.554 247.899 152.243C248.844 146.916 250.06 140.088 251.005 135.076L250.51 134.911L245.153 133.185L244.042 129.659L238.58 128.218C238.58 128.218 237.98 138.872 237.98 142.159Z" fill="#6FD2CC"/>
<path d="M241.792 130.829L241.987 129.104C245.348 130.004 254.337 126.613 254.337 126.613C254.337 126.613 257.593 129.479 257.173 136.336C256.963 139.683 256.587 153.924 256.182 158.14C256.032 159.671 255.912 160.751 255.867 161.187C255.852 161.322 255.897 161.442 255.972 161.562C256.557 162.552 257.038 163.588 257.443 164.653C261.344 175.067 256.843 187.897 256.843 187.897L255.672 187.432C255.672 187.432 253.106 173.161 251.02 166.844C250.66 165.778 250.33 164.938 250.015 164.428C249.114 162.957 248.259 160.571 247.509 157.735C246.068 152.363 244.898 145.355 244.132 139.968C243.997 139.953 241.792 130.829 241.792 130.829Z" fill="#7FE1D3"/>
<path d="M235.369 109.956C236.419 110.451 237.695 110.781 239.24 110.856C245.018 111.171 246.338 106.099 246.578 102.738C245.738 102.438 245.018 102.468 244.598 102.483C244.448 102.498 244.283 102.498 244.132 102.513C243.562 102.558 242.992 102.318 242.647 101.867C241.987 101.027 241.221 99.5115 240.711 97.4257L240.456 97.5457L236.284 99.5115C236.284 99.5115 236.734 100.862 237.05 102.168C237.185 102.723 237.305 103.278 237.365 103.713C237.41 104.118 237.185 104.509 236.809 104.659C236.749 104.764 235.849 107.075 235.369 109.956Z" fill="#E2B097"/>
<path d="M236.269 99.5113C236.269 99.5113 236.719 100.862 237.035 102.167C239.466 101.492 240.216 98.9261 240.441 97.5455L236.269 99.5113Z" fill="#DA9F84"/>
<path d="M235.759 100.952C235.759 100.952 241.596 99.6015 240.696 95.9851C239.796 92.3686 239.946 89.7576 236.179 90.4629C232.413 91.1681 232.037 92.7288 232.037 94.0193C232.052 95.2798 234.213 101.207 235.759 100.952Z" fill="#E2B097"/>
<path d="M231.722 91.9485C232.353 90.6429 233.088 90.703 233.553 90.9431C236.299 88.407 238.985 90.4779 238.985 90.4779C240.021 92.9839 242.257 94.0043 242.257 94.0043C242.257 94.0043 241.356 94.9197 238.76 94.9047C237.965 94.9047 237.17 94.5295 236.449 94.0343C237.845 95.4449 239.496 96.3002 239.496 96.3002C236.239 95.685 234.063 91.9185 233.838 91.5133C233.568 91.9185 233.043 92.7888 232.998 93.5241C232.938 94.5145 233.283 96.4503 232.713 96.5253C232.698 96.5103 230.777 93.9143 231.722 91.9485Z" fill="#412013"/>
<path d="M252.056 119.965C251.846 119.74 251.665 119.485 251.515 119.229C251.11 118.584 250.855 117.849 250.78 117.069C250.465 114.037 250.585 111.201 250.555 109.476C250.24 109.235 249.925 109.025 249.64 108.815C249.204 108.5 248.814 108.2 248.529 107.9C248.214 107.57 248.019 107.225 247.989 106.849C247.974 106.564 247.989 106.264 248.019 105.964C248.034 105.829 248.049 105.679 248.079 105.544C248.304 104.073 248.919 102.753 248.919 102.753C247.374 102.123 243.802 102.528 243.802 102.528C243.802 102.528 243.442 105.469 242.092 106.669C241.551 107.15 238.535 108.86 237.17 107.12C236.614 106.414 237.095 104.584 237.14 104.449C237.14 104.449 234.814 105.169 233.463 106.459C232.578 107.315 232.068 108.92 231.857 109.551C231.857 109.551 232.893 109.506 233.718 110.091C233.553 111.231 233.478 112.522 233.943 113.767C233.988 113.887 234.033 113.992 234.093 114.112C235.564 117.264 238.265 130.319 238.265 130.319C239.09 132.84 255.912 129.854 255.957 127.723C256.572 125.427 253.676 121.796 252.056 119.965Z" fill="#E1558B"/>
<path d="M243.097 125.907C246.654 125.862 249.67 122.171 251.5 119.229C251.095 118.584 250.84 117.849 250.765 117.068C250.45 114.037 250.57 111.201 250.54 109.475C250.225 109.235 249.91 109.025 249.625 108.815C249.19 108.5 248.799 108.2 248.514 107.9C245.603 112.807 238.28 125.967 243.097 125.907Z" fill="#D23E7D"/>
<path d="M250.015 188.843H259.273C259.273 188.843 259.498 187.432 259.018 186.367C258.553 185.346 257.833 184.866 257.998 183.635C257.413 184.236 256.452 184.926 255.117 184.746C254.952 185.016 254.051 186.442 253.511 186.832C252.911 187.252 250.21 187.087 250.015 188.843Z" fill="#F8D451"/>
<path d="M230.132 188.843H239.391C239.391 188.843 239.736 187.372 239.135 186.367C238.595 185.481 238.805 184.971 239.196 184.236C238.775 184.401 238.235 184.566 237.635 184.536C237.17 184.506 236.689 184.296 236.254 184.056C235.849 184.506 234.153 186.442 233.613 186.832C233.013 187.252 230.312 187.087 230.132 188.843Z" fill="#F8D451"/>
<path d="M136.119 170.91L151.125 153.924C158.418 161.367 164.87 165.178 174.204 166.289C187.815 167.909 196.308 158.485 199.654 143.809C193.727 147.756 185.939 149.887 176.29 148.731C152.25 145.88 138.325 130.739 141.026 107.96C143.682 85.6609 162.874 71.2551 187.875 74.2263C202.746 75.997 211.014 80.6639 218.397 90.0427C225.36 98.8963 229.156 111.531 226.53 133.68C222.268 169.59 202.43 192.099 170.948 188.362C154.801 186.442 144.522 179.764 136.119 170.91ZM203.631 114.443C204.801 104.629 198.364 96.6454 186.179 95.2048C174.159 93.7792 166.521 99.9317 165.32 110.061C164.15 119.875 170.618 127.543 182.652 128.968C194.672 130.379 202.46 124.242 203.631 114.443Z" fill="#7FE1D3"/>
<path d="M228.901 128.413L229.276 129.854C229.276 129.854 233.898 128.878 234.919 128.668H234.934C236.674 128.248 238.625 127.753 240.261 127.198C241.416 126.793 242.422 126.357 243.097 125.937C243.172 125.892 243.217 125.847 243.292 125.802C244.928 124.617 246.848 121.135 248.364 117.414C248.574 116.904 248.769 116.378 248.964 115.883C249.655 114.022 250.21 112.177 250.555 110.601C250.765 109.656 250.9 108.785 250.93 108.08C250.945 107.825 250.96 107.6 250.945 107.375C250.915 103.338 248.919 102.783 248.919 102.783C248.874 102.768 248.829 102.753 248.784 102.738C248.439 102.678 248.079 102.918 247.704 103.383C247.224 103.953 246.728 104.884 246.218 106.009C245.423 107.81 244.582 110.136 243.817 112.432C243.382 113.692 242.962 114.968 242.557 116.138C242.317 116.844 242.076 117.519 241.866 118.134C241.431 119.305 241.041 120.25 240.696 120.85C240.471 121.24 239.826 121.781 238.985 122.396C237.455 123.416 228.901 128.413 228.901 128.413Z" fill="#E2B097"/>
<path d="M245.783 106.129C248.469 105.394 250.945 107.33 250.945 107.33C250.915 103.293 248.904 102.753 248.904 102.753C248.094 102.408 246.744 103.953 245.783 106.129Z" fill="#E1558B"/>
<path d="M229.787 127.888C229.787 127.888 227.431 128.803 226.98 129.163C226.53 129.524 225.645 130.694 225.495 131.309C225.495 131.309 225.51 131.564 225.735 131.564C225.975 131.564 226.5 130.664 226.89 130.799C226.89 130.799 226.395 132 226.11 132.3C225.825 132.6 225.66 134.13 225.72 134.461C225.78 134.791 227.761 133.215 228.586 132.495C229.021 132.12 229.021 131.189 229.156 130.139C229.276 129.223 231.812 128.698 231.812 128.698L229.787 127.888Z" fill="#E2B097"/>
<path d="M128.991 178.639H93.3062V165.088H129.111C132.007 165.088 134.348 167.429 134.348 170.325V173.281C134.363 176.238 131.962 178.639 128.991 178.639Z" fill="#FCECDB"/>
<path d="M164.975 170.655V172.696C164.975 173.792 164.705 174.812 164.225 175.682C163.264 177.453 161.479 178.639 159.423 178.639H92.2107C91.7605 178.639 91.4004 178.248 91.4004 177.783V177.483C91.4004 177.003 91.7605 176.628 92.2107 176.628H133.177C133.402 176.343 133.582 176.028 133.748 175.697C134.138 174.917 134.348 174.047 134.348 173.101V170.505C134.348 170.025 134.288 169.56 134.183 169.125C134.003 168.374 133.672 167.699 133.237 167.114H92.2107C91.7605 167.114 91.4004 166.724 91.4004 166.259V165.959C91.4004 165.478 91.7605 165.103 92.2107 165.103H159.753C162.139 165.103 164.135 166.814 164.765 169.14C164.9 169.605 164.975 170.13 164.975 170.655Z" fill="#E77D3B"/>
<path d="M164.765 169.125H134.198C134.018 168.374 133.688 167.699 133.252 167.114H92.2107C91.7605 167.114 91.4004 166.724 91.4004 166.259V165.958C91.4004 165.478 91.7605 165.103 92.2107 165.103H159.753C162.139 165.088 164.15 166.784 164.765 169.125Z" fill="#D87131"/>
<path d="M93.3062 171.856L98.2882 172.081L93.3062 172.231V171.856Z" fill="#F4D2B8"/>
<path d="M93.3062 173.987L105.146 174.212L93.3062 174.347V173.987Z" fill="#F4D2B8"/>
<path d="M105.311 189.158H140.335V178.608H104.996C102.37 178.608 100.239 180.739 100.239 183.365V184.101C100.239 186.892 102.505 189.158 105.311 189.158Z" fill="#F8D451"/>
<path d="M138.639 189.158H178.571V178.608H138.534C135.863 178.608 133.702 180.769 133.702 183.44V184.221C133.702 186.937 135.923 189.158 138.639 189.158Z" fill="#FCECDB"/>
<path d="M131.062 189.158H179.906C180.312 189.158 180.642 188.828 180.642 188.423V188.317C180.642 187.912 180.312 187.582 179.906 187.582H131.062C130.657 187.582 130.326 187.912 130.326 188.317V188.423C130.326 188.828 130.657 189.158 131.062 189.158Z" fill="#F8D451"/>
<path d="M131.062 180.184H179.906C180.312 180.184 180.642 179.854 180.642 179.449V179.344C180.642 178.939 180.312 178.608 179.906 178.608H131.062C130.657 178.608 130.326 178.939 130.326 179.344V179.449C130.326 179.854 130.657 180.184 131.062 180.184Z" fill="#F8D451"/>
<path d="M178.571 183.891L173.124 184.056L178.571 184.161V183.891Z" fill="#F4D2B8"/>
<path d="M178.571 181.46L165.635 181.64L178.571 181.745V181.46Z" fill="#F4D2B8"/>
<path d="M165.755 181.595C165.755 181.595 166.311 182.045 166.491 182.795C166.521 182.93 166.551 183.065 166.551 183.215C166.581 184.206 166.551 186.442 166.551 186.442L168.186 185.316L169.822 186.442V183.41C169.822 182.84 169.687 182.285 169.417 181.91C169.297 181.73 169.132 181.595 168.967 181.595H165.755Z" fill="#E1558B"/>
<path d="M165.755 181.595C165.755 181.595 166.311 182.045 166.491 182.795L169.777 182.84C169.777 182.84 169.642 181.775 168.967 181.595H165.755Z" fill="#D23E7D"/>
<path d="M134.723 165.103H97.0425V149.617H134.858C138.039 149.617 140.635 152.198 140.635 155.394V159.206C140.62 162.462 137.979 165.103 134.723 165.103Z" fill="#FCECDB"/>
<path d="M140.65 155.634V158.966C140.635 160.391 139.93 161.622 138.865 162.282C138.339 162.612 137.754 162.792 137.109 162.792H95.8872C95.407 162.792 95.0168 163.227 95.0168 163.753V164.143C95.0168 164.668 95.407 165.103 95.8872 165.103H167.106C169.147 165.103 170.948 163.993 172.043 162.282C172.733 161.201 173.138 159.896 173.138 158.47V155.844C173.138 154.869 172.943 153.954 172.583 153.128C171.668 151.042 169.732 149.602 167.481 149.602H95.9022C95.422 149.602 95.0319 150.037 95.0319 150.562V150.952C95.0319 151.478 95.422 151.913 95.9022 151.913H137.244C138.234 151.913 139.12 152.378 139.75 153.113C140.305 153.789 140.635 154.659 140.65 155.634Z" fill="#E1558B"/>
<path d="M95.0168 163.752V164.143C95.0168 164.668 95.407 165.103 95.8872 165.103H167.106C169.147 165.103 170.948 163.993 172.043 162.282H138.865C138.339 162.612 137.754 162.792 137.109 162.792H95.8872C95.407 162.792 95.0168 163.227 95.0168 163.752Z" fill="#D23E7D"/>
<path d="M97.0425 157.36L102.325 157.63L97.0425 157.78V157.36Z" fill="#F4D2B8"/>
<path d="M97.0425 153.803L109.618 154.059L97.0425 154.209V153.803Z" fill="#F4D2B8"/>
<path d="M134.078 153.999C134.078 153.999 133.252 154.494 132.967 155.304C132.922 155.439 132.892 155.589 132.877 155.754C132.832 156.835 132.877 159.251 132.877 159.251L130.431 158.035L127.985 159.251V155.964C127.985 155.349 128.195 154.734 128.585 154.344C128.78 154.149 129.006 154.014 129.261 154.014H134.078V153.999Z" fill="#E1558B"/>
<path d="M134.078 153.999C134.078 153.999 133.253 154.494 132.968 155.304L128.061 155.349C128.061 155.349 128.256 154.194 129.261 153.999H134.078Z" fill="#D23E7D"/>
<path d="M184.768 96.5104C185.008 96.7805 185.038 97.0956 184.918 97.4108C184.693 98.011 183.973 98.6863 183.133 99.3616C183.028 99.4516 182.923 99.5266 182.848 99.6016C182.833 99.6167 182.803 99.6467 182.788 99.6617C182.773 99.6767 182.758 99.6917 182.743 99.7067C181.962 100.427 182.247 100.592 180.852 102.063C179.246 103.728 178.151 103.758 177.836 103.608C177.565 103.473 178.106 102.588 178.706 101.597C178.736 101.552 178.766 101.507 178.796 101.447C178.871 101.312 178.961 101.177 179.036 101.042C179.741 99.8418 179.561 99.2865 179.396 97.5008C179.261 96.0602 177.145 89.4125 177.145 89.4125L180.222 88.8873C180.222 88.8873 181.152 94.1695 182.172 94.9948C182.713 95.43 183.328 95.43 183.853 95.7601C183.883 95.7751 183.928 95.8051 183.958 95.8351C184.228 96.0302 184.528 96.2403 184.768 96.5104Z" fill="#E2B097"/>
<path d="M184.768 96.5104C185.008 96.7805 185.038 97.0957 184.918 97.4108C184.648 98.011 183.943 98.6863 183.133 99.3616C183.028 99.4516 182.937 99.5267 182.847 99.6017C182.832 99.6167 182.802 99.6467 182.787 99.6617C182.772 99.6767 182.757 99.6917 182.742 99.7067C181.962 100.427 182.247 100.592 180.852 102.063C179.246 103.728 178.151 103.758 177.835 103.608C177.565 103.473 178.106 102.588 178.706 101.597C179.021 101.477 180.461 100.892 181.572 99.4966C182.532 98.2661 183.178 96.6755 183.838 95.7601C183.868 95.7751 183.913 95.8052 183.943 95.8352C184.228 96.0302 184.528 96.2403 184.768 96.5104Z" fill="#233862"/>
<path d="M159.993 94.5895C159.798 95.5349 158.448 95.3848 156.947 95.0097C155.431 94.6345 155.792 95.0847 153.646 94.8446C151.5 94.6045 150.84 93.8092 150.78 93.479C150.719 93.1939 151.785 93.0889 152.925 92.9688C153.075 92.9538 153.211 92.9388 153.361 92.9238C154.651 92.7587 155.596 91.9334 156.752 91.2431C157.862 90.5979 159.513 87.9718 159.513 87.9718L162.469 88.2119C162.469 88.2119 160.924 90.5679 160.323 91.5883C159.978 92.1885 159.993 92.9838 160.038 93.5991C160.038 93.9142 160.053 94.2594 159.993 94.5895Z" fill="#E2B097"/>
<path d="M156.932 95.0098C155.416 94.6347 155.776 95.0848 153.631 94.8448C151.485 94.6047 150.824 93.8093 150.764 93.4792C150.704 93.1941 151.77 93.089 152.91 92.969L152.925 92.984C152.925 92.984 154.216 93.8994 156.002 93.9444C157.457 93.9744 159.003 93.5692 160.008 93.5842C160.038 93.9144 160.053 94.2595 159.978 94.5897C159.798 95.535 158.447 95.385 156.932 95.0098Z" fill="#233862"/>
<path d="M171.293 75.7268L174.054 83.1398L177.655 92.8187C177.655 92.8187 178.631 92.9088 179.561 92.6387C180.416 92.3836 181.407 91.7383 181.407 91.7383C181.407 91.7383 180.401 81.3391 178.541 75.3667C178.06 73.836 177.52 72.5905 176.935 71.9003C174.054 68.5089 171.293 75.7268 171.293 75.7268Z" fill="#D23E7D"/>
<path d="M174.099 63.9471C175.719 63.4219 180.011 63.9772 184.603 64.8175C185.578 64.9976 186.584 64.5474 187.094 63.7071L187.319 63.3469L198.499 62.4766C198.499 62.4766 202.085 70.6098 200.164 75.862C199.624 77.3326 194.027 77.5126 189.3 77.1375C183.763 76.6873 177.535 73.3109 176.74 73.1609C175.419 72.8908 174.894 75.5318 173.589 78.2779C172.268 81.0391 161.239 90.4929 161.239 90.4929C161.239 90.4929 159.543 90.5079 158.838 90.2528C158.087 89.9677 157.802 89.6075 157.802 89.6075C157.802 89.6075 170.017 65.2677 174.099 63.9471Z" fill="#E1558B"/>
<path d="M185.774 49.3462C189.15 52.3925 196.893 55.2436 196.938 55.2286C196.938 55.2286 199.564 56.9993 201.47 56.294C204.636 55.1236 207.247 50.5917 203.241 45.2046C201.245 42.5185 199.519 41.5881 200.119 38.1817C200.765 34.5052 199.339 29.7633 195.077 29.3432C194.717 29.3131 192.571 28.908 191.011 29.3131C187.019 30.3486 180.161 47.1554 185.774 49.3462Z" fill="#412013"/>
<path d="M190.38 44.8745C190.365 44.8745 192.136 45.9849 193.547 45.7298C194.882 45.4747 196.143 43.749 196.128 43.734C195.588 43.5839 195.212 42.9237 195.498 39.6523L195.242 39.6824L190.966 40.1776C190.966 40.1776 190.951 41.5131 190.861 42.7586C190.786 43.794 190.636 44.7844 190.38 44.8745Z" fill="#E2B097"/>
<path d="M190.981 40.1624C190.981 40.1624 190.966 41.498 190.876 42.7435C193.232 42.8635 194.657 40.8227 195.258 39.6823L190.981 40.1624Z" fill="#DA9F84"/>
<path d="M190.095 41.288C190.095 41.288 195.662 41.8432 195.948 38.3618C196.233 34.8954 197.148 32.6295 193.607 32.1343C190.065 31.6391 189.27 32.8996 188.895 34.0401C188.505 35.1805 188.655 41.0479 190.095 41.288Z" fill="#E2B097"/>
<path d="M190.696 31.594C190.696 31.594 191.401 35.8257 194.567 36.8311C196.878 37.5664 197.928 37.0862 197.928 37.0862C197.928 37.0862 196.818 35.6156 196.428 33.5598C196.308 32.9595 195.888 32.4643 195.302 32.2693C193.637 31.714 191.641 30.2434 190.696 31.594Z" fill="#412013"/>
<path d="M191.731 32.4944C191.731 32.4944 190.681 32.7345 189.75 34.0851C189.24 34.8204 188.655 36.6811 188.76 37.5064C188.76 37.5064 187.785 33.5899 189.21 32.1193C190.711 30.5736 191.731 32.4944 191.731 32.4944Z" fill="#412013"/>
<path d="M200.404 56.264C200.299 56.6842 200.224 57.0743 200.149 57.4345C200.029 58.0047 199.954 58.5149 199.909 58.9501C199.744 60.3157 199.789 61.126 199.669 62.0113C199.609 62.5065 199.489 63.0318 199.249 63.677C199.024 64.3073 192.976 64.8775 189.54 64.6524C188.445 64.5774 187.664 64.3523 187.319 64.1722C186.284 63.632 185.984 64.3223 186.044 54.2382C186.089 48.776 190.681 43.899 190.681 43.899C190.681 43.899 191.056 46.24 195.738 43.4488C195.903 43.3588 197.748 46.0749 199.519 49.4513C201.485 53.1728 200.945 53.9531 200.404 56.264Z" fill="#7FE1D3"/>
<path d="M174.054 83.155L177.655 92.8339C177.655 92.8339 178.631 92.9239 179.561 92.6538C180.416 92.3987 181.407 91.7535 181.407 91.7535C181.407 91.7535 180.401 81.3543 178.541 75.3818L174.054 83.155Z" fill="#E1558B"/>
<path d="M190.695 43.899C190.695 43.899 186.734 44.2442 185.413 48.0557C184.708 50.0815 180.866 60.4207 180.866 60.4207C180.866 60.4207 183.943 60.8409 185.083 59.7154C186.224 58.59 188.94 49.8715 188.94 49.8715L190.695 43.899Z" fill="#7FE1D3"/>
<path d="M171.053 57.8097L169.912 57.3595C169.912 57.3595 169.222 57.2095 168.862 57.3295C168.487 57.4496 167.556 57.4345 167.556 57.5846C167.556 57.7347 168.607 58.2149 168.607 58.2149L168.637 58.1999C168.232 59.1152 166.221 59.6404 166.116 59.9706C165.996 60.3757 166.941 60.5858 167.451 60.7209C167.961 60.8409 169.222 60.8409 169.837 60.1807C170.287 59.7005 171.053 59.0552 171.053 59.0552V57.8097Z" fill="#E2B097"/>
<path d="M191.371 39.2472C191.371 39.2472 191.131 39.8174 190.515 39.8174C189.9 39.8174 189.735 39.7274 189.615 39.5923C189.495 39.4573 189.39 39.2172 189.39 39.2172C189.39 39.2172 190.41 39.0071 191.371 39.2472Z" fill="white"/>
<path d="M182.172 56.4591L173.679 54.4784C173.679 54.4784 171.923 55.1836 172.688 56.4591C172.688 56.4591 180.386 61.2761 183.283 60.7659C186.569 60.1807 188.805 53.9982 188.805 53.9982L182.172 56.4591Z" fill="#7FE1D3"/>
<path d="M199.894 58.9502C199.729 60.3157 199.774 61.126 199.654 62.0114C195.272 62.0264 189.435 58.635 189.435 58.635L199.894 58.9502Z" fill="#6FD2CC"/>
<path d="M189.45 55.7688C189.45 55.7688 196.263 55.5587 197.418 51.6871C198.679 47.4254 200.09 53.4428 200.09 53.4428L199.339 57.2694H191.866L189.45 55.7688Z" fill="#6FD2CC"/>
<path d="M166.581 61.7863L154.831 64.7725L152.55 55.8139L164.3 52.8277L161.329 41.1379L170.543 38.797L173.514 50.4867L185.264 47.5005L187.544 56.4591L175.795 59.4453L178.766 71.1351L169.552 73.476L166.581 61.7863Z" fill="#373C52"/>
<path d="M189.45 56.6692L188.67 55.7239C188.67 55.7239 188.144 55.2587 187.769 55.1836C187.394 55.1086 186.584 54.6434 186.509 54.7785C186.434 54.9135 187.124 55.8439 187.124 55.8439H187.154C186.359 56.4441 184.348 55.9189 184.093 56.159C183.793 56.4591 184.513 57.1044 184.888 57.4646C185.278 57.8247 186.374 58.4249 187.229 58.1548C187.859 57.9598 188.835 57.7647 188.835 57.7647L189.45 56.6692Z" fill="#E2B097"/>
<path d="M195.768 43.4637C195.768 43.4637 200.179 43.7639 201.29 45.4746C202.4 47.2003 203.766 55.9638 203.196 58.965C202.625 61.9662 188.46 58.3948 188.46 58.3948L188.91 55.7837C188.91 55.7837 197.088 55.8288 197.553 54.7633C198.154 53.3528 195.768 43.4637 195.768 43.4637Z" fill="#7FE1D3"/>
<path d="M75.509 128.758C75.509 128.758 77.97 129.734 78.8103 129.479C79.6357 129.224 81.0763 128.413 81.3314 127.753C81.5865 127.093 79.6357 127.918 78.9754 127.753C78.3151 127.588 77.5948 127.378 76.3043 127.753C75.0288 128.128 75.509 128.758 75.509 128.758Z" fill="#E2B097"/>
<path d="M53.0898 185.481C53.0898 185.481 53.2699 188.482 53.8401 189.188H62.4086C62.3486 188.888 62.1085 188.152 61.0431 187.957C59.6925 187.717 57.4266 186.772 56.6013 184.986C55.7309 183.11 53.0898 185.481 53.0898 185.481Z" fill="#334272"/>
<path d="M37.8739 185.076C37.8739 185.076 37.3036 188.813 38.0389 188.873C38.144 188.888 41.5654 188.873 42.5108 189.008C44.0414 189.233 46.5774 189.038 46.5774 189.038C46.8925 189.053 47.1026 188.708 46.9375 188.437C46.7575 188.137 46.4273 187.822 45.7671 187.687C44.4165 187.432 42.1656 186.442 41.3703 184.626C40.56 182.735 37.8739 185.076 37.8739 185.076Z" fill="#334272"/>
<path d="M57.1266 145.55C57.1266 145.55 54.9657 153.098 48.7982 166.198C42.6157 179.299 42.1355 185.271 42.1355 185.271L37.8738 185.076C37.8738 185.076 38.2789 169.485 41.1901 162.867C44.1163 156.249 44.7015 138.167 44.7015 138.167L57.1266 145.55Z" fill="#6FD2CC"/>
<path d="M60.5778 139.068C60.5778 139.068 60.7428 150.742 58.732 165.088C56.7062 179.434 57.3965 185.526 57.3965 185.526L52.5495 185.691C52.5495 185.691 49.6534 171.346 50.4787 164.158C51.304 156.985 46.5171 139.518 46.5171 139.518L60.5778 139.068Z" fill="#7FE1D3"/>
<path d="M51.0342 111.726L53.3151 113.422L56.6164 112.732C56.5714 112.432 56.3463 111.186 56.1512 110.061C56.1362 110.001 56.1212 109.926 56.1212 109.866C55.9562 108.905 55.8061 108.08 55.8061 108.08L52.7299 106.549L51.5744 105.979C51.5744 105.994 51.6644 107.045 51.6794 107.195C51.8895 109.881 51.0342 111.726 51.0342 111.726Z" fill="#E2B097"/>
<path d="M61.0281 139.443C61.2382 141.528 44.5515 143.989 44.4914 140.493C44.4314 137.417 46.2621 120.49 46.8324 118.074C47.8378 113.782 48.7381 111.336 50.6439 110.781C51.3492 110.571 53.9453 111.246 55.836 111.801C55.9711 111.831 56.0911 111.876 56.2262 111.936C56.6914 112.117 57.1115 112.387 57.4717 112.732C57.9819 113.212 58.357 113.812 58.5671 114.502C58.8522 115.478 59.1974 116.723 59.4675 118.104C59.7076 119.334 59.9027 120.685 59.9777 122.021C59.9927 122.291 60.0077 122.576 60.0077 122.846C60.0227 123.866 60.1127 125.187 60.2328 126.657C60.3078 127.588 60.4129 128.563 60.5029 129.569C60.5329 129.854 60.5629 130.139 60.5929 130.439C60.608 130.634 60.9381 137.252 61.0281 139.022C61.0281 139.052 61.0281 139.067 61.0281 139.097C61.0281 139.097 61.0281 139.097 61.0281 139.112C61.0281 139.142 61.0281 139.157 61.0281 139.187C61.0131 139.338 61.0281 139.428 61.0281 139.443Z" fill="#E1558B"/>
<path d="M51.9044 107.225C52.5797 108.515 55.1007 109.641 56.1511 110.046C56.1361 109.986 56.1211 109.911 56.1211 109.851C55.956 108.89 55.806 108.065 55.806 108.065L52.7297 106.534C52.0394 106.519 51.6193 106.684 51.9044 107.225Z" fill="#DA9F84"/>
<path d="M57.2917 107.885C57.2917 107.885 51.7245 109.626 50.7041 106.144C49.6836 102.663 48.2731 100.547 51.7695 99.2864C55.2809 98.0259 56.3613 99.1514 56.9916 100.232C57.6219 101.312 58.7173 107.345 57.2917 107.885Z" fill="#E2B097"/>
<path d="M56.7815 99.8867C56.7815 99.8867 56.4214 103.938 55.596 103.758C54.7557 103.578 54.0054 103.458 54.1254 104.674C54.2455 105.889 55.416 107.3 52.8349 107.525C50.2539 107.735 46.5474 101.087 47.2527 99.8267C49.2785 96.1952 59.7377 95.4599 56.7815 99.8867Z" fill="#412013"/>
<path d="M56.3764 110.871C56.3013 110.841 51.8895 109.536 51.4094 109.701C50.9292 109.866 50.644 110.781 50.644 110.781L57.4568 112.717C57.4718 112.732 57.3067 111.261 56.3764 110.871Z" fill="#D23E7D"/>
<path d="M76.3193 127.753C76.3193 127.753 77.1147 127.093 77.7899 126.943C78.4802 126.792 79.0805 126.162 79.0805 126.462C79.0805 126.762 78.5702 127.498 78.5702 127.753C78.5702 128.008 76.3193 127.753 76.3193 127.753Z" fill="#E2B097"/>
<path d="M60.2029 126.658C56.6614 125.307 53.9753 120.085 53.9753 120.085L59.9628 122.006C59.9778 122.276 59.9928 122.561 59.9928 122.831C59.9928 123.866 60.0828 125.187 60.2029 126.658Z" fill="#D23E7D"/>
<path d="M76.4244 128.323C76.4244 128.308 76.4244 128.308 76.4394 128.293C76.6044 127.693 76.3043 127.048 75.7341 126.778C73.5132 125.712 67.7509 122.921 67.1056 122.576C66.4303 122.216 59.6776 115.718 57.6668 113.782C57.3217 113.452 56.8114 113.332 56.3463 113.482L50.749 115.313C49.7136 115.658 49.5185 117.024 50.4189 117.639C54.5305 120.46 63.129 126.327 64.6746 127.108C67.4057 128.503 72.913 129.224 74.9538 129.464C75.524 129.524 76.0792 129.209 76.3043 128.683C76.3493 128.563 76.3944 128.443 76.4244 128.323Z" fill="#E1558B"/>
<path d="M65.425 185.481C65.425 185.616 65.4401 185.751 65.4551 185.886C65.5001 186.307 65.6351 186.712 65.8302 187.072C65.9803 187.357 66.1754 187.612 66.4004 187.837C67.0007 188.437 67.826 188.813 68.7414 188.813H115.44C117.271 188.813 118.757 187.327 118.757 185.496C118.757 184.581 118.381 183.756 117.781 183.155C117.181 182.555 116.356 182.18 115.44 182.18H68.7414C66.9107 182.165 65.425 183.651 65.425 185.481Z" fill="#E77D3B"/>
<path d="M68.9814 181.565H84.9929C85.278 181.565 85.5031 181.34 85.5031 181.055C85.5031 180.769 85.278 180.544 84.9929 180.544H68.9814C68.6963 180.544 68.4712 180.769 68.4712 181.055C68.4712 181.325 68.7113 181.565 68.9814 181.565Z" fill="#E77D3B"/>
<path d="M69.8677 182.153H71.6084V181.553H69.8677V182.153Z" fill="#D87131"/>
<path d="M65.8301 187.072C65.9801 187.357 66.1752 187.612 66.4003 187.837C67.0005 188.437 67.8259 188.813 68.7413 188.813H78.6303V187.087H65.8301V187.072Z" fill="#D87131"/>
<path d="M124.939 184.506V186.457C124.939 186.667 124.909 186.877 124.864 187.072C124.594 188.077 123.678 188.798 122.598 188.798H73.9484C72.8679 188.798 71.9526 188.062 71.6825 187.072C71.6224 186.877 71.6074 186.667 71.6074 186.457V184.506C71.6074 183.215 72.6578 182.165 73.9484 182.165H122.598C123.889 182.165 124.939 183.215 124.939 184.506Z" fill="#E1558B"/>
<path d="M124.864 187.072C124.594 188.077 123.678 188.798 122.598 188.798H73.9483C72.8679 188.798 71.9525 188.062 71.6824 187.072H124.864Z" fill="#D23E7D"/>
<path d="M120.107 185.496C120.107 186.532 120.482 187.447 121.068 188.062C121.083 188.077 121.098 188.092 121.113 188.107C121.563 188.557 122.148 188.828 122.778 188.828C123.769 188.828 126.2 187.342 127.715 186.352C128.466 185.856 128.991 185.496 128.991 185.496C128.991 185.496 128.466 185.121 127.715 184.641C126.2 183.651 123.769 182.165 122.778 182.165C122.493 182.165 122.223 182.225 121.968 182.33C121.533 182.51 121.143 182.81 120.842 183.215C120.512 183.666 120.272 184.221 120.167 184.836V184.851C120.122 185.061 120.107 185.271 120.107 185.496Z" fill="#FDF4DF"/>
<path d="M120.843 183.2L128.316 185.241L121.968 182.315C121.533 182.495 121.143 182.795 120.843 183.2Z" fill="#FFFBEE"/>
<path d="M127.235 185.496C127.235 185.886 127.445 186.232 127.715 186.352C128.465 185.856 128.991 185.496 128.991 185.496C128.991 185.496 128.465 185.121 127.715 184.641C127.43 184.761 127.235 185.091 127.235 185.496Z" fill="#E1558B"/>
<circle cx="165.448" cy="95.6039" r="38.1114" fill="#5790DF"/>
<path d="M171.66 97.1139L175.891 101.315L182.117 97.7183C182.95 97.3019 183.483 96.4582 183.502 95.5275C183.468 94.6273 182.938 93.82 182.125 93.4314C181.608 93.1519 177.173 90.5788 175.509 89.6103L175.504 89.607L155.348 77.97C154.524 77.4486 153.483 77.4111 152.624 77.8721C152.542 77.9278 152.464 77.9887 152.389 78.0544L171.66 97.1139Z" fill="white"/>
<path d="M182.124 93.4311C181.64 93.1696 177.753 90.9154 175.889 89.8312L171.618 94.0711L152.299 113.237C152.378 113.309 152.462 113.375 152.551 113.435C152.894 113.631 153.284 113.734 153.68 113.732C154.161 113.726 154.631 113.594 155.045 113.349C155.684 112.978 175.503 101.538 175.503 101.538L182.116 97.7181C182.949 97.3017 183.482 96.458 183.5 95.5273C183.467 94.6271 182.937 93.8197 182.124 93.4311Z" fill="white"/>
<path d="M170.103 95.5749L152.392 78.0573C151.758 78.5479 151.377 79.3028 151.409 80.116V111.342C151.388 112.086 151.732 112.775 152.302 113.235L170.103 95.5749Z" fill="white"/>
<path d="M182.125 93.4311C180.901 92.7719 176.582 90.2339 175.89 89.8312L171.619 94.0711L170.104 95.5745L171.66 97.1137L175.891 101.314L182.117 97.7181C182.95 97.3017 183.483 96.458 183.501 95.5273C183.468 94.627 182.938 93.8197 182.125 93.4311Z" fill="white"/>
<defs>
<radialGradient id="paint0_diamond_439_636" cx="0" cy="0" r="1" gradientUnits="userSpaceOnUse" gradientTransform="translate(318.043 0.997806) rotate(143.817) scale(394.038 351.821)">
<stop stop-color="#A9CBFF"/>
<stop offset="0.873639" stop-color="#458BE7"/>
</radialGradient>
</defs>
</svg>
