<svg width="11" height="11" viewBox="0 0 11 11" fill="none" xmlns="http://www.w3.org/2000/svg">
<path d="M5.5 0C4.4122 0 3.34884 0.322569 2.44437 0.926917C1.5399 1.53126 0.834947 2.39025 0.418665 3.39524C0.00238306 4.40023 -0.106535 5.5061 0.105683 6.573C0.317902 7.63989 0.841726 8.6199 1.61091 9.38909C2.3801 10.1583 3.36011 10.6821 4.42701 10.8943C5.4939 11.1065 6.59977 10.9976 7.60476 10.5813C8.60975 10.1651 9.46873 9.4601 10.0731 8.55563C10.6774 7.65116 11 6.5878 11 5.5C11 4.77773 10.8577 4.06253 10.5813 3.39524C10.3049 2.72795 9.89981 2.12163 9.38909 1.61091C8.87837 1.10019 8.27205 0.695063 7.60476 0.418663C6.93747 0.142262 6.22227 0 5.5 0ZM5.5 9.9C4.62976 9.9 3.77907 9.64194 3.05549 9.15846C2.33192 8.67499 1.76796 7.9878 1.43493 7.18381C1.10191 6.37981 1.01477 5.49512 1.18455 4.6416C1.35432 3.78809 1.77338 3.00408 2.38873 2.38873C3.00408 1.77338 3.78809 1.35432 4.6416 1.18454C5.49512 1.01477 6.37981 1.1019 7.18381 1.43493C7.9878 1.76796 8.67499 2.33191 9.15847 3.05549C9.64194 3.77907 9.9 4.62976 9.9 5.5C9.9 6.66695 9.43643 7.78611 8.61127 8.61127C7.78611 9.43643 6.66695 9.9 5.5 9.9ZM7.7 4.95H6.05V3.3C6.05 3.15413 5.99205 3.01424 5.88891 2.91109C5.78577 2.80795 5.64587 2.75 5.5 2.75C5.35413 2.75 5.21424 2.80795 5.11109 2.91109C5.00795 3.01424 4.95 3.15413 4.95 3.3V4.95H3.3C3.15413 4.95 3.01424 5.00795 2.91109 5.11109C2.80795 5.21424 2.75 5.35413 2.75 5.5C2.75 5.64587 2.80795 5.78576 2.91109 5.88891C3.01424 5.99205 3.15413 6.05 3.3 6.05H4.95V7.7C4.95 7.84587 5.00795 7.98576 5.11109 8.08891C5.21424 8.19205 5.35413 8.25 5.5 8.25C5.64587 8.25 5.78577 8.19205 5.88891 8.08891C5.99205 7.98576 6.05 7.84587 6.05 7.7V6.05H7.7C7.84587 6.05 7.98576 5.99205 8.08891 5.88891C8.19205 5.78576 8.25 5.64587 8.25 5.5C8.25 5.35413 8.19205 5.21424 8.08891 5.11109C7.98576 5.00795 7.84587 4.95 7.7 4.95Z" fill="black"/>
</svg>
