<svg width="16" height="9" viewBox="0 0 16 9" fill="none" xmlns="http://www.w3.org/2000/svg">
<path d="M14.6581 0.413779C14.3929 0.148756 14.0341 0 13.6601 0C13.2861 0 12.9273 0.148756 12.6621 0.413779L7.57996 5.45097L2.5686 0.413779C2.30336 0.148756 1.94457 0 1.57058 0C1.19658 0 0.837789 0.148756 0.572552 0.413779C0.439866 0.546059 0.334551 0.703437 0.262681 0.876834C0.190811 1.05023 0.153809 1.23622 0.153809 1.42406C0.153809 1.61191 0.190811 1.79789 0.262681 1.97129C0.334551 2.14469 0.439866 2.30207 0.572552 2.43435L6.57485 8.46759C6.70645 8.60096 6.86303 8.70681 7.03553 8.77905C7.20804 8.8513 7.39307 8.88849 7.57996 8.88849C7.76684 8.88849 7.95187 8.8513 8.12438 8.77905C8.29688 8.70681 8.45345 8.60096 8.58506 8.46759L14.6581 2.43435C14.7908 2.30207 14.8961 2.14469 14.968 1.97129C15.0399 1.79789 15.0769 1.61191 15.0769 1.42406C15.0769 1.23622 15.0399 1.05023 14.968 0.876834C14.8961 0.703437 14.7908 0.546059 14.6581 0.413779Z" fill="#969696"/>
</svg>
