<svg width="11" height="13" viewBox="0 0 11 13" fill="none" xmlns="http://www.w3.org/2000/svg">
<path d="M10.3889 2.44444H7.94444V1.83333C7.94444 1.3471 7.75129 0.880788 7.40747 0.536971C7.06366 0.193154 6.59734 0 6.11111 0H4.88889C4.40266 0 3.93634 0.193154 3.59253 0.536971C3.24871 0.880788 3.05556 1.3471 3.05556 1.83333V2.44444H0.611111C0.449034 2.44444 0.293596 2.50883 0.17899 2.62343C0.0643847 2.73804 0 2.89348 0 3.05556C0 3.21763 0.0643847 3.37307 0.17899 3.48768C0.293596 3.60228 0.449034 3.66667 0.611111 3.66667H1.22222V10.3889C1.22222 10.8751 1.41538 11.3414 1.75919 11.6853C2.10301 12.0291 2.56933 12.2222 3.05556 12.2222H7.94444C8.43067 12.2222 8.89699 12.0291 9.24081 11.6853C9.58462 11.3414 9.77778 10.8751 9.77778 10.3889V3.66667H10.3889C10.551 3.66667 10.7064 3.60228 10.821 3.48768C10.9356 3.37307 11 3.21763 11 3.05556C11 2.89348 10.9356 2.73804 10.821 2.62343C10.7064 2.50883 10.551 2.44444 10.3889 2.44444ZM4.27778 1.83333C4.27778 1.67126 4.34216 1.51582 4.45677 1.40121C4.57137 1.28661 4.72681 1.22222 4.88889 1.22222H6.11111C6.27319 1.22222 6.42863 1.28661 6.54323 1.40121C6.65784 1.51582 6.72222 1.67126 6.72222 1.83333V2.44444H4.27778V1.83333ZM8.55556 10.3889C8.55556 10.551 8.49117 10.7064 8.37657 10.821C8.26196 10.9356 8.10652 11 7.94444 11H3.05556C2.89348 11 2.73804 10.9356 2.62343 10.821C2.50883 10.7064 2.44444 10.551 2.44444 10.3889V3.66667H8.55556V10.3889Z" fill="black"/>
</svg>
