<svg width="4" height="16" viewBox="0 0 4 16" fill="none" xmlns="http://www.w3.org/2000/svg">
<path d="M2.00003 1.25C2.41424 1.25 2.75003 1.58579 2.75003 2C2.75003 2.41421 2.41424 2.75 2.00003 2.75C1.58582 2.75 1.25003 2.41421 1.25003 2C1.25003 1.58579 1.58582 1.25 2.00003 1.25ZM2.00003 7.25C2.41424 7.25 2.75003 7.58579 2.75003 8C2.75003 8.41421 2.41424 8.75 2.00003 8.75C1.58582 8.75 1.25003 8.41421 1.25003 8C1.25003 7.58579 1.58582 7.25 2.00003 7.25ZM2.00003 13.25C2.41424 13.25 2.75003 13.5858 2.75003 14C2.75003 14.4142 2.41424 14.75 2.00003 14.75C1.58582 14.75 1.25003 14.4142 1.25003 14C1.25003 13.5858 1.58582 13.25 2.00003 13.25Z" fill="black" stroke="black" stroke-width="1.5"/>
</svg>
