<svg width="11" height="11" viewBox="0 0 11 11" fill="none" xmlns="http://www.w3.org/2000/svg">
<path d="M11 2.882C11.0004 2.80962 10.9865 2.73787 10.9592 2.67086C10.9318 2.60385 10.8915 2.5429 10.8405 2.49151L8.50849 0.159509C8.4571 0.108534 8.39615 0.0682054 8.32914 0.0408349C8.26213 0.0134645 8.19038 -0.000409298 8.118 9.19285e-06C8.04561 -0.000409298 7.97386 0.0134645 7.90685 0.0408349C7.83984 0.0682054 7.77889 0.108534 7.7275 0.159509L6.171 1.71601L0.159509 7.7275C0.108534 7.77889 0.0682054 7.83984 0.0408349 7.90685C0.0134645 7.97386 -0.000409298 8.04561 9.19285e-06 8.118V10.45C9.19285e-06 10.5959 0.0579553 10.7358 0.1611 10.8389C0.264245 10.942 0.404139 11 0.550008 11H2.882C2.95896 11.0042 3.03595 10.9921 3.10795 10.9647C3.17996 10.9372 3.24539 10.8949 3.3 10.8405L9.27849 4.829L10.8405 3.3C10.8907 3.2467 10.9316 3.18535 10.9615 3.1185C10.9668 3.07466 10.9668 3.03034 10.9615 2.9865C10.9641 2.9609 10.9641 2.93511 10.9615 2.9095L11 2.882ZM2.6565 9.89999H1.10001V8.3435L6.5615 2.882L8.118 4.4385L2.6565 9.89999ZM8.89349 3.663L7.337 2.10651L8.118 1.33101L9.66899 2.882L8.89349 3.663Z" fill="black"/>
</svg>
