<svg width="23" height="17" viewBox="0 0 23 17" fill="none" xmlns="http://www.w3.org/2000/svg">
<path d="M0.5 16.5V13.7C0.5 13.1334 0.646 12.6124 0.938 12.137C1.23 11.6617 1.61733 11.2994 2.1 11.05C3.13333 10.5334 4.18333 10.1457 5.25 9.88703C6.31667 9.62836 7.4 9.49936 8.5 9.50003C9.6 9.50003 10.6833 9.62936 11.75 9.88803C12.8167 10.1467 13.8667 10.534 14.9 11.05C15.3833 11.3 15.771 11.6627 16.063 12.138C16.355 12.6134 16.5007 13.134 16.5 13.7V16.5H0.5ZM18.5 16.5V13.5C18.5 12.7667 18.2957 12.0624 17.887 11.387C17.4783 10.7117 16.8993 10.1327 16.15 9.65003C17 9.75003 17.8 9.92103 18.55 10.163C19.3 10.405 20 10.7007 20.65 11.05C21.25 11.3834 21.7083 11.754 22.025 12.162C22.3417 12.57 22.5 13.016 22.5 13.5V16.5H18.5ZM8.5 8.50003C7.4 8.50003 6.45833 8.10836 5.675 7.32503C4.89167 6.54169 4.5 5.60003 4.5 4.50003C4.5 3.40003 4.89167 2.45836 5.675 1.67503C6.45833 0.891692 7.4 0.500026 8.5 0.500026C9.6 0.500026 10.5417 0.891692 11.325 1.67503C12.1083 2.45836 12.5 3.40003 12.5 4.50003C12.5 5.60003 12.1083 6.54169 11.325 7.32503C10.5417 8.10836 9.6 8.50003 8.5 8.50003ZM18.5 4.50003C18.5 5.60003 18.1083 6.54169 17.325 7.32503C16.5417 8.10836 15.6 8.50003 14.5 8.50003C14.3167 8.50003 14.0833 8.47903 13.8 8.43703C13.5167 8.39503 13.2833 8.34936 13.1 8.30003C13.55 7.76669 13.896 7.17503 14.138 6.52503C14.38 5.87503 14.5007 5.20003 14.5 4.50003C14.5 3.80003 14.3793 3.12503 14.138 2.47503C13.8967 1.82503 13.5507 1.23336 13.1 0.700025C13.3333 0.616692 13.5667 0.562359 13.8 0.537026C14.0333 0.511692 14.2667 0.499359 14.5 0.500026C15.6 0.500026 16.5417 0.891692 17.325 1.67503C18.1083 2.45836 18.5 3.40003 18.5 4.50003Z" fill="#5F5F5F"/>
</svg>
