<svg width="15" height="14" viewBox="0 0 15 14" fill="none" xmlns="http://www.w3.org/2000/svg">
<path d="M7.5 2.44342C4.63409 2.44342 2.03513 4.15735 0.117367 6.94123C-0.0391224 7.1693 -0.0391224 7.48794 0.117367 7.71602C2.03513 10.5032 4.63409 12.2172 7.5 12.2172C10.3659 12.2172 12.9649 10.5032 14.8826 7.71937C15.0391 7.49129 15.0391 7.17266 14.8826 6.94458C12.9649 4.15735 10.3659 2.44342 7.5 2.44342ZM7.70558 10.7716C5.80316 10.9024 4.23213 9.18845 4.3518 7.10558C4.44998 5.38829 5.72338 3.99635 7.29442 3.88902C9.19684 3.75822 10.7679 5.47214 10.6482 7.55502C10.5469 9.26895 9.27355 10.6609 7.70558 10.7716ZM7.61046 9.18174C6.58561 9.25218 5.73872 8.32981 5.80623 7.20955C5.85839 6.28383 6.54572 5.53587 7.3926 5.4755C8.41746 5.40506 9.26434 6.32743 9.19684 7.44769C9.14161 8.37677 8.45428 9.12472 7.61046 9.18174Z" fill="#848484"/>
<path d="M1.30957 1.27987L13.2531 12.9532" stroke="#848484" stroke-width="1.25" stroke-linecap="square"/>
</svg>
