<svg width="15" height="11" viewBox="0 0 15 11" fill="none" xmlns="http://www.w3.org/2000/svg">
<path d="M7.5 0.44342C4.63409 0.44342 2.03513 2.15735 0.117367 4.94123C-0.0391224 5.1693 -0.0391224 5.48794 0.117367 5.71602C2.03513 8.50325 4.63409 10.2172 7.5 10.2172C10.3659 10.2172 12.9649 8.50325 14.8826 5.71937C15.0391 5.49129 15.0391 5.17266 14.8826 4.94458C12.9649 2.15735 10.3659 0.44342 7.5 0.44342ZM7.70558 8.77157C5.80316 8.90238 4.23213 7.18845 4.3518 5.10558C4.44998 3.38829 5.72338 1.99635 7.29442 1.88902C9.19684 1.75822 10.7679 3.47214 10.6482 5.55502C10.5469 7.26895 9.27355 8.66089 7.70558 8.77157ZM7.61046 7.18174C6.58561 7.25218 5.73872 6.32981 5.80623 5.20955C5.85839 4.28383 6.54572 3.53587 7.3926 3.4755C8.41746 3.40506 9.26434 4.32743 9.19684 5.44769C9.14161 6.37677 8.45428 7.12472 7.61046 7.18174Z" fill="#848484"/>
</svg>
