<svg width="24" height="30" viewBox="0 0 24 30" fill="none" xmlns="http://www.w3.org/2000/svg">
<path d="M21 16.77V12C20.9978 9.87468 20.2436 7.8187 18.8709 6.19616C17.4982 4.57362 15.5956 3.48922 13.5 3.135V1.5C13.5 1.10218 13.342 0.720644 13.0607 0.43934C12.7794 0.158035 12.3978 0 12 0C11.6022 0 11.2206 0.158035 10.9393 0.43934C10.658 0.720644 10.5 1.10218 10.5 1.5V3.135C8.40441 3.48922 6.50179 4.57362 5.12908 6.19616C3.75637 7.8187 3.00215 9.87468 3 12V16.77C2.12468 17.0795 1.3665 17.6521 0.829408 18.4094C0.292318 19.1667 0.00260927 20.0716 0 21V24C0 24.3978 0.158036 24.7794 0.43934 25.0607C0.720645 25.342 1.10218 25.5 1.5 25.5H6.21C6.55542 26.7711 7.3095 27.8931 8.3559 28.6931C9.40229 29.4931 10.6828 29.9265 12 29.9265C13.3172 29.9265 14.5977 29.4931 15.6441 28.6931C16.6905 27.8931 17.4446 26.7711 17.79 25.5H22.5C22.8978 25.5 23.2794 25.342 23.5607 25.0607C23.842 24.7794 24 24.3978 24 24V21C23.9974 20.0716 23.7077 19.1667 23.1706 18.4094C22.6335 17.6521 21.8753 17.0795 21 16.77ZM6 12C6 10.4087 6.63214 8.88258 7.75736 7.75736C8.88258 6.63214 10.4087 6 12 6C13.5913 6 15.1174 6.63214 16.2426 7.75736C17.3679 8.88258 18 10.4087 18 12V16.5H6V12ZM12 27C11.4765 26.9968 10.9629 26.8567 10.5102 26.5936C10.0576 26.3304 9.68177 25.9534 9.42 25.5H14.58C14.3182 25.9534 13.9424 26.3304 13.4898 26.5936C13.0371 26.8567 12.5235 26.9968 12 27ZM21 22.5H3V21C3 20.6022 3.15804 20.2206 3.43934 19.9393C3.72064 19.658 4.10218 19.5 4.5 19.5H19.5C19.8978 19.5 20.2794 19.658 20.5607 19.9393C20.842 20.2206 21 20.6022 21 21V22.5Z" fill="#5F5F5F"/>
<circle cx="18.5" cy="5.5" r="4.5" fill="#F8361B"/>
</svg>
