<svg width="17" height="15" viewBox="0 0 17 15" fill="none" xmlns="http://www.w3.org/2000/svg">
<path fill-rule="evenodd" clip-rule="evenodd" d="M10.4578 10.0201C8.1685 11.789 4.81746 11.6498 2.6953 9.60248C0.418299 7.40578 0.418299 3.84422 2.6953 1.64752C4.9723 -0.549175 8.66405 -0.549175 10.941 1.64752C13.0632 3.69484 13.2075 6.9277 11.374 9.13626L15.8274 13.4326C16.0804 13.6767 16.0804 14.0724 15.8274 14.3165C15.5744 14.5606 15.1642 14.5606 14.9112 14.3165L10.4578 10.0201ZM3.61149 8.71859C1.84049 7.01005 1.84049 4.23995 3.61149 2.53141C5.38249 0.822864 8.25385 0.822864 10.0249 2.53141C11.7946 4.2387 11.7959 7.00598 10.0287 8.71483C10.0274 8.71607 10.0261 8.71732 10.0248 8.71857C10.0235 8.71983 10.0222 8.72108 10.021 8.72235C8.24964 10.4271 5.3812 10.4259 3.61149 8.71859Z" fill="#9A9A9A"/>
</svg>
