<svg width="50" height="49" viewBox="0 0 50 49" fill="none" xmlns="http://www.w3.org/2000/svg">
<path d="M37.5 25.225V17.5H42.5V25.225C41.675 25.1 40.85 25 40 25C39.15 25 38.325 25.1 37.5 25.225ZM16.25 20C15.55 20 15 20.55 15 21.25V25H30V21.25C30 20.55 29.45 20 28.75 20H16.25ZM7.5 40V17.5H2.5V45H25.875C25.325 43.425 25 41.75 25 40H7.5ZM45 15H0V0H45V15ZM40 5H5V10H40V5ZM50 37.225L42.775 36.6L40 30L37.175 36.6L30 37.225L35.45 41.925L33.75 48.95L40 45.225L46.125 48.95L44.5 41.925L50 37.225Z" fill="#D9D9D9"/>
</svg>
