<svg width="20" height="21" viewBox="0 0 20 21" fill="none" xmlns="http://www.w3.org/2000/svg">
<path d="M17 8.68245C16.7348 8.68245 16.4804 8.78849 16.2929 8.97724C16.1054 9.16599 16 9.422 16 9.68893V13.0908L14.52 11.6012C13.9974 11.0794 13.2911 10.7866 12.555 10.7866C11.8189 10.7866 11.1126 11.0794 10.59 11.6012L9.89 12.3158L7.41 9.80971C6.88742 9.28789 6.18113 8.99509 5.445 8.99509C4.70887 8.99509 4.00258 9.28789 3.48 9.80971L2 11.3094V5.66301C2 5.39608 2.10536 5.14008 2.29289 4.95132C2.48043 4.76257 2.73478 4.65653 3 4.65653H11C11.2652 4.65653 11.5196 4.55049 11.7071 4.36174C11.8946 4.17299 12 3.91699 12 3.65005C12 3.38312 11.8946 3.12712 11.7071 2.93837C11.5196 2.74961 11.2652 2.64357 11 2.64357H3C2.20435 2.64357 1.44129 2.96169 0.87868 3.52795C0.316071 4.0942 0 4.86221 0 5.66301V17.9622C0.00263506 18.7035 0.296373 19.4136 0.817154 19.9378C1.33794 20.4619 2.04351 20.7576 2.78 20.7602H15.22C15.491 20.758 15.7603 20.7174 16.02 20.6394C16.5974 20.4764 17.1058 20.1272 17.4671 19.6454C17.8283 19.1636 18.0226 18.5759 18.02 17.9723V9.68893C18.02 9.55505 17.9935 9.4225 17.942 9.29906C17.8905 9.17562 17.8151 9.06376 17.7201 8.97003C17.6251 8.8763 17.5125 8.80259 17.3888 8.75321C17.2652 8.70383 17.133 8.67977 17 8.68245ZM3 18.7472C2.73478 18.7472 2.48043 18.6412 2.29289 18.4525C2.10536 18.2637 2 18.0077 2 17.7408V14.1476L4.89 11.2389C5.03615 11.0926 5.23389 11.0105 5.44 11.0105C5.64611 11.0105 5.84385 11.0926 5.99 11.2389L13.46 18.7472H3ZM16 17.7408C15.9936 17.9357 15.931 18.1245 15.82 18.2843L11.3 13.7148L12.01 13.0103C12.0817 12.9367 12.1673 12.8782 12.2617 12.8382C12.3561 12.7983 12.4576 12.7777 12.56 12.7777C12.6624 12.7777 12.7639 12.7983 12.8583 12.8382C12.9527 12.8782 13.0383 12.9367 13.11 13.0103L16 15.9392V17.7408ZM19 2.64357H18V1.63709C18 1.37016 17.8946 1.11416 17.7071 0.925406C17.5196 0.736655 17.2652 0.630615 17 0.630615C16.7348 0.630615 16.4804 0.736655 16.2929 0.925406C16.1054 1.11416 16 1.37016 16 1.63709V2.64357H15C14.7348 2.64357 14.4804 2.74961 14.2929 2.93837C14.1054 3.12712 14 3.38312 14 3.65005C14 3.91699 14.1054 4.17299 14.2929 4.36174C14.4804 4.55049 14.7348 4.65653 15 4.65653H16V5.66301C16 5.92995 16.1054 6.18595 16.2929 6.3747C16.4804 6.56345 16.7348 6.66949 17 6.66949C17.2652 6.66949 17.5196 6.56345 17.7071 6.3747C17.8946 6.18595 18 5.92995 18 5.66301V4.65653H19C19.2652 4.65653 19.5196 4.55049 19.7071 4.36174C19.8946 4.17299 20 3.91699 20 3.65005C20 3.38312 19.8946 3.12712 19.7071 2.93837C19.5196 2.74961 19.2652 2.64357 19 2.64357Z" fill="#969696"/>
</svg>
