<svg width="11" height="13" viewBox="0 0 11 13" fill="none" xmlns="http://www.w3.org/2000/svg">
<path d="M7.94444 9.16667V7.33333H3.66667V4.88889H7.94444V3.05556L11 6.11111L7.94444 9.16667ZM6.72222 0C7.04638 0 7.35725 0.128769 7.58646 0.357981C7.81567 0.587192 7.94444 0.898069 7.94444 1.22222V2.44444H6.72222V1.22222H1.22222V11H6.72222V9.77778H7.94444V11C7.94444 11.3242 7.81567 11.635 7.58646 11.8642C7.35725 12.0935 7.04638 12.2222 6.72222 12.2222H1.22222C0.898069 12.2222 0.587192 12.0935 0.357981 11.8642C0.128769 11.635 0 11.3242 0 11V1.22222C0 0.898069 0.128769 0.587192 0.357981 0.357981C0.587192 0.128769 0.898069 0 1.22222 0H6.72222Z" fill="black"/>
</svg>
