<svg width="18" height="18" viewBox="0 0 18 18" fill="none" xmlns="http://www.w3.org/2000/svg">
<path d="M17.9698 6.56986C17.913 6.40439 17.8098 6.25906 17.6726 6.15148C17.5354 6.0439 17.3701 5.9787 17.1969 5.96377L12.0828 5.21296L9.79094 0.536173C9.71734 0.383231 9.60243 0.254247 9.45937 0.163996C9.31631 0.0737458 9.15088 0.0258789 8.98204 0.0258789C8.8132 0.0258789 8.64777 0.0737458 8.50471 0.163996C8.36165 0.254247 8.24674 0.383231 8.17314 0.536173L5.88126 5.20391L0.767223 5.96377C0.600879 5.98757 0.444494 6.05782 0.315812 6.16655C0.187131 6.27528 0.0913065 6.41813 0.0392134 6.5789C-0.00847119 6.73601 -0.0127503 6.90322 0.0268353 7.06259C0.0664208 7.22195 0.148377 7.36747 0.263908 7.4835L3.97586 11.1019L3.07708 16.24C3.04499 16.4096 3.06179 16.5849 3.1255 16.7452C3.1892 16.9055 3.29715 17.0441 3.43659 17.1446C3.5725 17.2424 3.7328 17.3002 3.8995 17.3113C4.0662 17.3225 4.2327 17.2867 4.38031 17.208L8.98204 14.7927L13.5658 17.217C13.6919 17.2886 13.8344 17.326 13.9792 17.3256C14.1696 17.3262 14.3553 17.2661 14.5095 17.1537C14.649 17.0531 14.7569 16.9145 14.8206 16.7543C14.8843 16.594 14.9011 16.4187 14.869 16.2491L13.9703 11.1109L17.6822 7.49255C17.812 7.3819 17.9079 7.23646 17.9588 7.07313C18.0097 6.9098 18.0135 6.73528 17.9698 6.56986ZM12.4423 10.1883C12.3369 10.2909 12.2581 10.4179 12.2126 10.5582C12.1672 10.6985 12.1566 10.8479 12.1817 10.9934L12.8288 14.7836L9.44941 12.9744C9.31937 12.9047 9.1743 12.8683 9.02698 12.8683C8.87966 12.8683 8.73459 12.9047 8.60456 12.9744L5.22516 14.7836L5.87227 10.9934C5.89738 10.8479 5.88676 10.6985 5.84132 10.5582C5.79589 10.4179 5.71703 10.2909 5.61163 10.1883L2.9153 7.47446L6.69915 6.92265C6.84475 6.90227 6.98316 6.84625 7.10225 6.75951C7.22134 6.67277 7.31747 6.55795 7.38222 6.42512L8.98204 2.97859L10.6717 6.43417C10.7365 6.567 10.8326 6.68181 10.9517 6.76855C11.0708 6.8553 11.2092 6.91131 11.3548 6.9317L15.1387 7.4835L12.4423 10.1883Z" fill="black"/>
</svg>
