<svg width="84" height="95" viewBox="0 0 84 95" fill="none" xmlns="http://www.w3.org/2000/svg">
<path d="M53.0065 51.202L64.0806 62.1964L80.3764 52.7839C82.5556 51.6941 83.9512 49.486 84.0002 47.05C83.912 44.6939 82.5245 42.5811 80.3975 41.5639C79.0438 40.8325 67.4369 34.0979 63.0816 31.5629L63.069 31.5543L10.3146 1.09703C8.15815 -0.267844 5.43379 -0.365821 3.18485 0.840592C2.97017 0.986481 2.765 1.14584 2.57056 1.31773L53.0065 51.202Z" fill="white"/>
<path d="M80.3946 41.5629C79.1278 40.8787 68.955 34.9786 64.0752 32.141L52.8973 43.2382L2.33325 93.4021C2.53984 93.5903 2.7602 93.7628 2.99248 93.9181C3.89184 94.4332 4.91138 94.7015 5.9478 94.6957C7.20583 94.68 8.43781 94.335 9.52111 93.6952C11.1942 92.7241 63.0659 62.7801 63.0659 62.7801L80.3733 52.7833C82.5526 51.6935 83.9481 49.4854 83.9971 47.0493C83.9091 44.6932 82.5216 42.5802 80.3946 41.5629Z" fill="white"/>
<path d="M48.9322 47.1739L2.57624 1.32507C0.917012 2.60936 -0.0800599 4.58516 0.00504552 6.7134V88.4411C-0.0506583 90.3885 0.851063 92.1915 2.34215 93.3956L48.9322 47.1739Z" fill="white"/>
<path d="M80.3972 41.5629C77.1932 39.8377 65.8899 33.1951 64.0778 32.141L52.9002 43.2382L48.9336 47.173L53.0064 51.2014L64.0805 62.1958L80.3763 52.7833C82.5555 51.6935 83.951 49.4854 84 47.0493C83.912 44.6931 82.5244 42.5801 80.3972 41.5629Z" fill="white"/>
</svg>
