<svg width="13" height="17" viewBox="0 0 13 17" fill="none" xmlns="http://www.w3.org/2000/svg">
<path d="M6.5 8.93664C6.25263 8.93375 6.01032 9.00671 5.80567 9.1457C5.60102 9.28469 5.44387 9.48304 5.35536 9.71405C5.26685 9.94505 5.25124 10.1976 5.31062 10.4378C5.37 10.6779 5.50153 10.8941 5.6875 11.0573V12.1866C5.6875 12.4021 5.7731 12.6088 5.92548 12.7612C6.07785 12.9135 6.28451 12.9991 6.5 12.9991C6.71549 12.9991 6.92215 12.9135 7.07452 12.7612C7.2269 12.6088 7.3125 12.4021 7.3125 12.1866V11.0573C7.49847 10.8941 7.63 10.6779 7.68938 10.4378C7.74876 10.1976 7.73315 9.94505 7.64464 9.71405C7.55613 9.48304 7.39898 9.28469 7.19433 9.1457C6.98968 9.00671 6.74737 8.93375 6.5 8.93664ZM10.5625 5.68664H4.0625V4.06164C4.06132 3.57917 4.20334 3.1072 4.47059 2.7055C4.73783 2.3038 5.11828 1.99045 5.56374 1.80513C6.0092 1.61981 6.49965 1.57086 6.97295 1.66448C7.44625 1.75809 7.88113 1.99007 8.2225 2.33102C8.52796 2.64307 8.74644 3.02962 8.85625 3.45227C8.88292 3.55576 8.92972 3.65299 8.99397 3.73841C9.05823 3.82382 9.13867 3.89574 9.23072 3.95006C9.32276 4.00438 9.42461 4.04004 9.53044 4.05501C9.63626 4.06997 9.744 4.06394 9.8475 4.03727C9.951 4.01059 10.0482 3.96379 10.1336 3.89954C10.2191 3.83529 10.291 3.75484 10.3453 3.6628C10.3996 3.57075 10.4353 3.46891 10.4502 3.36308C10.4652 3.25725 10.4592 3.14951 10.4325 3.04602C10.2474 2.34304 9.88027 1.70128 9.36812 1.18539C8.79952 0.618564 8.07571 0.232927 7.28809 0.0771764C6.50047 -0.0785741 5.68436 0.0025459 4.94281 0.310293C4.20126 0.61804 3.56753 1.13861 3.12163 1.80628C2.67573 2.47395 2.43767 3.25877 2.4375 4.06164V5.68664C1.79103 5.68664 1.17105 5.94345 0.713927 6.40057C0.256807 6.85769 0 7.47768 0 8.12414V13.8116C0 14.4581 0.256807 15.0781 0.713927 15.5352C1.17105 15.9923 1.79103 16.2491 2.4375 16.2491H10.5625C11.209 16.2491 11.829 15.9923 12.2861 15.5352C12.7432 15.0781 13 14.4581 13 13.8116V8.12414C13 7.47768 12.7432 6.85769 12.2861 6.40057C11.829 5.94345 11.209 5.68664 10.5625 5.68664ZM11.375 13.8116C11.375 14.0271 11.2894 14.2338 11.137 14.3862C10.9847 14.5385 10.778 14.6241 10.5625 14.6241H2.4375C2.22201 14.6241 2.01535 14.5385 1.86298 14.3862C1.7106 14.2338 1.625 14.0271 1.625 13.8116V8.12414C1.625 7.90865 1.7106 7.70199 1.86298 7.54962C2.01535 7.39724 2.22201 7.31164 2.4375 7.31164H10.5625C10.778 7.31164 10.9847 7.39724 11.137 7.54962C11.2894 7.70199 11.375 7.90865 11.375 8.12414V13.8116Z" fill="#347AE2"/>
</svg>
