<svg width="13" height="17" viewBox="0 0 13 17" fill="none" xmlns="http://www.w3.org/2000/svg">
<path d="M6.5 8.9375C6.25263 8.93461 6.01032 9.00757 5.80567 9.14656C5.60102 9.28555 5.44387 9.4839 5.35536 9.7149C5.26685 9.94591 5.25124 10.1985 5.31062 10.4386C5.37 10.6788 5.50153 10.895 5.6875 11.0581V12.1875C5.6875 12.403 5.7731 12.6096 5.92548 12.762C6.07785 12.9144 6.28451 13 6.5 13C6.71549 13 6.92215 12.9144 7.07452 12.762C7.2269 12.6096 7.3125 12.403 7.3125 12.1875V11.0581C7.49847 10.895 7.63 10.6788 7.68938 10.4386C7.74876 10.1985 7.73315 9.94591 7.64464 9.7149C7.55613 9.4839 7.39898 9.28555 7.19433 9.14656C6.98968 9.00757 6.74737 8.93461 6.5 8.9375ZM10.5625 5.6875V4.0625C10.5625 2.98506 10.1345 1.95174 9.37262 1.18988C8.61075 0.428012 7.57744 0 6.5 0C5.42256 0 4.38925 0.428012 3.62738 1.18988C2.86551 1.95174 2.4375 2.98506 2.4375 4.0625V5.6875C1.79103 5.6875 1.17105 5.94431 0.713927 6.40143C0.256807 6.85855 0 7.47853 0 8.125V13.8125C0 14.459 0.256807 15.079 0.713927 15.5361C1.17105 15.9932 1.79103 16.25 2.4375 16.25H10.5625C11.209 16.25 11.829 15.9932 12.2861 15.5361C12.7432 15.079 13 14.459 13 13.8125V8.125C13 7.47853 12.7432 6.85855 12.2861 6.40143C11.829 5.94431 11.209 5.6875 10.5625 5.6875ZM4.0625 4.0625C4.0625 3.41603 4.31931 2.79605 4.77643 2.33893C5.23355 1.88181 5.85353 1.625 6.5 1.625C7.14647 1.625 7.76645 1.88181 8.22357 2.33893C8.68069 2.79605 8.9375 3.41603 8.9375 4.0625V5.6875H4.0625V4.0625ZM11.375 13.8125C11.375 14.028 11.2894 14.2346 11.137 14.387C10.9847 14.5394 10.778 14.625 10.5625 14.625H2.4375C2.22201 14.625 2.01535 14.5394 1.86298 14.387C1.7106 14.2346 1.625 14.028 1.625 13.8125V8.125C1.625 7.90951 1.7106 7.70285 1.86298 7.55047C2.01535 7.3981 2.22201 7.3125 2.4375 7.3125H10.5625C10.778 7.3125 10.9847 7.3981 11.137 7.55047C11.2894 7.70285 11.375 7.90951 11.375 8.125V13.8125Z" fill="#C7DFFF"/>
</svg>
