<svg width="36" height="36" viewBox="0 0 36 36" fill="none" xmlns="http://www.w3.org/2000/svg">
<circle cx="18" cy="18" r="18" fill="#5790DF"/>
<path d="M20.9336 18.7132L22.9319 20.6972L25.8725 18.9987C26.2658 18.802 26.5176 18.4036 26.5265 17.964C26.5106 17.5388 26.2602 17.1575 25.8763 16.974C25.6321 16.842 23.5376 15.6267 22.7516 15.1693L22.7494 15.1677L13.2297 9.6716C12.8405 9.4253 12.3489 9.40762 11.9431 9.62532C11.9043 9.65165 11.8673 9.6804 11.8322 9.71142L20.9336 18.7132Z" fill="white"/>
<path d="M25.8759 16.9738C25.6473 16.8503 23.8116 15.7856 22.931 15.2736L20.9139 17.2761L11.7895 26.3283C11.8268 26.3623 11.8665 26.3934 11.9085 26.4214C12.0707 26.5144 12.2547 26.5628 12.4417 26.5618C12.6688 26.5589 12.8911 26.4967 13.0866 26.3812C13.3885 26.206 22.7489 20.8025 22.7489 20.8025L25.8721 18.9985C26.2653 18.8019 26.5172 18.4034 26.526 17.9638C26.5101 17.5386 26.2598 17.1574 25.8759 16.9738Z" fill="white"/>
<path d="M20.1984 17.9863L11.8333 9.71277C11.5339 9.94452 11.354 10.3011 11.3693 10.6851V25.4331C11.3593 25.7846 11.522 26.1099 11.7911 26.3272L20.1984 17.9863Z" fill="white"/>
<path d="M25.8763 16.9738C25.2982 16.6625 23.2584 15.4638 22.9314 15.2736L20.9144 17.2761L20.1986 17.9861L20.9336 18.7131L22.9319 20.697L25.8725 18.9985C26.2658 18.8019 26.5176 18.4034 26.5265 17.9638C26.5106 17.5386 26.2602 17.1573 25.8763 16.9738Z" fill="white"/>
</svg>
