<svg width="14" height="17" viewBox="0 0 14 17" fill="none" xmlns="http://www.w3.org/2000/svg">
<path d="M13.616 6.97198L8.84336 0.813826C8.60362 0.562594 8.31515 0.363614 7.99584 0.229224C7.67654 0.0948349 7.33321 0.0279024 6.98714 0.0325777C6.64108 0.037253 6.29965 0.113436 5.98405 0.256403C5.66845 0.39937 5.38539 0.606072 5.15243 0.86369L0.404598 6.97198C0.141728 7.38049 0.00126788 7.85653 0 8.34323C0.0137909 8.8098 0.15367 9.26376 0.404598 9.65631L0.454141 9.71448L5.19372 15.8726C5.42707 16.1213 5.70877 16.319 6.02128 16.4534C6.3338 16.5878 6.67044 16.656 7.01028 16.6538C7.36165 16.6535 7.70908 16.5794 8.0304 16.4364C8.35172 16.2933 8.63985 16.0843 8.87639 15.8228L13.616 9.71448C13.875 9.30254 14.0084 8.8232 13.9996 8.33576C13.9908 7.84832 13.8402 7.37417 13.5664 6.97198H13.616ZM12.3196 8.75045L7.63782 14.7507C7.48004 14.897 7.27628 14.9829 7.06203 14.9935C6.84779 15.0042 6.63662 14.9388 6.46531 14.8089L1.76702 8.73383C1.69687 8.61531 1.65715 8.48107 1.65142 8.34323C1.65264 8.21413 1.68077 8.08673 1.73399 7.96926L6.41577 1.969C6.57355 1.82274 6.77731 1.73681 6.99156 1.72618C7.2058 1.71555 7.41697 1.78089 7.58828 1.91083L12.237 7.96095C12.3229 8.09471 12.3687 8.25048 12.3691 8.40972C12.3635 8.52757 12.3355 8.64324 12.2866 8.75045H12.3196Z" fill="#9A9A9A"/>
</svg>
