<svg width="24" height="26" viewBox="0 0 24 26" fill="none" xmlns="http://www.w3.org/2000/svg">
<path fill-rule="evenodd" clip-rule="evenodd" d="M4.33325 4.33333C4.33325 1.9401 6.27335 0 8.66658 0C10.0069 0 11.2051 0.60849 11.9999 1.56429C12.7948 0.60849 13.993 0 15.3333 0C17.7265 0 19.6666 1.9401 19.6666 4.33333C19.6666 5.19243 19.4166 5.99313 18.9854 6.66667H19.9999C22.025 6.66667 23.6666 8.30829 23.6666 10.3333V13C23.6666 14.0722 22.9434 14.9755 21.9582 15.2487C22.1503 17.6842 22.039 20.1355 21.6259 22.5463C21.3792 23.9858 20.2101 25.0886 18.7586 25.2509L17.5393 25.3871C13.8578 25.7986 10.142 25.7986 6.46056 25.3871L5.24126 25.2509C3.78977 25.0886 2.62062 23.9858 2.37394 22.5463C1.96083 20.1355 1.84957 17.6842 2.04166 15.2487C1.05645 14.9755 0.333252 14.0722 0.333252 13V10.3333C0.333252 8.30829 1.97487 6.66667 3.99992 6.66667H5.01446C4.58325 5.99313 4.33325 5.19243 4.33325 4.33333ZM10.9999 4.33333C10.9999 3.04467 9.95525 2 8.66658 2C7.37792 2 6.33325 3.04467 6.33325 4.33333C6.33325 5.622 7.37792 6.66667 8.66658 6.66667C9.95525 6.66667 10.9999 5.622 10.9999 4.33333ZM15.3333 6.66667C16.6219 6.66667 17.6666 5.622 17.6666 4.33333C17.6666 3.04467 16.6219 2 15.3333 2C14.0446 2 12.9999 3.04467 12.9999 4.33333C12.9999 5.622 14.0446 6.66667 15.3333 6.66667ZM2.33325 10.3333C2.33325 9.41286 3.07944 8.66667 3.99992 8.66667H10.9999V13.3333H2.66659C2.48249 13.3333 2.33325 13.1841 2.33325 13V10.3333ZM12.9999 15.3333H19.9585C20.1456 17.6275 20.0438 19.9373 19.6546 22.2085C19.5584 22.7699 19.1025 23.2 18.5364 23.2632L17.3171 23.3995C15.882 23.5599 14.4415 23.6551 12.9999 23.6853V15.3333ZM12.9999 13.3333H21.3333C21.5173 13.3333 21.6666 13.1841 21.6666 13V10.3333C21.6666 9.41286 20.9204 8.66667 19.9999 8.66667H12.9999V13.3333ZM10.9999 15.3333V23.6853C9.55835 23.6551 8.11781 23.5599 6.68271 23.3995L5.46341 23.2632C4.89735 23.2 4.44141 22.7699 4.34521 22.2085C3.95602 19.9373 3.85423 17.6275 4.0413 15.3333H10.9999Z" fill="#468CE7"/>
</svg>
