<svg width="29" height="29" viewBox="0 0 29 29" fill="none" xmlns="http://www.w3.org/2000/svg">
<path d="M24.6771 11.8204L8.34373 3.65376C7.69914 3.33293 6.97128 3.21872 6.25941 3.32668C5.54753 3.43465 4.88627 3.75954 4.36579 4.25706C3.8453 4.75458 3.49093 5.40051 3.35097 6.1068C3.21102 6.81309 3.2923 7.54535 3.58373 8.20376L6.38373 14.4688C6.44726 14.6202 6.47999 14.7828 6.47999 14.9471C6.47999 15.1113 6.44726 15.274 6.38373 15.4254L3.58373 21.6904C3.34655 22.2233 3.24628 22.8069 3.29204 23.3883C3.3378 23.9698 3.52813 24.5306 3.84574 25.0197C4.16336 25.5089 4.59818 25.911 5.11069 26.1893C5.62321 26.4677 6.19716 26.6136 6.7804 26.6138C7.32667 26.6083 7.8648 26.4807 8.3554 26.2404L24.6887 18.0738C25.2681 17.7823 25.7551 17.3356 26.0954 16.7835C26.4357 16.2314 26.6158 15.5956 26.6158 14.9471C26.6158 14.2985 26.4357 13.6628 26.0954 13.1107C25.7551 12.5586 25.2681 12.1119 24.6887 11.8204H24.6771ZM23.6387 15.9854L7.3054 24.1521C7.09092 24.2551 6.85009 24.29 6.61518 24.2522C6.38028 24.2145 6.16254 24.1058 5.99116 23.9407C5.81979 23.7757 5.70296 23.5622 5.65635 23.3289C5.60974 23.0956 5.63558 22.8536 5.7304 22.6354L8.51873 16.3704C8.55483 16.2868 8.58599 16.2011 8.61207 16.1138H16.6504C16.9598 16.1138 17.2566 15.9908 17.4754 15.772C17.6941 15.5533 17.8171 15.2565 17.8171 14.9471C17.8171 14.6377 17.6941 14.3409 17.4754 14.1221C17.2566 13.9033 16.9598 13.7804 16.6504 13.7804H8.61207C8.58599 13.6931 8.55483 13.6074 8.51873 13.5238L5.7304 7.25876C5.63558 7.04055 5.60974 6.79856 5.65635 6.56525C5.70296 6.33194 5.81979 6.11846 5.99116 5.95343C6.16254 5.7884 6.38028 5.67971 6.61518 5.64193C6.85009 5.60416 7.09092 5.63911 7.3054 5.74209L23.6387 13.9088C23.8298 14.0067 23.9902 14.1554 24.1022 14.3386C24.2142 14.5218 24.2734 14.7324 24.2734 14.9471C24.2734 15.1618 24.2142 15.3724 24.1022 15.5556C23.9902 15.7388 23.8298 15.8875 23.6387 15.9854Z" fill="#5F5F5F"/>
<circle cx="20.2588" cy="7.42548" r="5.25" fill="#F8361B"/>
<path d="M21.5854 9H19.2466V8.66064L20.2012 7.69141C20.3786 7.51237 20.5275 7.35286 20.6479 7.21289C20.77 7.07292 20.8628 6.93538 20.9263 6.80029C20.9897 6.66357 21.0215 6.51383 21.0215 6.35107C21.0215 6.14925 20.9613 5.99544 20.8408 5.88965C20.722 5.78223 20.5649 5.72852 20.3696 5.72852C20.1987 5.72852 20.0474 5.75781 19.9155 5.81641C19.7837 5.875 19.6486 5.95801 19.5103 6.06543L19.293 5.79199C19.3874 5.71224 19.4899 5.64144 19.6006 5.57959C19.7129 5.51774 19.8325 5.46891 19.9595 5.43311C20.0881 5.3973 20.2248 5.37939 20.3696 5.37939C20.5894 5.37939 20.779 5.41764 20.9385 5.49414C21.098 5.57064 21.2209 5.67969 21.3071 5.82129C21.395 5.96289 21.439 6.13135 21.439 6.32666C21.439 6.51546 21.4015 6.69124 21.3267 6.854C21.2518 7.01514 21.1468 7.17546 21.0117 7.33496C20.8766 7.49284 20.7188 7.66048 20.5381 7.83789L19.7617 8.61182V8.62891H21.5854V9Z" fill="white"/>
</svg>
