<svg width="24" height="24" viewBox="0 0 24 24" fill="none" xmlns="http://www.w3.org/2000/svg">
<path d="M21.6771 8.82042L5.34373 0.653756C4.69914 0.332934 3.97128 0.218719 3.25941 0.326683C2.54753 0.434648 1.88627 0.759538 1.36579 1.25706C0.845303 1.75458 0.490928 2.40051 0.350974 3.1068C0.211021 3.81309 0.292301 4.54535 0.583733 5.20376L3.38373 11.4688C3.44726 11.6202 3.47999 11.7828 3.47999 11.9471C3.47999 12.1113 3.44726 12.274 3.38373 12.4254L0.583733 18.6904C0.346549 19.2233 0.246281 19.8069 0.292039 20.3883C0.337798 20.9698 0.528132 21.5306 0.845745 22.0197C1.16336 22.5089 1.59818 22.911 2.11069 23.1893C2.62321 23.4677 3.19716 23.6136 3.7804 23.6138C4.32667 23.6083 4.8648 23.4807 5.3554 23.2404L21.6887 15.0738C22.2681 14.7823 22.7551 14.3356 23.0954 13.7835C23.4357 13.2314 23.6158 12.5956 23.6158 11.9471C23.6158 11.2985 23.4357 10.6628 23.0954 10.1107C22.7551 9.55857 22.2681 9.11187 21.6887 8.82042H21.6771ZM20.6387 12.9854L4.3054 21.1521C4.09092 21.2551 3.85009 21.29 3.61518 21.2522C3.38028 21.2145 3.16254 21.1058 2.99116 20.9407C2.81979 20.7757 2.70296 20.5622 2.65635 20.3289C2.60974 20.0956 2.63558 19.8536 2.7304 19.6354L5.51873 13.3704C5.55483 13.2868 5.58599 13.2011 5.61207 13.1138H13.6504C13.9598 13.1138 14.2566 12.9908 14.4754 12.772C14.6941 12.5533 14.8171 12.2565 14.8171 11.9471C14.8171 11.6377 14.6941 11.3409 14.4754 11.1221C14.2566 10.9033 13.9598 10.7804 13.6504 10.7804H5.61207C5.58599 10.6931 5.55483 10.6074 5.51873 10.5238L2.7304 4.25876C2.63558 4.04055 2.60974 3.79856 2.65635 3.56525C2.70296 3.33194 2.81979 3.11846 2.99116 2.95343C3.16254 2.7884 3.38028 2.67971 3.61518 2.64193C3.85009 2.60416 4.09092 2.63911 4.3054 2.74209L20.6387 10.9088C20.8298 11.0067 20.9902 11.1554 21.1022 11.3386C21.2142 11.5218 21.2734 11.7324 21.2734 11.9471C21.2734 12.1618 21.2142 12.3724 21.1022 12.5556C20.9902 12.7388 20.8298 12.8875 20.6387 12.9854Z" fill="#5F5F5F"/>
</svg>
