<svg width="13" height="13" viewBox="0 0 13 13" fill="none" xmlns="http://www.w3.org/2000/svg">
<path d="M3.91281 5.84177C3.78443 5.84177 3.65894 5.87984 3.55219 5.95116C3.44545 6.02248 3.36226 6.12385 3.31313 6.24246C3.264 6.36106 3.25115 6.49157 3.27619 6.61748C3.30124 6.74339 3.36306 6.85905 3.45383 6.94983C3.54461 7.0406 3.66027 7.10242 3.78618 7.12747C3.91209 7.15251 4.0426 7.13966 4.1612 7.09053C4.27981 7.0414 4.38118 6.95821 4.4525 6.85147C4.52382 6.74472 4.56189 6.61923 4.56189 6.49085C4.56189 6.3187 4.49351 6.15361 4.37178 6.03188C4.25005 5.91015 4.08495 5.84177 3.91281 5.84177ZM6.50915 5.84177C6.38077 5.84177 6.25528 5.87984 6.14854 5.95116C6.04179 6.02248 5.9586 6.12385 5.90947 6.24246C5.86034 6.36106 5.84749 6.49157 5.87253 6.61748C5.89758 6.74339 5.9594 6.85905 6.05018 6.94983C6.14095 7.0406 6.25661 7.10242 6.38252 7.12747C6.50843 7.15251 6.63894 7.13966 6.75754 7.09053C6.87615 7.0414 6.97752 6.95821 7.04884 6.85147C7.12016 6.74472 7.15823 6.61923 7.15823 6.49085C7.15823 6.3187 7.08985 6.15361 6.96812 6.03188C6.84639 5.91015 6.6813 5.84177 6.50915 5.84177ZM9.10549 5.84177C8.97711 5.84177 8.85162 5.87984 8.74488 5.95116C8.63813 6.02248 8.55494 6.12385 8.50581 6.24246C8.45668 6.36106 8.44383 6.49157 8.46888 6.61748C8.49392 6.74339 8.55574 6.85905 8.64652 6.94983C8.73729 7.0406 8.85295 7.10242 8.97886 7.12747C9.10477 7.15251 9.23528 7.13966 9.35388 7.09053C9.47249 7.0414 9.57386 6.95821 9.64518 6.85147C9.71651 6.74472 9.75457 6.61923 9.75457 6.49085C9.75457 6.3187 9.68619 6.15361 9.56446 6.03188C9.44273 5.91015 9.27764 5.84177 9.10549 5.84177ZM6.50915 0C5.65676 0 4.81271 0.167891 4.02521 0.494087C3.2377 0.820283 2.52215 1.2984 1.91942 1.90113C0.702151 3.1184 0.0182954 4.76937 0.0182954 6.49085C0.0126209 7.98968 0.531587 9.44324 1.48523 10.5996L0.187058 11.8977C0.096992 11.989 0.0359804 12.1049 0.0117214 12.2308C-0.0125376 12.3568 0.00104301 12.487 0.0507496 12.6052C0.104661 12.722 0.192058 12.8202 0.301846 12.8872C0.411634 12.9542 0.538862 12.9871 0.667381 12.9817H6.50915C8.23063 12.9817 9.8816 12.2978 11.0989 11.0806C12.3161 9.86331 13 8.21233 13 6.49085C13 4.76937 12.3161 3.1184 11.0989 1.90113C9.8816 0.683856 8.23063 0 6.50915 0ZM6.50915 11.6835H2.23168L2.83533 11.0799C2.89666 11.0198 2.94545 10.9481 2.97887 10.869C3.0123 10.7899 3.02969 10.7049 3.03005 10.619C3.02761 10.4478 2.95762 10.2845 2.83533 10.1647C1.9854 9.3157 1.45613 8.1983 1.33768 7.00285C1.21924 5.8074 1.51894 4.60786 2.18574 3.6086C2.85253 2.60935 3.84517 1.87219 4.99452 1.52274C6.14387 1.17328 7.37883 1.23314 8.489 1.69211C9.59916 2.15108 10.5159 2.98078 11.0829 4.03984C11.6499 5.09889 11.8322 6.32179 11.5987 7.50019C11.3652 8.67858 10.7303 9.73955 9.80231 10.5024C8.87426 11.2652 7.71045 11.6826 6.50915 11.6835Z" fill="#9A9A9A"/>
</svg>
