<svg width="368" height="213" viewBox="0 0 368 213" fill="none" xmlns="http://www.w3.org/2000/svg">
<rect width="368" height="210" rx="30" fill="url(#paint0_diamond_456_2721)"/>
<path d="M118.576 88.0087L123.311 162.739L120.969 162.89C120.935 162.89 119.195 155.783 119.195 155.783L114.911 88.2276L118.576 88.0087Z" fill="#E1558B"/>
<path d="M121.471 162.857L122.592 167.623L122.843 162.772L121.471 162.857Z" fill="#E77D3B"/>
<path d="M120.015 154.991C119.931 153.694 120.918 152.566 122.207 152.482C123.495 152.397 124.617 153.391 124.7 154.688C124.784 155.985 123.797 157.113 122.508 157.197C121.203 157.282 120.082 156.288 120.015 154.991Z" fill="#F8D451"/>
<path d="M120.333 87.5371L156.361 153.054L158.419 151.909C158.436 151.892 156.11 144.97 156.11 144.97L123.546 85.7518L120.333 87.5371Z" fill="#E1558B"/>
<path d="M157.951 152.178L159.557 156.793L156.746 152.835L157.951 152.178Z" fill="#E77D3B"/>
<path d="M149.058 129.419L147.901 130.063L150.761 135.265L151.918 134.621L149.058 129.419Z" fill="#F8D451"/>
<path d="M116.793 73.5878L114.155 74.3488L116.764 83.5127L119.402 82.7517L116.793 73.5878Z" fill="#E77D3B"/>
<path d="M123.914 85.1455L123.345 90.434L125.922 99.4615L120.048 101.163L117.471 92.1351L114.208 87.9413C113.438 85.2465 114.995 82.4338 117.672 81.6591C120.366 80.8843 123.161 82.4507 123.914 85.1455Z" fill="#F8D451"/>
<path d="M117.706 86.7791C117.488 86.0381 117.923 85.2802 118.643 85.0612C119.379 84.8423 120.132 85.2802 120.35 86.0044C120.567 86.7455 120.132 87.5034 119.413 87.7223C118.676 87.9413 117.923 87.5034 117.706 86.7791Z" fill="#E77D3B"/>
<g opacity="0.5">
<g opacity="0.5">
<path opacity="0.5" d="M278.67 66.9219H277.75V66.5682H278.335V65.9788H278.67V66.9219Z" fill="#7FE1D3"/>
</g>
<g opacity="0.5">
<path opacity="0.5" d="M276.16 66.9219H274.57V66.5851H276.16V66.9219ZM272.997 66.9219H271.408V66.5851H272.997V66.9219ZM269.835 66.9219H268.245V66.5851H269.835V66.9219ZM266.655 66.9219H265.065V66.5851H266.655V66.9219ZM263.492 66.9219H261.903V66.5851H263.492V66.9219ZM260.33 66.9219H258.74V66.5851H260.33V66.9219ZM257.167 66.9219H255.577V66.5851H257.167V66.9219ZM254.004 66.9219H252.414V66.5851H254.004V66.9219ZM250.841 66.9219H249.252V66.5851H250.841V66.9219Z" fill="#7FE1D3"/>
</g>
<g opacity="0.5">
<path opacity="0.5" d="M247.662 66.9219H246.742V65.9788H247.076V66.5682H247.662V66.9219Z" fill="#7FE1D3"/>
</g>
<g opacity="0.5">
<path opacity="0.5" d="M247.076 64.5134H246.742V63.0481H247.076V64.5134ZM247.076 61.5828H246.742V60.1175H247.076V61.5828ZM247.076 58.6354H246.742V57.1701H247.076V58.6354ZM247.076 55.7048H246.742V54.2395H247.076V55.7048ZM247.076 52.7742H246.742V51.3089H247.076V52.7742ZM247.076 49.8268H246.742V48.3615H247.076V49.8268ZM247.076 46.8962H246.742V45.4309H247.076V46.8962ZM247.076 43.9656H246.742V42.5003H247.076V43.9656Z" fill="#7FE1D3"/>
</g>
<g opacity="0.5">
<path opacity="0.5" d="M247.076 41.035H246.742V40.0919H247.662V40.4287H247.076V41.035Z" fill="#7FE1D3"/>
</g>
<g opacity="0.5">
<path opacity="0.5" d="M276.16 40.4287H274.57V40.0919H276.16V40.4287ZM272.997 40.4287H271.408V40.0919H272.997V40.4287ZM269.835 40.4287H268.245V40.0919H269.835V40.4287ZM266.655 40.4287H265.065V40.0919H266.655V40.4287ZM263.492 40.4287H261.903V40.0919H263.492V40.4287ZM260.33 40.4287H258.74V40.0919H260.33V40.4287ZM257.167 40.4287H255.577V40.0919H257.167V40.4287ZM254.004 40.4287H252.414V40.0919H254.004V40.4287ZM250.841 40.4287H249.252V40.0919H250.841V40.4287Z" fill="#7FE1D3"/>
</g>
<g opacity="0.5">
<path opacity="0.5" d="M278.67 41.035H278.335V40.4287H277.75V40.0919H278.67V41.035Z" fill="#7FE1D3"/>
</g>
<g opacity="0.5">
<path opacity="0.5" d="M278.67 64.5134H278.335V63.0481H278.67V64.5134ZM278.67 61.5828H278.335V60.1175H278.67V61.5828ZM278.67 58.6354H278.335V57.1701H278.67V58.6354ZM278.67 55.7048H278.335V54.2395H278.67V55.7048ZM278.67 52.7742H278.335V51.3089H278.67V52.7742ZM278.67 49.8268H278.335V48.3615H278.67V49.8268ZM278.67 46.8962H278.335V45.4309H278.67V46.8962ZM278.67 43.9656H278.335V42.5003H278.67V43.9656Z" fill="#7FE1D3"/>
</g>
</g>
<g opacity="0.5">
<path opacity="0.5" d="M283.239 79.9075C282.67 79.9075 282.084 79.8738 281.532 79.8232L281.565 79.4359C282.117 79.4864 282.686 79.5201 283.239 79.5201V79.9075ZM284.946 79.8232L284.912 79.4359C285.464 79.3854 286.017 79.3011 286.569 79.1832L286.652 79.5538C286.083 79.6717 285.515 79.7559 284.946 79.8232ZM279.825 79.5538C279.273 79.4359 278.704 79.2843 278.168 79.1159L278.285 78.7453C278.821 78.9138 279.356 79.0654 279.909 79.1664L279.825 79.5538ZM288.309 79.1327L288.192 78.7622C288.727 78.5938 289.246 78.3916 289.765 78.1727L289.916 78.5264C289.397 78.7453 288.845 78.9474 288.309 79.1327ZM276.562 78.5095C276.043 78.2738 275.524 78.0211 275.022 77.7348L275.206 77.3979C275.692 77.6674 276.194 77.9201 276.712 78.1559L276.562 78.5095ZM291.455 77.7516L291.271 77.4148C291.756 77.1453 292.225 76.8421 292.693 76.5053L292.911 76.8253C292.442 77.1621 291.94 77.4653 291.455 77.7516ZM273.583 76.8085C273.115 76.4716 272.663 76.1179 272.228 75.7474L272.479 75.4611C272.897 75.8316 273.349 76.1853 273.801 76.5053L273.583 76.8085ZM294.25 75.7642L293.999 75.4779C294.417 75.1074 294.819 74.72 295.204 74.2989L295.488 74.5684C295.103 74.9895 294.685 75.3937 294.25 75.7642ZM271.006 74.5347C270.621 74.1137 270.253 73.6758 269.902 73.221L270.203 72.9852C270.538 73.44 270.906 73.861 271.274 74.2821L271.006 74.5347ZM296.592 73.2378L296.291 73.002C296.626 72.5473 296.944 72.0926 297.245 71.6041L297.563 71.8062C297.262 72.3115 296.944 72.7831 296.592 73.2378ZM268.931 71.7894C268.63 71.301 268.362 70.7957 268.111 70.2736L268.463 70.1052C268.697 70.6104 268.965 71.1157 269.266 71.5873L268.931 71.7894ZM298.383 70.3073L298.032 70.1388C298.266 69.6336 298.483 69.1114 298.667 68.5725L299.019 68.7072C298.852 69.2462 298.617 69.7851 298.383 70.3073ZM267.458 68.6735C267.274 68.1346 267.107 67.5788 266.973 67.023L267.341 66.9388C267.475 67.4777 267.626 68.0335 267.827 68.5557L267.458 68.6735ZM299.521 67.0567L299.153 66.9725C299.287 66.4335 299.387 65.8777 299.471 65.3219L299.856 65.3724C299.772 65.9282 299.655 66.5009 299.521 67.0567ZM266.655 65.3219C266.572 64.7492 266.538 64.1766 266.505 63.604L266.89 63.5871C266.906 64.1429 266.956 64.7156 267.023 65.2714L266.655 65.3219ZM299.989 63.6376L299.605 63.6208C299.605 63.4355 299.621 63.2334 299.621 63.0482C299.621 62.6776 299.605 62.3071 299.588 61.9366L299.973 61.9029C299.989 62.2734 300.006 62.6608 300.006 63.0482C300.006 63.2503 300.006 63.4355 299.989 63.6376ZM266.89 63.0482H266.505C266.505 62.4755 266.538 61.886 266.588 61.3302L266.973 61.3639C266.906 61.9197 266.89 62.4923 266.89 63.0482ZM299.387 60.2523C299.287 59.6965 299.169 59.1407 299.019 58.6017L299.387 58.5007C299.538 59.0565 299.672 59.6123 299.755 60.1849L299.387 60.2523ZM267.224 59.6965L266.856 59.6123C266.973 59.0565 267.124 58.4839 267.291 57.9449L267.659 58.0628C267.475 58.6017 267.341 59.1407 267.224 59.6965ZM298.483 57.0186C298.283 56.4964 298.048 55.9743 297.797 55.4859L298.132 55.3175C298.4 55.8227 298.634 56.3617 298.835 56.8838L298.483 57.0186ZM268.245 56.4796L267.894 56.328C268.128 55.8059 268.379 55.2838 268.663 54.7785L268.998 54.9638C268.714 55.469 268.463 55.9743 268.245 56.4796ZM296.944 54.0206C296.643 53.549 296.308 53.0943 295.957 52.6564L296.258 52.4206C296.626 52.8585 296.961 53.3301 297.279 53.8185L296.944 54.0206ZM269.885 53.549L269.567 53.3301C269.902 52.8585 270.253 52.4037 270.621 51.9658L270.906 52.2185C270.554 52.6395 270.203 53.0942 269.885 53.549ZM294.835 51.41C294.434 51.0058 294.015 50.6353 293.597 50.2816L293.831 49.9784C294.266 50.3489 294.702 50.7363 295.103 51.1405L294.835 51.41ZM272.077 51.0058L271.809 50.7195C272.228 50.3321 272.663 49.9447 273.115 49.6079L273.349 49.911C272.931 50.2647 272.495 50.6184 272.077 51.0058ZM292.242 49.271C291.773 48.9679 291.288 48.6815 290.802 48.412L290.97 48.0752C291.472 48.3447 291.974 48.631 292.442 48.951L292.242 49.271ZM274.755 48.9679L274.554 48.6478C275.039 48.3447 275.541 48.0752 276.06 47.8226L276.227 48.1763C275.725 48.4121 275.223 48.6815 274.755 48.9679ZM289.263 47.7215C288.744 47.5194 288.209 47.3341 287.673 47.1826L287.774 46.812C288.326 46.9636 288.861 47.1489 289.397 47.3678L289.263 47.7215ZM277.783 47.5194L277.65 47.1657C278.185 46.9804 278.737 46.812 279.289 46.6773L279.373 47.0478C278.838 47.1657 278.302 47.3341 277.783 47.5194ZM286.033 46.812C285.481 46.711 284.929 46.6436 284.377 46.6099L284.41 46.2225C284.979 46.2562 285.548 46.3236 286.117 46.4246L286.033 46.812ZM281.03 46.7278L280.98 46.3404C281.549 46.2562 282.117 46.2225 282.686 46.1888L282.703 46.5762C282.134 46.6099 281.582 46.6436 281.03 46.7278Z" fill="#7FE1D3"/>
</g>
<path d="M90.7637 211.565L70.6494 179.851L111.28 153.728L90.7637 211.565Z" fill="#F8D451"/>
<path d="M88.9565 196.491L79.8699 182.158L98.2271 170.352L88.9565 196.491Z" fill="#EBF3FA"/>
<path d="M73.6475 178.728L73.4641 178.846L74.9324 181.16L75.1157 181.042L73.6475 178.728Z" fill="#060633"/>
<path d="M74.7041 178.034L74.5208 178.152L75.3854 179.515L75.5687 179.397L74.7041 178.034Z" fill="#060633"/>
<path d="M75.592 177.45L75.4087 177.568L76.2735 178.931L76.4568 178.813L75.592 177.45Z" fill="#060633"/>
<path d="M76.4472 176.906L76.2639 177.024L77.1287 178.387L77.312 178.269L76.4472 176.906Z" fill="#060633"/>
<path d="M77.2332 176.43L77.0498 176.548L77.9146 177.911L78.0979 177.793L77.2332 176.43Z" fill="#060633"/>
<path d="M78.0962 175.848L77.9128 175.966L78.7776 177.328L78.9609 177.21L78.0962 175.848Z" fill="#060633"/>
<path d="M78.9702 175.293L78.7869 175.411L80.2549 177.724L80.4382 177.607L78.9702 175.293Z" fill="#060633"/>
<path d="M80.0515 174.594L79.8682 174.712L80.7328 176.074L80.9161 175.957L80.0515 174.594Z" fill="#060633"/>
<path d="M80.9375 174.049L80.7542 174.167L81.6189 175.529L81.8023 175.412L80.9375 174.049Z" fill="#060633"/>
<path d="M81.7775 173.49L81.5942 173.608L82.4598 174.97L82.6431 174.852L81.7775 173.49Z" fill="#060633"/>
<path d="M82.5459 173L82.3625 173.118L83.2271 174.481L83.4105 174.363L82.5459 173Z" fill="#060633"/>
<path d="M83.4179 172.414L83.2346 172.532L84.0994 173.895L84.2827 173.777L83.4179 172.414Z" fill="#060633"/>
<path d="M84.6335 171.644L84.4502 171.762L85.9199 174.075L86.1031 173.957L84.6335 171.644Z" fill="#060633"/>
<path d="M85.707 170.983L85.5237 171.101L86.3884 172.463L86.5718 172.345L85.707 170.983Z" fill="#060633"/>
<path d="M86.5881 170.395L86.4048 170.513L87.2694 171.876L87.4527 171.758L86.5881 170.395Z" fill="#060633"/>
<path d="M87.4287 169.866L87.2454 169.984L88.11 171.347L88.2933 171.229L87.4287 169.866Z" fill="#060633"/>
<path d="M88.2292 169.367L88.0459 169.484L88.9107 170.847L89.094 170.729L88.2292 169.367Z" fill="#060633"/>
<path d="M89.0834 168.777L88.9001 168.895L89.7657 170.257L89.949 170.139L89.0834 168.777Z" fill="#060633"/>
<path d="M89.9516 168.226L89.7683 168.343L91.2366 170.657L91.4199 170.539L89.9516 168.226Z" fill="#060633"/>
<path d="M91.01 167.549L90.8267 167.667L91.6914 169.03L91.8748 168.912L91.01 167.549Z" fill="#060633"/>
<path d="M91.9328 166.972L91.7495 167.09L92.6144 168.452L92.7978 168.334L91.9328 166.972Z" fill="#060633"/>
<path d="M92.7488 166.416L92.5654 166.533L93.4302 167.896L93.6135 167.778L92.7488 166.416Z" fill="#060633"/>
<path d="M93.5327 165.923L93.3494 166.041L94.214 167.403L94.3973 167.286L93.5327 165.923Z" fill="#060633"/>
<path d="M94.4182 165.379L94.2349 165.497L95.0996 166.859L95.283 166.742L94.4182 165.379Z" fill="#060633"/>
<path d="M95.5237 164.658L95.3403 164.776L96.8086 167.09L96.992 166.972L95.5237 164.658Z" fill="#060633"/>
<path d="M96.5744 163.958L96.3911 164.076L97.2559 165.438L97.4392 165.321L96.5744 163.958Z" fill="#060633"/>
<path d="M97.4621 163.388L97.2788 163.506L98.1436 164.868L98.3269 164.75L97.4621 163.388Z" fill="#060633"/>
<path d="M98.3188 162.857L98.1355 162.975L99.0009 164.337L99.1842 164.219L98.3188 162.857Z" fill="#060633"/>
<path d="M99.0884 162.359L98.905 162.477L99.7696 163.84L99.953 163.722L99.0884 162.359Z" fill="#060633"/>
<path d="M99.9817 161.792L99.7983 161.91L100.663 163.272L100.847 163.154L99.9817 161.792Z" fill="#060633"/>
<path d="M100.841 161.23L100.658 161.348L102.126 163.662L102.309 163.544L100.841 161.23Z" fill="#060633"/>
<path d="M101.916 160.56L101.732 160.678L102.597 162.041L102.781 161.923L101.916 160.56Z" fill="#060633"/>
<path d="M102.791 159.965L102.608 160.082L103.473 161.445L103.656 161.327L102.791 159.965Z" fill="#060633"/>
<path d="M103.662 159.427L103.479 159.545L104.344 160.908L104.527 160.79L103.662 159.427Z" fill="#060633"/>
<path d="M104.44 158.942L104.257 159.06L105.122 160.423L105.306 160.305L104.44 158.942Z" fill="#060633"/>
<path d="M105.312 158.364L105.129 158.481L105.994 159.844L106.177 159.726L105.312 158.364Z" fill="#060633"/>
<path d="M106.497 157.582L106.314 157.699L107.782 160.013L107.966 159.895L106.497 157.582Z" fill="#060633"/>
<path d="M293.028 189.687C293.028 189.687 293.212 181.03 301.813 179.969C310.415 178.907 326.848 179.531 326.848 179.531V184.516C326.848 184.516 308.206 184.348 301.998 184.516C299.404 184.583 296.274 184.819 293.028 189.687Z" fill="#373C52"/>
<path d="M306.901 183.556C306.901 183.556 306.198 209.375 302.332 211.481C298.467 213.603 293.312 211.009 296.241 206.057C299.169 201.106 300.926 200.87 301.981 195.093C303.035 189.316 303.035 183.539 303.035 183.539H306.901V183.556Z" fill="#373C52"/>
<path d="M314.632 183.556C314.632 183.556 311.938 201.241 312.875 206.074C313.812 210.908 318.146 213.384 322.48 210.79C326.814 208.197 325.526 204.424 325.526 204.424C325.526 204.424 321.995 207.253 319.2 205.131C316.406 203.009 317.811 182.613 317.811 182.613L314.632 183.556Z" fill="#373C52"/>
<path d="M86.7643 143.201C81.0748 143.201 75.7199 140.978 71.7037 136.919C67.6875 132.877 65.4619 127.487 65.4619 121.761C65.4619 116.035 67.6708 110.645 71.7037 106.603C75.7199 102.561 81.0748 100.32 86.7643 100.32C92.4539 100.32 97.8088 102.544 101.825 106.603C105.841 110.645 108.067 116.035 108.067 121.761C108.067 127.487 105.858 132.877 101.825 136.919C97.8088 140.961 92.4539 143.201 86.7643 143.201ZM86.7643 100.725C81.1752 100.725 75.9374 102.914 71.9882 106.889C68.039 110.864 65.8635 116.152 65.8635 121.761C65.8635 127.386 68.039 132.658 71.9882 136.633C75.9374 140.608 81.1919 142.797 86.7643 142.797C92.3535 142.797 97.5913 140.608 101.541 136.633C105.49 132.658 107.665 127.369 107.665 121.761C107.665 116.136 105.49 110.864 101.541 106.889C97.5913 102.914 92.3535 100.725 86.7643 100.725Z" fill="#7FE1D3"/>
<path d="M86.7643 128.498C86.6806 128.498 86.5969 128.498 86.5133 128.498V128.279C86.848 128.279 87.1659 128.279 87.5006 128.279V128.498C87.2496 128.498 87.0153 128.498 86.7643 128.498ZM85.526 128.481C85.1913 128.481 84.8566 128.464 84.5387 128.447V128.228C84.8566 128.245 85.1913 128.245 85.526 128.245V128.481ZM88.4879 128.464V128.245C88.8226 128.245 89.1405 128.228 89.4752 128.212L89.4919 128.431C89.1573 128.447 88.8226 128.464 88.4879 128.464ZM83.5513 128.414C83.2167 128.397 82.8987 128.38 82.564 128.363L82.5808 128.144C82.8987 128.161 83.2334 128.178 83.5681 128.195L83.5513 128.414ZM90.4625 128.397L90.4458 128.178C90.7805 128.161 91.0984 128.144 91.4331 128.111L91.4498 128.33C91.1319 128.346 90.7972 128.38 90.4625 128.397ZM81.5767 128.296C81.242 128.262 80.9074 128.245 80.5894 128.212L80.6062 127.993C80.9241 128.026 81.2588 128.06 81.5935 128.077L81.5767 128.296ZM92.4371 128.245L92.4204 128.026C92.7551 127.993 93.073 127.959 93.4077 127.925L93.4244 128.144C93.0898 128.195 92.7718 128.228 92.4371 128.245ZM79.6021 128.111C79.2674 128.077 78.9495 128.026 78.6148 127.993L78.6483 127.774C78.9662 127.824 79.3009 127.858 79.6188 127.892L79.6021 128.111ZM94.395 128.043L94.3615 127.824C94.6962 127.791 95.0142 127.74 95.3321 127.69L95.3656 127.908C95.0644 127.959 94.7297 128.01 94.395 128.043ZM77.6442 127.841C77.3095 127.791 76.9916 127.74 76.6737 127.69L76.7071 127.471C77.0251 127.521 77.3598 127.572 77.6777 127.622L77.6442 127.841ZM96.3696 127.774L96.3362 127.555C96.6541 127.504 96.9888 127.454 97.3067 127.386L97.3402 127.605C97.0222 127.656 96.6876 127.723 96.3696 127.774ZM75.6863 127.504C75.3517 127.437 75.0337 127.37 74.7158 127.302L74.766 127.083C75.0839 127.151 75.4019 127.218 75.7366 127.285L75.6863 127.504ZM98.3108 127.42L98.2606 127.201C98.5785 127.134 98.9132 127.066 99.2144 126.999L99.2646 127.218C98.9634 127.285 98.6287 127.353 98.3108 127.42ZM73.7619 127.083C73.4273 126.999 73.1093 126.915 72.8081 126.831L72.875 126.612C73.1762 126.696 73.5109 126.78 73.8289 126.864L73.7619 127.083ZM100.235 126.965L100.185 126.746C100.503 126.662 100.821 126.578 101.139 126.477L101.206 126.696C100.888 126.797 100.57 126.881 100.235 126.965ZM71.8543 126.561C71.5363 126.46 71.2184 126.359 70.9171 126.241L70.9841 126.039C71.2853 126.14 71.6032 126.258 71.9212 126.342L71.8543 126.561ZM102.143 126.409L102.076 126.191C102.394 126.089 102.712 125.972 102.996 125.854L103.08 126.056C102.779 126.191 102.461 126.308 102.143 126.409ZM69.98 125.887C69.6621 125.753 69.3609 125.618 69.0764 125.483L69.1768 125.281C69.4613 125.416 69.7625 125.551 70.0804 125.685L69.98 125.887ZM104 125.702L103.917 125.5C104.235 125.365 104.519 125.214 104.804 125.079L104.904 125.281C104.619 125.416 104.318 125.567 104 125.702ZM68.1895 125.028C67.8883 124.86 67.6038 124.675 67.3528 124.489L67.4867 124.304C67.7377 124.489 68.0054 124.658 68.3066 124.826L68.1895 125.028ZM105.757 124.776L105.64 124.591C105.925 124.405 106.193 124.22 106.427 124.018L106.561 124.186C106.326 124.388 106.059 124.591 105.757 124.776ZM66.583 123.849C66.3153 123.597 66.1145 123.327 65.9471 123.058L66.1312 122.94C66.2818 123.193 66.4826 123.445 66.7336 123.681L66.583 123.849ZM107.28 123.479L107.113 123.344C107.33 123.075 107.498 122.805 107.598 122.536L107.799 122.62C107.699 122.906 107.514 123.209 107.28 123.479ZM65.579 122.098C65.5623 121.98 65.5623 121.879 65.5623 121.761C65.5623 121.424 65.6459 121.087 65.7965 120.767L65.9973 120.868C65.8635 121.171 65.7965 121.475 65.7965 121.778C65.7965 121.879 65.7965 121.98 65.8133 122.081L65.579 122.098ZM107.749 121.609C107.732 121.306 107.632 121.003 107.481 120.717L107.682 120.616C107.849 120.936 107.95 121.273 107.983 121.593L107.749 121.609ZM66.5161 120.06L66.3488 119.908C66.5496 119.672 66.8006 119.437 67.085 119.218L67.2189 119.386C66.9512 119.622 66.7169 119.841 66.5161 120.06ZM106.912 119.959C106.711 119.74 106.46 119.521 106.193 119.319L106.326 119.134C106.611 119.352 106.862 119.571 107.079 119.79L106.912 119.959ZM68.0222 118.847L67.905 118.662C68.1728 118.494 68.474 118.342 68.7752 118.174L68.8756 118.376C68.5744 118.527 68.2899 118.696 68.0222 118.847ZM105.373 118.763C105.105 118.611 104.82 118.443 104.502 118.291L104.603 118.089C104.921 118.241 105.205 118.409 105.473 118.561L105.373 118.763ZM69.7792 117.955L69.6956 117.752C69.98 117.635 70.298 117.5 70.6159 117.382L70.6996 117.584C70.3649 117.719 70.0637 117.837 69.7792 117.955ZM103.615 117.904C103.331 117.786 103.013 117.668 102.695 117.55L102.762 117.348C103.08 117.466 103.398 117.584 103.682 117.702L103.615 117.904ZM71.62 117.281L71.553 117.062C71.8543 116.961 72.1722 116.86 72.5069 116.776L72.5738 116.995C72.2391 117.079 71.9212 117.18 71.62 117.281ZM101.775 117.23C101.474 117.129 101.156 117.045 100.838 116.944L100.905 116.725C101.222 116.809 101.54 116.91 101.858 117.011L101.775 117.23ZM73.5109 116.725L73.4607 116.506C73.7787 116.422 74.0966 116.355 74.4313 116.27L74.4815 116.489C74.1301 116.573 73.8121 116.658 73.5109 116.725ZM99.8838 116.691C99.5658 116.607 99.2479 116.54 98.9299 116.472L98.9801 116.253C99.3148 116.321 99.6328 116.405 99.9507 116.472L99.8838 116.691ZM75.4186 116.304L75.3684 116.085C75.6863 116.018 76.021 115.967 76.339 115.9L76.3724 116.119C76.0712 116.169 75.7366 116.237 75.4186 116.304ZM97.9594 116.27C97.6414 116.203 97.3235 116.152 96.9888 116.085L97.0223 115.866C97.3569 115.917 97.6749 115.984 97.9928 116.051L97.9594 116.27ZM77.3598 115.95L77.3263 115.731C77.6442 115.681 77.9789 115.63 78.2969 115.58L78.3303 115.799C78.0124 115.849 77.6777 115.9 77.3598 115.95ZM96.0182 115.933C95.7003 115.883 95.3656 115.832 95.0476 115.799L95.0811 115.58C95.4158 115.63 95.7337 115.664 96.0684 115.715L96.0182 115.933ZM79.3176 115.681L79.2842 115.462C79.6021 115.428 79.9368 115.395 80.2715 115.361L80.2882 115.58C79.9703 115.613 79.6356 115.647 79.3176 115.681ZM94.0603 115.664C93.7424 115.63 93.4077 115.597 93.073 115.563L93.0898 115.344C93.4244 115.378 93.7424 115.411 94.0771 115.445L94.0603 115.664ZM81.2755 115.479L81.2588 115.26C81.5767 115.226 81.9114 115.209 82.2461 115.192L82.2628 115.411C81.9281 115.428 81.5935 115.462 81.2755 115.479ZM92.1024 115.462C91.7845 115.428 91.4498 115.411 91.1151 115.395L91.1319 115.176C91.4665 115.192 91.8012 115.226 92.1192 115.243L92.1024 115.462ZM83.2334 115.344L83.2167 115.125C83.5346 115.108 83.8693 115.091 84.204 115.075L84.2207 115.293C83.9028 115.31 83.5681 115.327 83.2334 115.344ZM90.1278 115.344C89.8099 115.327 89.4752 115.31 89.1405 115.293V115.075C89.4752 115.091 89.8099 115.108 90.1278 115.125V115.344ZM85.208 115.277V115.058C85.5427 115.058 85.8606 115.041 86.1953 115.041V115.26C85.8606 115.26 85.5427 115.26 85.208 115.277ZM88.1699 115.277C87.852 115.277 87.5173 115.26 87.1826 115.26V115.041C87.5173 115.041 87.852 115.041 88.1699 115.058V115.277Z" fill="#7FE1D3"/>
<path d="M86.714 143.117C86.3626 143.117 86.0279 143.033 85.6765 142.881L85.7602 142.662C86.0781 142.797 86.3961 142.865 86.6973 142.881L86.714 143.117ZM87.7515 142.915L87.6679 142.696C87.9524 142.578 88.2368 142.41 88.5213 142.191L88.6719 142.376C88.3707 142.612 88.0528 142.797 87.7515 142.915ZM84.7896 142.309C84.5386 142.107 84.2876 141.854 84.0533 141.568L84.2207 141.416C84.4549 141.686 84.6892 141.938 84.9235 142.124L84.7896 142.309ZM89.4082 141.652L89.2409 141.5C89.4417 141.265 89.6592 140.995 89.8433 140.692L90.0274 140.827C89.8266 141.13 89.6258 141.399 89.4082 141.652ZM83.4342 140.726C83.2501 140.456 83.0828 140.153 82.9154 139.833L83.1162 139.732C83.2836 140.052 83.4509 140.338 83.635 140.608L83.4342 140.726ZM90.5629 139.934L90.3621 139.816C90.5127 139.53 90.6633 139.227 90.8139 138.907L91.0147 139.008C90.8808 139.328 90.7302 139.648 90.5629 139.934ZM82.4636 138.907C82.3297 138.603 82.1958 138.283 82.062 137.947L82.2795 137.862C82.4134 138.182 82.5473 138.502 82.6811 138.806L82.4636 138.907ZM91.433 138.048L91.2155 137.963C91.3326 137.66 91.4498 137.34 91.5669 137.003L91.7845 137.088C91.684 137.408 91.5669 137.744 91.433 138.048ZM81.6938 136.987C81.5934 136.667 81.4763 136.33 81.3759 135.993L81.5934 135.925C81.6938 136.262 81.7942 136.582 81.9114 136.902L81.6938 136.987ZM92.1191 136.094L91.9016 136.027C92.002 135.707 92.0857 135.37 92.1861 135.033L92.4036 135.1C92.3199 135.437 92.2195 135.774 92.1191 136.094ZM81.1081 134.999C81.0245 134.679 80.9408 134.342 80.8571 133.989L81.0747 133.938C81.1583 134.275 81.242 134.612 81.3257 134.932L81.1081 134.999ZM92.6546 134.09L92.4371 134.039C92.5208 133.719 92.5877 133.382 92.6546 133.029L92.8722 133.079C92.8052 133.433 92.7383 133.77 92.6546 134.09ZM80.6396 132.978C80.5726 132.641 80.5057 132.304 80.4388 131.968L80.6731 131.934C80.74 132.271 80.8069 132.608 80.8739 132.944L80.6396 132.978ZM93.0897 132.069L92.8722 132.018C92.9391 131.681 92.9893 131.344 93.0562 131.007L93.2905 131.041C93.2068 131.395 93.1399 131.732 93.0897 132.069ZM80.2547 130.957C80.2045 130.62 80.1543 130.283 80.1041 129.93L80.3384 129.896C80.3886 130.233 80.4388 130.586 80.489 130.906L80.2547 130.957ZM93.4077 130.031L93.1734 129.997C93.2236 129.66 93.2571 129.323 93.3073 128.97L93.5415 129.003C93.5081 129.357 93.4579 129.694 93.4077 130.031ZM79.9702 128.902C79.9368 128.565 79.8866 128.212 79.8531 127.875L80.0874 127.858C80.1208 128.195 80.1543 128.548 80.2045 128.885L79.9702 128.902ZM93.6587 127.976L93.4244 127.959C93.4579 127.622 93.4913 127.268 93.5248 126.932L93.7591 126.948C93.7256 127.285 93.6921 127.639 93.6587 127.976ZM79.7694 126.847C79.7359 126.511 79.7192 126.157 79.7025 125.82L79.9368 125.803C79.9535 126.14 79.987 126.494 80.0037 126.831L79.7694 126.847ZM93.8427 125.921L93.6085 125.904C93.6252 125.567 93.6587 125.214 93.6754 124.877L93.9097 124.894C93.8762 125.231 93.8595 125.584 93.8427 125.921ZM79.6355 124.776C79.6188 124.439 79.6021 124.085 79.6021 123.748H79.8363C79.8531 124.085 79.8531 124.439 79.8698 124.776H79.6355ZM93.9431 123.849H93.7089C93.7256 123.513 93.7256 123.159 93.7256 122.822H93.9599C93.9599 123.159 93.9431 123.513 93.9431 123.849ZM79.5686 122.721C79.5686 122.401 79.5686 122.081 79.5686 121.761V121.677H79.8029V121.761C79.8029 122.081 79.8029 122.401 79.8029 122.704L79.5686 122.721ZM93.9766 121.795H93.7423V121.761C93.7423 121.424 93.7423 121.087 93.7423 120.75H93.9766C93.9766 121.087 93.9766 121.424 93.9766 121.761V121.795ZM79.8029 120.649H79.5686C79.5686 120.313 79.5853 119.959 79.6021 119.622H79.8363C79.8196 119.976 79.8029 120.313 79.8029 120.649ZM93.7089 119.723C93.6921 119.386 93.6921 119.032 93.6754 118.696L93.9097 118.679C93.9264 119.016 93.9431 119.369 93.9431 119.706L93.7089 119.723ZM79.8698 118.595L79.6355 118.578C79.6523 118.241 79.669 117.887 79.7025 117.55L79.9368 117.567C79.9033 117.904 79.8866 118.258 79.8698 118.595ZM93.6085 117.668C93.5917 117.331 93.5583 116.978 93.5248 116.641L93.7591 116.624C93.7925 116.961 93.8093 117.315 93.8427 117.651L93.6085 117.668ZM80.0037 116.54L79.7694 116.523C79.8029 116.186 79.8364 115.832 79.8698 115.496L80.1041 115.512C80.0706 115.866 80.0372 116.203 80.0037 116.54ZM93.4411 115.63C93.4077 115.293 93.3742 114.94 93.324 114.603L93.5583 114.569C93.5917 114.906 93.6419 115.26 93.6754 115.597L93.4411 115.63ZM80.2212 114.502L79.987 114.468C80.0204 114.131 80.0706 113.778 80.1208 113.441L80.3551 113.474C80.3049 113.811 80.2547 114.148 80.2212 114.502ZM93.1901 113.576C93.1399 113.239 93.0897 112.885 93.0395 112.565L93.2738 112.531C93.324 112.868 93.3742 113.205 93.4244 113.559L93.1901 113.576ZM80.5057 112.464L80.2714 112.43C80.3216 112.093 80.3886 111.74 80.4555 111.42L80.6731 111.47C80.6228 111.773 80.5726 112.127 80.5057 112.464ZM92.8722 111.554C92.8052 111.218 92.7383 110.881 92.6714 110.544L92.8889 110.493C92.9558 110.83 93.0228 111.167 93.0897 111.504L92.8722 111.554ZM80.8906 110.443L80.6731 110.392C80.74 110.055 80.8237 109.719 80.9073 109.382L81.1249 109.432C81.0412 109.769 80.9575 110.106 80.8906 110.443ZM92.4371 109.533C92.3534 109.196 92.2697 108.86 92.1861 108.54L92.4036 108.472C92.4873 108.792 92.571 109.129 92.6546 109.483L92.4371 109.533ZM81.3591 108.439L81.1416 108.371C81.2253 108.034 81.3257 107.698 81.4261 107.378L81.6436 107.445C81.56 107.765 81.4596 108.102 81.3591 108.439ZM91.9183 107.546C91.8179 107.209 91.7175 106.889 91.6004 106.569L91.8179 106.502C91.9351 106.822 92.0355 107.159 92.1359 107.479L91.9183 107.546ZM81.9616 106.485L81.744 106.401C81.8612 106.064 81.9783 105.744 82.1122 105.424L82.3297 105.508C82.2126 105.828 82.0787 106.148 81.9616 106.485ZM91.249 105.609C91.1151 105.289 90.9812 104.969 90.8473 104.666L91.0482 104.565C91.182 104.868 91.3159 105.188 91.4498 105.525L91.249 105.609ZM82.7313 104.582L82.5305 104.481C82.6811 104.161 82.8317 103.841 82.9991 103.554L83.1999 103.672C83.0326 103.942 82.8819 104.262 82.7313 104.582ZM90.3955 103.756C90.2282 103.436 90.0441 103.15 89.8768 102.881L90.0608 102.746C90.2449 103.015 90.4123 103.318 90.5963 103.638L90.3955 103.756ZM83.7186 102.796L83.5346 102.662C83.7354 102.358 83.9529 102.072 84.1705 101.836L84.3378 101.988C84.1203 102.224 83.9195 102.493 83.7186 102.796ZM89.2743 102.072C89.0401 101.803 88.8058 101.567 88.5548 101.365L88.7054 101.179C88.9564 101.382 89.2074 101.634 89.4417 101.921L89.2743 102.072ZM85.0574 101.297L84.9235 101.112C85.2247 100.876 85.5259 100.708 85.8439 100.59L85.9275 100.809C85.6263 100.91 85.3419 101.078 85.0574 101.297ZM87.7181 100.843C87.4001 100.708 87.0822 100.641 86.7642 100.641V100.405C87.1157 100.405 87.4671 100.472 87.8018 100.624L87.7181 100.843Z" fill="#7FE1D3"/>
<path d="M107.866 121.845H107.782V121.694H107.866V121.845ZM107.096 121.845H106.41V121.694H107.096V121.845ZM105.741 121.845H105.055V121.694H105.741V121.845ZM104.385 121.845H103.699V121.694H104.385V121.845ZM103.03 121.845H102.344V121.694H103.03V121.845ZM101.658 121.845H100.971V121.694H101.658V121.845ZM100.302 121.845H99.616V121.694H100.302V121.845ZM98.9466 121.845H98.2605V121.694H98.9466V121.845ZM97.5911 121.845H96.9051V121.694H97.5911V121.845ZM96.2357 121.845H95.5496V121.694H96.2357V121.845ZM94.8802 121.845H94.1941V121.694H94.8802V121.845ZM93.508 121.845H92.8219V121.694H93.508V121.845ZM92.1526 121.845H91.4665V121.694H92.1526V121.845ZM90.7971 121.845H90.111V121.694H90.7971V121.845ZM89.4417 121.845H88.7556V121.694H89.4417V121.845ZM88.0862 121.845H87.4001V121.694H88.0862V121.845ZM86.7308 121.845H86.0447V121.694H86.7308V121.845ZM85.3586 121.845H84.6725V121.694H85.3586V121.845ZM84.0031 121.845H83.317V121.694H84.0031V121.845ZM82.6476 121.845H81.9616V121.694H82.6476V121.845ZM81.2922 121.845H80.6061V121.694H81.2922V121.845ZM79.9367 121.845H79.2506V121.694H79.9367V121.845ZM78.5813 121.845H77.8952V121.694H78.5813V121.845ZM77.2091 121.845H76.523V121.694H77.2091V121.845ZM75.8536 121.845H75.1675V121.694H75.8536V121.845ZM74.4982 121.845H73.8121V121.694H74.4982V121.845ZM73.1427 121.845H72.4566V121.694H73.1427V121.845ZM71.7873 121.845H71.1012V121.694H71.7873V121.845ZM70.4151 121.845H69.729V121.694H70.4151V121.845ZM69.0596 121.845H68.3735V121.694H69.0596V121.845ZM67.7042 121.845H67.0348V121.694H67.7209V121.845H67.7042ZM66.3487 121.845H65.6626V121.694H66.3487V121.845Z" fill="#7FE1D3"/>
<path d="M86.8479 142.999H86.6973V142.915H86.8479V142.999ZM86.8479 142.225H86.6973V141.534H86.8479V142.225ZM86.8479 140.86H86.6973V140.17H86.8479V140.86ZM86.8479 139.496H86.6973V138.806H86.8479V139.496ZM86.8479 138.115H86.6973V137.424H86.8479V138.115ZM86.8479 136.751H86.6973V136.06H86.8479V136.751ZM86.8479 135.386H86.6973V134.696H86.8479V135.386ZM86.8479 134.022H86.6973V133.332H86.8479V134.022ZM86.8479 132.658H86.6973V131.967H86.8479V132.658ZM86.8479 131.294H86.6973V130.603H86.8479V131.294ZM86.8479 129.913H86.6973V129.222H86.8479V129.913ZM86.8479 128.548H86.6973V127.858H86.8479V128.548ZM86.8479 127.184H86.6973V126.494H86.8479V127.184ZM86.8479 125.82H86.6973V125.129H86.8479V125.82ZM86.8479 124.456H86.6973V123.765H86.8479V124.456ZM86.8479 123.091H86.6973V122.401H86.8479V123.091ZM86.8479 121.71H86.6973V121.02H86.8479V121.71ZM86.8479 120.346H86.6973V119.656H86.8479V120.346ZM86.8479 118.982H86.6973V118.291H86.8479V118.982ZM86.8479 117.618H86.6973V116.927H86.8479V117.618ZM86.8479 116.253H86.6973V115.563H86.8479V116.253ZM86.8479 114.889H86.6973V114.199H86.8479V114.889ZM86.8479 113.508H86.6973V112.818H86.8479V113.508ZM86.8479 112.144H86.6973V111.453H86.8479V112.144ZM86.8479 110.78H86.6973V110.089H86.8479V110.78ZM86.8479 109.415H86.6973V108.725H86.8479V109.415ZM86.8479 108.051H86.6973V107.361H86.8479V108.051ZM86.8479 106.687H86.6973V105.996H86.8479V106.687ZM86.8479 105.306H86.6973V104.615H86.8479V105.306ZM86.8479 103.942H86.6973V103.251H86.8479V103.942ZM86.8479 102.577H86.6973V101.887H86.8479V102.577ZM86.8479 101.213H86.6973V100.523H86.8479V101.213Z" fill="#7FE1D3"/>
<path d="M303.671 109.314L288.209 104.935L288.46 99.6637L311.486 84.3539L317.359 86.0213L311.904 105.525L316.155 106.738L314.565 112.43L310.314 111.218L308.39 118.089L301.747 116.203L303.671 109.314ZM305.261 103.639L308.039 93.7183L296.86 101.247L305.261 103.639Z" fill="#373C52"/>
<path d="M128.583 68.4546L131.059 59.8986C135.209 61.2965 138.807 61.5829 142.271 60.0502C146.304 58.2649 147.961 55.1827 146.388 51.5784C144.915 48.1931 141.2 47.4857 137.117 49.2878C134.657 50.3826 132.716 52.0332 131.21 53.6501L124.784 52.5216L117.421 32.597L141.485 21.9525L144.798 29.5485L128.114 36.9255L130.641 43.9319C132.03 42.8372 133.318 41.9445 135.494 40.9845C143.108 37.616 150.822 38.6434 154.755 47.6541C158.386 55.9911 154.822 63.8903 145.819 67.8651C139.56 70.6609 133.988 70.4251 128.583 68.4546Z" fill="#F8D451"/>
<path d="M266.404 96.7836C266.421 96.4973 266.639 93.4657 271.224 93.3141C271.224 93.3141 268.965 93.5836 268.58 94.5773C268.58 94.5773 270.119 93.3478 271.374 93.7351C272.629 94.1394 273.366 96.3457 273.366 97.0699C273.366 97.7942 272.68 100.135 271.876 100.337C271.575 100.405 271.224 100.388 270.923 100.337C271.14 100.674 271.341 101.028 271.542 101.449C273.366 105.239 271.491 108.927 269.935 108.523C268.948 108.253 268.663 109.971 268.663 109.971L259.008 102.106C258.991 102.089 262.539 94.6952 266.404 96.7836Z" fill="#412013"/>
<path d="M247.562 141.635C250.39 141.349 253.737 140.86 255.076 140.018C257.1 138.772 260.631 133.517 262.807 129.694C262.874 129.593 263.008 127.656 263.058 127.572C264.196 125.534 264.698 126.797 264.765 125.18C264.815 124.203 264.698 123.344 264.497 122.62C264.229 121.643 263.794 120.885 263.342 120.313C263.275 120.211 263.225 120.127 263.125 120.043C262.372 119.15 261.652 118.78 261.652 118.78C261.284 118.628 260.882 118.814 260.464 119.268V119.285C260.129 119.639 259.744 120.195 259.393 120.885C259.376 120.902 259.36 120.919 259.36 120.936C259.276 121.07 259.209 121.239 259.108 121.407C259.075 121.441 259.058 121.492 259.042 121.525C258.874 121.879 258.707 122.266 258.523 122.654C256.615 126.847 255.176 133.77 253.486 135.656C252.75 136.464 248.817 137.475 246.173 138.671C244.265 139.479 245.688 141.837 247.562 141.635Z" fill="#E2B097"/>
<path d="M263.058 208.18L265.116 208.954C265.116 208.954 274.018 196.525 275.123 185.577C275.324 183.623 275.257 181.737 274.822 179.985C274.822 179.985 274.905 179.48 275.056 178.604C275.123 178.183 275.207 177.695 275.307 177.122C275.591 175.455 275.993 173.164 276.445 170.57C277.499 164.591 278.855 156.928 279.909 151.303L279.357 151.117L273.383 149.181L272.144 145.223L267.693 144.044C267.693 144.044 266.706 145.997 265.802 155.244C265.635 156.456 265.484 157.787 265.384 159.252C265.032 163.682 265.016 169.173 265.802 175.455C266.003 177.055 266.271 178.722 266.588 180.423C266.823 181.67 266.856 183.371 266.756 185.341C266.304 194.285 263.058 208.18 263.058 208.18Z" fill="#7FE1D3"/>
<path d="M265.384 159.252L275.056 178.604C275.123 178.183 275.207 177.695 275.307 177.122C275.592 175.455 275.993 173.164 276.445 170.57C277.499 164.591 278.855 156.928 279.909 151.303L279.357 151.117L273.383 149.181L272.144 145.223L266.053 143.606C266.053 143.606 265.384 155.564 265.384 159.252Z" fill="#6FD2CC"/>
<path d="M269.634 146.536L269.852 144.599C273.6 145.61 283.624 141.804 283.624 141.804C283.624 141.804 287.255 145.02 286.787 152.717C286.552 156.473 286.134 172.457 285.682 177.19C285.515 178.908 285.381 180.12 285.331 180.609C285.314 180.76 285.364 180.895 285.448 181.03C286.101 182.141 286.636 183.303 287.088 184.499C291.439 196.188 286.419 210.588 286.419 210.588L285.113 210.066C285.113 210.066 282.252 194.049 279.926 186.958C279.524 185.762 279.156 184.819 278.805 184.247C277.8 182.596 276.847 179.918 276.01 176.735C274.403 170.705 273.098 162.84 272.245 156.793C272.094 156.776 269.634 146.536 269.634 146.536Z" fill="#7FE1D3"/>
<path d="M262.472 123.108C263.643 123.664 265.066 124.035 266.789 124.119C273.232 124.473 274.705 118.78 274.972 115.007C274.035 114.67 273.232 114.704 272.763 114.721C272.596 114.738 272.412 114.738 272.245 114.755C271.609 114.805 270.973 114.536 270.588 114.03C269.852 113.087 268.998 111.386 268.429 109.045L268.145 109.18L263.493 111.386C263.493 111.386 263.995 112.902 264.346 114.367C264.497 114.99 264.631 115.613 264.698 116.102C264.748 116.557 264.497 116.995 264.078 117.163C264.011 117.281 263.007 119.875 262.472 123.108Z" fill="#E2B097"/>
<path d="M263.476 111.386C263.476 111.386 263.978 112.902 264.33 114.367C267.04 113.609 267.877 110.729 268.128 109.18L263.476 111.386Z" fill="#DA9F84"/>
<path d="M262.907 113.003C262.907 113.003 269.416 111.487 268.412 107.428C267.408 103.369 267.576 100.438 263.375 101.23C259.175 102.022 258.757 103.773 258.757 105.222C258.774 106.636 261.183 113.289 262.907 113.003Z" fill="#E2B097"/>
<path d="M258.406 102.897C259.108 101.432 259.928 101.499 260.447 101.769C263.51 98.9226 266.505 101.247 266.505 101.247C267.66 104.06 270.153 105.205 270.153 105.205C270.153 105.205 269.149 106.232 266.254 106.215C265.367 106.215 264.48 105.794 263.677 105.238C265.233 106.822 267.074 107.782 267.074 107.782C263.443 107.091 261.016 102.864 260.765 102.409C260.464 102.864 259.878 103.841 259.828 104.666C259.761 105.777 260.146 107.95 259.51 108.034C259.493 108.017 257.351 105.104 258.406 102.897Z" fill="#412013"/>
<path d="M281.08 134.342C280.846 134.09 280.645 133.803 280.478 133.517C280.026 132.793 279.741 131.967 279.658 131.092C279.306 127.69 279.44 124.506 279.407 122.569C279.055 122.3 278.704 122.064 278.386 121.828C277.901 121.475 277.466 121.138 277.148 120.801C276.796 120.43 276.579 120.043 276.545 119.622C276.529 119.302 276.545 118.965 276.579 118.628C276.595 118.477 276.612 118.308 276.646 118.157C276.897 116.506 277.583 115.024 277.583 115.024C275.859 114.317 271.876 114.771 271.876 114.771C271.876 114.771 271.475 118.072 269.969 119.42C269.366 119.959 266.003 121.879 264.48 119.925C263.861 119.134 264.396 117.079 264.447 116.927C264.447 116.927 261.853 117.736 260.347 119.184C259.359 120.144 258.79 121.946 258.556 122.654C258.556 122.654 259.711 122.603 260.631 123.26C260.447 124.54 260.363 125.988 260.882 127.386C260.932 127.521 260.983 127.639 261.05 127.774C262.689 131.311 265.702 145.964 265.702 145.964C266.622 148.793 285.381 145.441 285.431 143.05C286.117 140.473 282.887 136.397 281.08 134.342Z" fill="#E1558B"/>
<path d="M271.09 141.012C275.056 140.961 278.42 136.818 280.461 133.517C280.009 132.793 279.725 131.968 279.641 131.092C279.29 127.69 279.424 124.506 279.39 122.569C279.039 122.3 278.687 122.064 278.369 121.828C277.884 121.475 277.449 121.138 277.131 120.801C273.885 126.308 265.718 141.079 271.09 141.012Z" fill="#D23E7D"/>
<path d="M278.804 211.649H289.129C289.129 211.649 289.38 210.066 288.845 208.87C288.326 207.725 287.523 207.186 287.707 205.805C287.054 206.479 285.983 207.253 284.494 207.051C284.31 207.354 283.306 208.954 282.703 209.392C282.034 209.864 279.022 209.679 278.804 211.649Z" fill="#F8D451"/>
<path d="M256.632 211.649H266.957C266.957 211.649 267.342 209.999 266.672 208.87C266.07 207.877 266.304 207.304 266.739 206.479C266.271 206.664 265.668 206.849 264.999 206.815C264.48 206.782 263.945 206.546 263.459 206.276C263.008 206.782 261.117 208.954 260.514 209.392C259.845 209.864 256.833 209.679 256.632 211.649Z" fill="#F8D451"/>
<path d="M151.793 191.522L168.527 172.457C176.66 180.811 183.855 185.089 194.264 186.335C209.442 188.154 218.913 177.577 222.645 161.105C216.035 165.535 207.35 167.926 196.59 166.629C169.782 163.429 154.253 146.435 157.265 120.868C160.227 95.8404 181.63 79.6716 209.509 83.0064C226.092 84.9939 235.313 90.2319 243.546 100.758C251.31 110.695 255.544 124.877 252.616 149.736C247.863 190.04 225.741 215.304 190.633 211.11C172.627 208.954 161.164 201.46 151.793 191.522ZM227.079 128.144C228.385 117.129 221.206 108.169 207.618 106.552C194.214 104.952 185.696 111.858 184.357 123.226C183.052 134.241 190.265 142.848 203.685 144.448C217.089 146.031 225.774 139.142 227.079 128.144Z" fill="#7FE1D3"/>
<path d="M255.26 143.825L255.678 145.441C255.678 145.441 260.832 144.347 261.97 144.111H261.987C263.928 143.639 266.103 143.084 267.927 142.46C269.216 142.006 270.337 141.517 271.09 141.046C271.174 140.995 271.224 140.945 271.307 140.894C273.131 139.563 275.273 135.656 276.964 131.479C277.198 130.906 277.415 130.317 277.633 129.761C278.403 127.673 279.022 125.601 279.407 123.833C279.641 122.772 279.792 121.795 279.825 121.003C279.842 120.717 279.859 120.464 279.842 120.211C279.808 115.681 277.583 115.058 277.583 115.058C277.533 115.041 277.482 115.024 277.432 115.007C277.047 114.94 276.646 115.209 276.227 115.731C275.692 116.371 275.14 117.416 274.571 118.679C273.684 120.7 272.747 123.31 271.893 125.887C271.408 127.302 270.939 128.734 270.487 130.047C270.22 130.839 269.952 131.597 269.718 132.288C269.232 133.601 268.797 134.662 268.412 135.336C268.161 135.774 267.442 136.38 266.505 137.071C264.798 138.216 255.26 143.825 255.26 143.825Z" fill="#E2B097"/>
<path d="M274.085 118.814C277.081 117.988 279.842 120.161 279.842 120.161C279.808 115.63 277.566 115.024 277.566 115.024C276.662 114.637 275.156 116.371 274.085 118.814Z" fill="#E1558B"/>
<path d="M256.247 143.235C256.247 143.235 253.62 144.262 253.118 144.667C252.616 145.071 251.628 146.385 251.461 147.075C251.461 147.075 251.478 147.362 251.729 147.362C251.996 147.362 252.582 146.351 253.017 146.503C253.017 146.503 252.465 147.85 252.147 148.187C251.829 148.524 251.645 150.242 251.712 150.612C251.779 150.983 253.988 149.214 254.908 148.406C255.393 147.985 255.393 146.94 255.544 145.761C255.678 144.734 258.506 144.145 258.506 144.145L256.247 143.235Z" fill="#E2B097"/>
<path d="M143.844 200.196H104.051V184.988H143.978C147.208 184.988 149.818 187.615 149.818 190.866V194.184C149.835 197.502 147.157 200.196 143.844 200.196Z" fill="#FCECDB"/>
<path d="M183.972 191.236V193.527C183.972 194.756 183.671 195.902 183.136 196.878C182.065 198.866 180.073 200.196 177.781 200.196H102.829C102.327 200.196 101.925 199.758 101.925 199.236V198.899C101.925 198.361 102.327 197.939 102.829 197.939H148.513C148.764 197.619 148.965 197.266 149.149 196.895C149.584 196.019 149.818 195.043 149.818 193.981V191.068C149.818 190.529 149.751 190.007 149.634 189.518C149.433 188.676 149.065 187.918 148.58 187.261H102.829C102.327 187.261 101.925 186.823 101.925 186.301V185.964C101.925 185.426 102.327 185.004 102.829 185.004H178.149C180.81 185.004 183.035 186.925 183.738 189.535C183.889 190.057 183.972 190.647 183.972 191.236Z" fill="#E77D3B"/>
<path d="M183.738 189.518H149.651C149.45 188.676 149.082 187.918 148.597 187.261H102.829C102.327 187.261 101.925 186.823 101.925 186.301V185.964C101.925 185.426 102.327 185.004 102.829 185.004H178.149C180.81 184.988 183.052 186.891 183.738 189.518Z" fill="#D87131"/>
<path d="M104.051 192.584L109.606 192.836L104.051 193.005V192.584Z" fill="#F4D2B8"/>
<path d="M104.051 194.975L117.254 195.228L104.051 195.379V194.975Z" fill="#F4D2B8"/>
<path d="M117.438 212.003H156.495V200.163H117.086C114.158 200.163 111.782 202.554 111.782 205.502V206.327C111.782 209.46 114.309 212.003 117.438 212.003Z" fill="#F8D451"/>
<path d="M154.604 212.003H199.133V200.163H154.487C151.508 200.163 149.099 202.588 149.099 205.586V206.462C149.099 209.51 151.575 212.003 154.604 212.003Z" fill="#FCECDB"/>
<path d="M146.153 212.003H200.623C201.075 212.003 201.443 211.632 201.443 211.178V211.06C201.443 210.605 201.075 210.234 200.623 210.234H146.153C145.702 210.234 145.333 210.605 145.333 211.06V211.178C145.333 211.632 145.702 212.003 146.153 212.003Z" fill="#F8D451"/>
<path d="M146.153 201.931H200.623C201.075 201.931 201.443 201.561 201.443 201.106V200.988C201.443 200.533 201.075 200.163 200.623 200.163H146.153C145.702 200.163 145.333 200.533 145.333 200.988V201.106C145.333 201.561 145.702 201.931 146.153 201.931Z" fill="#F8D451"/>
<path d="M199.134 206.091L193.059 206.276L199.134 206.394V206.091Z" fill="#F4D2B8"/>
<path d="M199.133 203.363L184.709 203.565L199.133 203.683V203.363Z" fill="#F4D2B8"/>
<path d="M184.843 203.514C184.843 203.514 185.462 204.02 185.663 204.862C185.696 205.013 185.729 205.165 185.729 205.333C185.763 206.445 185.729 208.954 185.729 208.954L187.553 207.691L189.377 208.954V205.552C189.377 204.912 189.227 204.289 188.926 203.868C188.792 203.666 188.608 203.514 188.424 203.514H184.843Z" fill="#E1558B"/>
<path d="M184.843 203.514C184.843 203.514 185.462 204.02 185.663 204.862L189.327 204.912C189.327 204.912 189.177 203.716 188.424 203.514H184.843Z" fill="#D23E7D"/>
<path d="M150.236 185.004H108.217V167.623H150.387C153.935 167.623 156.83 170.52 156.83 174.107V178.385C156.813 182.04 153.868 185.004 150.236 185.004Z" fill="#FCECDB"/>
<path d="M156.846 174.377V178.116C156.83 179.716 156.043 181.097 154.855 181.838C154.269 182.209 153.617 182.411 152.897 182.411H106.929C106.393 182.411 105.958 182.899 105.958 183.489V183.927C105.958 184.516 106.393 185.004 106.929 185.004H186.349C188.624 185.004 190.632 183.758 191.854 181.838C192.624 180.625 193.076 179.16 193.076 177.56V174.613C193.076 173.518 192.858 172.491 192.457 171.564C191.436 169.223 189.277 167.606 186.767 167.606H106.946C106.41 167.606 105.975 168.095 105.975 168.684V169.122C105.975 169.712 106.41 170.2 106.946 170.2H153.048C154.152 170.2 155.14 170.722 155.842 171.547C156.462 172.305 156.83 173.282 156.846 174.377Z" fill="#E1558B"/>
<path d="M105.958 183.489V183.927C105.958 184.516 106.393 185.004 106.929 185.004H186.349C188.624 185.004 190.632 183.758 191.854 181.838H154.855C154.269 182.209 153.617 182.411 152.897 182.411H106.929C106.393 182.411 105.958 182.899 105.958 183.489Z" fill="#D23E7D"/>
<path d="M108.217 176.314L114.108 176.617L108.217 176.785V176.314Z" fill="#F4D2B8"/>
<path d="M108.217 172.322L122.24 172.608L108.217 172.777V172.322Z" fill="#F4D2B8"/>
<path d="M149.517 172.541C149.517 172.541 148.597 173.097 148.279 174.006C148.228 174.158 148.195 174.326 148.178 174.512C148.128 175.724 148.178 178.436 148.178 178.436L145.451 177.072L142.723 178.436V174.747C142.723 174.057 142.957 173.366 143.392 172.928C143.61 172.709 143.861 172.558 144.145 172.558H149.517V172.541Z" fill="#E1558B"/>
<path d="M149.517 172.541C149.517 172.541 148.597 173.097 148.279 174.006L142.807 174.057C142.807 174.057 143.025 172.76 144.146 172.541H149.517Z" fill="#D23E7D"/>
<path d="M206.045 108.018C206.312 108.321 206.346 108.674 206.212 109.028C205.961 109.702 205.158 110.46 204.221 111.218C204.103 111.319 203.986 111.403 203.903 111.487C203.886 111.504 203.852 111.538 203.836 111.554C203.819 111.571 203.802 111.588 203.785 111.605C202.915 112.413 203.233 112.599 201.677 114.249C199.886 116.119 198.665 116.152 198.313 115.984C198.012 115.832 198.615 114.839 199.284 113.727C199.318 113.677 199.351 113.626 199.384 113.559C199.468 113.407 199.569 113.256 199.652 113.104C200.439 111.757 200.238 111.133 200.054 109.129C199.903 107.512 197.544 100.051 197.544 100.051L200.974 99.4615C200.974 99.4615 202.012 105.39 203.15 106.316C203.752 106.805 204.438 106.805 205.024 107.175C205.057 107.192 205.107 107.226 205.141 107.26C205.442 107.479 205.777 107.714 206.045 108.018Z" fill="#E2B097"/>
<path d="M206.044 108.017C206.312 108.321 206.346 108.674 206.212 109.028C205.911 109.702 205.124 110.46 204.22 111.218C204.103 111.319 204.003 111.403 203.903 111.487C203.886 111.504 203.852 111.538 203.836 111.554C203.819 111.571 203.802 111.588 203.785 111.605C202.915 112.413 203.233 112.599 201.677 114.249C199.886 116.119 198.665 116.152 198.313 115.984C198.012 115.832 198.615 114.839 199.284 113.727C199.635 113.592 201.242 112.935 202.48 111.369C203.551 109.988 204.271 108.203 205.007 107.175C205.04 107.192 205.091 107.226 205.124 107.26C205.442 107.479 205.777 107.714 206.044 108.017Z" fill="#233862"/>
<path d="M178.417 105.862C178.199 106.923 176.693 106.754 175.02 106.333C173.329 105.912 173.731 106.417 171.338 106.148C168.945 105.879 168.209 104.986 168.142 104.615C168.075 104.295 169.263 104.177 170.535 104.043C170.702 104.026 170.853 104.009 171.02 103.992C172.459 103.807 173.513 102.881 174.802 102.106C176.04 101.382 177.881 98.4341 177.881 98.4341L181.178 98.7036C181.178 98.7036 179.454 101.348 178.785 102.493C178.4 103.167 178.417 104.06 178.467 104.75C178.467 105.104 178.483 105.491 178.417 105.862Z" fill="#E2B097"/>
<path d="M175.003 106.333C173.313 105.912 173.714 106.418 171.321 106.148C168.928 105.879 168.192 104.986 168.125 104.615C168.058 104.295 169.246 104.177 170.518 104.043L170.535 104.06C170.535 104.06 171.974 105.087 173.965 105.137C175.589 105.171 177.312 104.716 178.433 104.733C178.467 105.104 178.484 105.491 178.4 105.862C178.199 106.923 176.693 106.754 175.003 106.333Z" fill="#233862"/>
<path d="M191.017 84.6907L194.096 93.0109L198.113 103.874C198.113 103.874 199.2 103.975 200.238 103.672C201.192 103.386 202.296 102.662 202.296 102.662C202.296 102.662 201.175 90.9898 199.1 84.2865C198.564 82.5686 197.962 81.1706 197.309 80.3959C194.096 76.5895 191.017 84.6907 191.017 84.6907Z" fill="#D23E7D"/>
<path d="M194.147 71.4693C195.954 70.8798 200.74 71.503 205.86 72.4462C206.948 72.6483 208.069 72.143 208.638 71.1999L208.889 70.7956L221.356 69.8188C221.356 69.8188 225.356 78.9474 223.214 84.8423C222.611 86.4928 216.369 86.6949 211.098 86.2739C204.923 85.7686 197.979 81.979 197.092 81.8106C195.619 81.5075 195.033 84.4717 193.578 87.5539C192.105 90.6529 179.805 101.264 179.805 101.264C179.805 101.264 177.915 101.281 177.128 100.994C176.291 100.674 175.973 100.27 175.973 100.27C175.973 100.27 189.595 72.9515 194.147 71.4693Z" fill="#E1558B"/>
<path d="M207.166 55.0816C210.931 58.5007 219.566 61.7007 219.616 61.6839C219.616 61.6839 222.544 63.6713 224.67 62.8797C228.201 61.566 231.112 56.4796 226.644 50.4331C224.419 47.4183 222.494 46.3741 223.164 42.5508C223.883 38.4244 222.293 33.1022 217.541 32.6306C217.139 32.5969 214.746 32.1422 213.006 32.5969C208.555 33.7591 200.907 52.6226 207.166 55.0816Z" fill="#412013"/>
<path d="M212.303 50.0626C212.286 50.0626 214.261 51.3089 215.834 51.0226C217.323 50.7363 218.729 48.7994 218.712 48.7826C218.11 48.6142 217.691 47.8731 218.009 44.2014L217.725 44.2351L212.956 44.7909C212.956 44.7909 212.939 46.2899 212.839 47.6878C212.755 48.8499 212.588 49.9615 212.303 50.0626Z" fill="#E2B097"/>
<path d="M212.973 44.7741C212.973 44.7741 212.956 46.2731 212.855 47.671C215.483 47.8057 217.072 45.5151 217.742 44.2351L212.973 44.7741Z" fill="#DA9F84"/>
<path d="M211.985 46.0372C211.985 46.0372 218.193 46.6604 218.511 42.7529C218.829 38.8623 219.85 36.3191 215.901 35.7633C211.952 35.2075 211.065 36.6223 210.646 37.9023C210.211 39.1823 210.379 45.7677 211.985 46.0372Z" fill="#E2B097"/>
<path d="M212.655 35.157C212.655 35.157 213.441 39.9066 216.972 41.035C219.549 41.8603 220.72 41.3213 220.72 41.3213C220.72 41.3213 219.482 39.6708 219.047 37.3633C218.913 36.6896 218.445 36.1339 217.792 35.9149C215.934 35.2917 213.709 33.6412 212.655 35.157Z" fill="#412013"/>
<path d="M213.809 36.1675C213.809 36.1675 212.638 36.437 211.6 37.9528C211.031 38.7781 210.379 40.8666 210.496 41.7929C210.496 41.7929 209.408 37.397 210.998 35.7465C212.671 34.0117 213.809 36.1675 213.809 36.1675Z" fill="#412013"/>
<path d="M223.481 62.846C223.364 63.3176 223.281 63.7555 223.197 64.1597C223.063 64.7997 222.979 65.3724 222.929 65.8608C222.745 67.3935 222.795 68.3029 222.661 69.2966C222.594 69.8525 222.461 70.442 222.193 71.1662C221.942 71.8736 215.198 72.5136 211.366 72.2609C210.144 72.1767 209.274 71.9241 208.889 71.722C207.735 71.1156 207.4 71.8904 207.467 60.5723C207.517 54.4416 212.638 48.9678 212.638 48.9678C212.638 48.9678 213.056 51.5952 218.277 48.4625C218.461 48.3615 220.519 51.41 222.494 55.1995C224.686 59.3764 224.084 60.2523 223.481 62.846Z" fill="#7FE1D3"/>
<path d="M194.096 93.0277L198.113 103.891C198.113 103.891 199.2 103.992 200.238 103.689C201.192 103.403 202.296 102.678 202.296 102.678C202.296 102.678 201.175 91.0066 199.1 84.3033L194.096 93.0277Z" fill="#E1558B"/>
<path d="M212.654 48.9678C212.654 48.9678 208.237 49.3552 206.764 53.6332C205.978 55.9069 201.694 67.5114 201.694 67.5114C201.694 67.5114 205.124 67.983 206.396 66.7198C207.668 65.4566 210.697 55.6711 210.697 55.6711L212.654 48.9678Z" fill="#7FE1D3"/>
<path d="M190.75 64.5808L189.478 64.0755C189.478 64.0755 188.708 63.9071 188.306 64.0418C187.888 64.1766 186.851 64.1597 186.851 64.3281C186.851 64.4965 188.022 65.0355 188.022 65.0355L188.055 65.0187C187.604 66.0461 185.361 66.6355 185.244 67.0061C185.11 67.4608 186.164 67.6966 186.733 67.8482C187.302 67.9829 188.708 67.9829 189.394 67.2419C189.896 66.7029 190.75 65.9787 190.75 65.9787V64.5808Z" fill="#E2B097"/>
<path d="M213.407 43.7467C213.407 43.7467 213.14 44.3867 212.454 44.3867C211.767 44.3867 211.583 44.2856 211.449 44.134C211.316 43.9825 211.198 43.713 211.198 43.713C211.198 43.713 212.336 43.4772 213.407 43.7467Z" fill="white"/>
<path d="M203.149 63.0649L193.678 60.8417C193.678 60.8417 191.72 61.6333 192.574 63.0649C192.574 63.0649 201.158 68.4714 204.388 67.8987C208.053 67.2419 210.546 60.3028 210.546 60.3028L203.149 63.0649Z" fill="#7FE1D3"/>
<path d="M222.912 65.8608C222.728 67.3935 222.779 68.303 222.645 69.2967C217.758 69.3135 211.249 65.5071 211.249 65.5071L222.912 65.8608Z" fill="#6FD2CC"/>
<path d="M211.266 62.2902C211.266 62.2902 218.863 62.0544 220.151 57.7091C221.557 52.9258 223.13 59.6796 223.13 59.6796L222.293 63.9745H213.96L211.266 62.2902Z" fill="#6FD2CC"/>
<path d="M185.763 69.044L172.66 72.3957L170.117 62.3408L183.219 58.9891L179.906 45.8688L190.181 43.2414L193.494 56.3617L206.597 53.01L209.14 63.065L196.038 66.4166L199.351 79.5369L189.076 82.1643L185.763 69.044Z" fill="#373C52"/>
<path d="M211.266 63.3008L210.395 62.2397C210.395 62.2397 209.81 61.7176 209.391 61.6334C208.973 61.5491 208.069 61.027 207.986 61.1786C207.902 61.3302 208.672 62.3744 208.672 62.3744H208.705C207.818 63.0481 205.576 62.4586 205.291 62.7281C204.957 63.065 205.76 63.7892 206.178 64.1934C206.613 64.5976 207.835 65.2713 208.789 64.9682C209.492 64.7492 210.579 64.5303 210.579 64.5303L211.266 63.3008Z" fill="#E2B097"/>
<path d="M218.311 48.4794C218.311 48.4794 223.23 48.8162 224.469 50.7363C225.707 52.6731 227.23 62.5092 226.594 65.8776C225.958 69.2461 210.161 65.2376 210.161 65.2376L210.663 62.307C210.663 62.307 219.783 62.3576 220.302 61.1618C220.971 59.5786 218.311 48.4794 218.311 48.4794Z" fill="#7FE1D3"/>
<path d="M84.204 144.212C84.204 144.212 86.9484 145.307 87.8855 145.02C88.8059 144.734 90.4123 143.825 90.6968 143.084C90.9813 142.342 88.8059 143.269 88.0696 143.084C87.3333 142.898 86.5301 142.662 85.0909 143.084C83.6685 143.505 84.204 144.212 84.204 144.212Z" fill="#E2B097"/>
<path d="M59.2034 207.876C59.2034 207.876 59.4042 211.245 60.0401 212.037H69.5952C69.5283 211.7 69.2605 210.874 68.0724 210.655C66.5663 210.386 64.0395 209.325 63.1191 207.321C62.1486 205.215 59.2034 207.876 59.2034 207.876Z" fill="#334272"/>
<path d="M42.2351 207.422C42.2351 207.422 41.5992 211.616 42.4191 211.683C42.5363 211.7 46.3516 211.683 47.4059 211.834C49.1128 212.087 51.9408 211.868 51.9408 211.868C52.2922 211.885 52.5265 211.498 52.3424 211.194C52.1416 210.858 51.7735 210.504 51.0372 210.352C49.5311 210.066 47.021 208.954 46.1341 206.916C45.2305 204.794 42.2351 207.422 42.2351 207.422Z" fill="#334272"/>
<path d="M63.7049 163.059C63.7049 163.059 61.2952 171.53 54.4175 186.234C47.5231 200.937 46.9876 207.641 46.9876 207.641L42.2351 207.422C42.2351 207.422 42.6869 189.922 45.9333 182.495C49.1965 175.067 49.8491 154.772 49.8491 154.772L63.7049 163.059Z" fill="#6FD2CC"/>
<path d="M67.5536 155.783C67.5536 155.783 67.7376 168.886 65.4953 184.988C63.2362 201.089 64.006 207.927 64.006 207.927L58.6009 208.112C58.6009 208.112 55.3712 192.011 56.2916 183.943C57.2119 175.893 51.8738 156.288 51.8738 156.288L67.5536 155.783Z" fill="#7FE1D3"/>
<path d="M56.9109 125.096L59.4545 126.999L63.136 126.224C63.0858 125.887 62.8347 124.489 62.6172 123.226C62.6005 123.159 62.5837 123.075 62.5837 123.007C62.3997 121.929 62.2323 121.003 62.2323 121.003L58.8018 119.285L57.5133 118.645C57.5133 118.662 57.6137 119.841 57.6305 120.009C57.8647 123.024 56.9109 125.096 56.9109 125.096Z" fill="#E2B097"/>
<path d="M68.0558 156.204C68.2901 158.545 49.6818 161.307 49.6149 157.383C49.548 153.93 51.5895 134.932 52.2254 132.22C53.3466 127.403 54.3506 124.658 56.4758 124.035C57.2623 123.799 60.1573 124.557 62.2658 125.18C62.4164 125.214 62.5503 125.264 62.7009 125.332C63.2197 125.534 63.6882 125.837 64.0898 126.224C64.6588 126.763 65.0771 127.437 65.3114 128.212C65.6294 129.306 66.0143 130.704 66.3155 132.254C66.5832 133.635 66.8008 135.151 66.8844 136.65C66.9012 136.953 66.9179 137.273 66.9179 137.576C66.9346 138.721 67.035 140.203 67.1689 141.854C67.2526 142.898 67.3697 143.993 67.4701 145.121C67.5036 145.441 67.5371 145.761 67.5705 146.098C67.5873 146.317 67.9554 153.745 68.0558 155.732C68.0558 155.766 68.0558 155.783 68.0558 155.816C68.0558 155.816 68.0558 155.816 68.0558 155.833C68.0558 155.867 68.0558 155.884 68.0558 155.917C68.0391 156.086 68.0558 156.187 68.0558 156.204Z" fill="#E1558B"/>
<path d="M57.8814 120.043C58.6344 121.492 61.4457 122.755 62.6171 123.209C62.6004 123.142 62.5836 123.058 62.5836 122.99C62.3995 121.913 62.2322 120.986 62.2322 120.986L58.8017 119.268C58.032 119.251 57.5634 119.437 57.8814 120.043Z" fill="#DA9F84"/>
<path d="M63.8889 120.784C63.8889 120.784 57.6805 122.738 56.5426 118.83C55.4047 114.923 53.8317 112.548 57.7307 111.133C61.6465 109.719 62.8514 110.982 63.5542 112.194C64.257 113.407 65.4786 120.178 63.8889 120.784Z" fill="#E2B097"/>
<path d="M63.32 111.807C63.32 111.807 62.9184 116.355 61.998 116.152C61.0609 115.95 60.2242 115.816 60.3581 117.18C60.492 118.544 61.7972 120.127 58.919 120.38C56.0407 120.616 51.9074 113.154 52.6939 111.74C54.953 107.664 66.6166 106.839 63.32 111.807Z" fill="#412013"/>
<path d="M62.8682 124.136C62.7846 124.102 57.8648 122.637 57.3293 122.822C56.7938 123.007 56.4758 124.035 56.4758 124.035L64.0731 126.207C64.0898 126.224 63.9057 124.574 62.8682 124.136Z" fill="#D23E7D"/>
<path d="M85.1077 143.084C85.1077 143.084 85.9946 142.342 86.7476 142.174C87.5174 142.006 88.1867 141.298 88.1867 141.635C88.1867 141.972 87.6178 142.797 87.6178 143.084C87.6178 143.37 85.1077 143.084 85.1077 143.084Z" fill="#E2B097"/>
<path d="M67.1353 141.854C63.1861 140.338 60.1907 134.477 60.1907 134.477L66.8676 136.633C66.8843 136.936 66.901 137.256 66.901 137.559C66.901 138.721 67.0014 140.203 67.1353 141.854Z" fill="#D23E7D"/>
<path d="M85.2248 143.724C85.2248 143.707 85.2248 143.707 85.2415 143.69C85.4256 143.016 85.0909 142.292 84.455 141.989C81.9784 140.793 75.5525 137.66 74.833 137.273C74.0799 136.869 66.5496 129.576 64.3073 127.403C63.9224 127.033 63.3534 126.898 62.8347 127.066L56.5929 129.121C55.4382 129.508 55.2207 131.041 56.2247 131.732C60.8098 134.898 70.3984 141.483 72.1221 142.359C75.1677 143.926 81.309 144.734 83.5849 145.004C84.2208 145.071 84.8399 144.717 85.0909 144.128C85.1411 143.993 85.1913 143.858 85.2248 143.724Z" fill="#E1558B"/>
<path d="M72.9587 207.876C72.9587 208.028 72.9755 208.18 72.9922 208.331C73.0424 208.803 73.193 209.258 73.4106 209.662C73.5779 209.982 73.7954 210.268 74.0465 210.521C74.7158 211.194 75.6362 211.616 76.657 211.616H128.733C130.775 211.616 132.432 209.948 132.432 207.893C132.432 206.866 132.013 205.94 131.344 205.266C130.674 204.592 129.754 204.171 128.733 204.171H76.657C74.6154 204.154 72.9587 205.822 72.9587 207.876Z" fill="#E77D3B"/>
<path d="M76.9247 203.481H94.7799C95.0978 203.481 95.3488 203.228 95.3488 202.908C95.3488 202.588 95.0978 202.335 94.7799 202.335H76.9247C76.6067 202.335 76.3557 202.588 76.3557 202.908C76.3557 203.211 76.6235 203.481 76.9247 203.481Z" fill="#E77D3B"/>
<path d="M77.9131 204.141H79.8542V203.467H77.9131V204.141Z" fill="#D87131"/>
<path d="M73.4106 209.662C73.578 209.982 73.7955 210.268 74.0465 210.521C74.7159 211.194 75.6363 211.616 76.657 211.616H87.6848V209.679H73.4106V209.662Z" fill="#D87131"/>
<path d="M139.326 206.782V208.971C139.326 209.207 139.293 209.443 139.242 209.662C138.941 210.79 137.92 211.599 136.716 211.599H82.4638C81.2589 211.599 80.2382 210.773 79.9369 209.662C79.87 209.443 79.8533 209.207 79.8533 208.971V206.782C79.8533 205.333 81.0247 204.154 82.4638 204.154H136.716C138.155 204.154 139.326 205.333 139.326 206.782Z" fill="#E1558B"/>
<path d="M139.242 209.662C138.941 210.79 137.92 211.599 136.715 211.599H82.4636C81.2588 211.599 80.238 210.773 79.9368 209.662H139.242Z" fill="#D23E7D"/>
<path d="M133.938 207.893C133.938 209.056 134.356 210.083 135.008 210.773C135.025 210.79 135.042 210.807 135.059 210.824C135.561 211.329 136.213 211.632 136.916 211.632C138.021 211.632 140.732 209.965 142.422 208.853C143.258 208.298 143.844 207.893 143.844 207.893C143.844 207.893 143.258 207.472 142.422 206.933C140.732 205.822 138.021 204.154 136.916 204.154C136.598 204.154 136.297 204.222 136.013 204.34C135.527 204.542 135.092 204.879 134.757 205.333C134.389 205.839 134.122 206.462 134.004 207.152V207.169C133.954 207.405 133.938 207.641 133.938 207.893Z" fill="#FDF4DF"/>
<path d="M134.758 205.316L143.091 207.607L136.013 204.323C135.527 204.525 135.092 204.862 134.758 205.316Z" fill="#FFFBEE"/>
<path d="M141.886 207.893C141.886 208.331 142.121 208.719 142.422 208.853C143.258 208.298 143.844 207.893 143.844 207.893C143.844 207.893 143.258 207.472 142.422 206.933C142.104 207.068 141.886 207.439 141.886 207.893Z" fill="#E1558B"/>
<circle cx="184.5" cy="105.5" r="42.5" fill="#5790DF"/>
<path d="M191.427 108.695L196.145 113.41L203.088 109.373C204.017 108.906 204.611 107.959 204.632 106.914C204.594 105.904 204.003 104.998 203.097 104.562C202.52 104.248 197.575 101.36 195.719 100.273L195.714 100.269L173.237 87.2084C172.318 86.6231 171.157 86.5811 170.199 87.0984C170.108 87.161 170.02 87.2293 169.937 87.3031L191.427 108.695Z" fill="white"/>
<path d="M203.096 104.562C202.556 104.268 198.222 101.738 196.143 100.521L191.38 105.28L169.836 126.792C169.924 126.872 170.018 126.946 170.117 127.013C170.5 127.234 170.935 127.349 171.376 127.347C171.912 127.34 172.437 127.192 172.899 126.917C173.612 126.501 195.713 113.66 195.713 113.66L203.087 109.373C204.015 108.906 204.61 107.959 204.631 106.914C204.593 105.904 204.002 104.998 203.096 104.562Z" fill="white"/>
<path d="M189.691 106.968L169.94 87.3063C169.233 87.857 168.808 88.7043 168.844 89.617V124.664C168.82 125.499 169.205 126.273 169.84 126.789L189.691 106.968Z" fill="white"/>
<path d="M203.097 104.562C201.732 103.822 196.916 100.973 196.144 100.521L191.381 105.28L189.691 106.967L191.426 108.695L196.145 113.41L203.088 109.373C204.016 108.906 204.611 107.959 204.632 106.914C204.594 105.904 204.003 104.998 203.097 104.562Z" fill="white"/>
<defs>
<radialGradient id="paint0_diamond_456_2721" cx="0" cy="0" r="1" gradientUnits="userSpaceOnUse" gradientTransform="translate(354.667 4.17452e-06) rotate(143.817) scale(439.412 392.334)">
<stop stop-color="#A9CBFF"/>
<stop offset="0.873639" stop-color="#458BE7"/>
</radialGradient>
</defs>
</svg>
