<svg width="30" height="25" viewBox="0 0 30 25" fill="none" xmlns="http://www.w3.org/2000/svg">
<path fill-rule="evenodd" clip-rule="evenodd" d="M14.4822 0.402745C14.8068 0.310352 15.1492 0.310267 15.4739 0.40239C16.1639 0.598214 16.8603 0.779844 17.559 0.962081C20.8401 1.81783 24.1724 2.68692 27.1371 5.10161L28.5023 6.21359C29.0561 6.66464 29.3332 7.33228 29.3334 8.00004V17.3334C29.3334 17.8857 28.8857 18.3334 28.3334 18.3334C27.7811 18.3334 27.3334 17.8857 27.3334 17.3334V10.7423L27.1162 10.9195C26.0889 11.7578 25.0171 12.4088 23.9185 12.9372C23.971 13.0587 24.0001 13.1926 24.0001 13.3334V19.0586C24.0001 20.5697 23.0731 21.926 21.6653 22.4748L16.3319 24.5541C15.4754 24.888 14.5247 24.888 13.6682 24.5541L8.33489 22.4748C6.92704 21.926 6.00008 20.5697 6.00008 19.0586V13.3334C6.00008 13.1891 6.03065 13.0519 6.08566 12.928C4.97852 12.3965 3.89838 11.7417 2.86307 10.8985L1.49782 9.78649C0.390273 8.88441 0.389691 7.11594 1.49628 6.21294L2.88398 5.08053C5.82724 2.67876 9.13598 1.81485 12.3928 0.964507C13.093 0.781678 13.7909 0.599471 14.4822 0.402745ZM27.3334 8.00084C27.3334 7.88072 27.2848 7.8014 27.2393 7.76431L25.8741 6.65233C23.0001 4.66671 20.4392 3.79096 17.1866 2.93625C16.4714 2.74832 15.736 2.55505 14.9787 2.34082C14.2181 2.5566 13.4799 2.75079 12.7624 2.93957C9.53581 3.78842 6.72439 4.52805 4.14846 6.63008L2.76075 7.76249C2.71517 7.79969 2.6667 7.87912 2.66675 7.99924C2.6668 8.11937 2.71532 8.19868 2.76086 8.23577L4.12611 9.34775C6.72388 11.4636 9.56095 12.2091 12.8136 13.0638C13.5288 13.2518 14.2642 13.445 15.0215 13.6593C15.782 13.4435 16.5201 13.2493 17.2376 13.0606C20.4642 12.2117 23.2758 11.472 25.8517 9.37L27.2394 8.23759C27.285 8.20043 27.3334 8.12076 27.3334 8.00084ZM17.6074 15.0356C19.0738 14.6527 20.5507 14.2671 22.0001 13.7396V19.0586C22.0001 19.7455 21.5787 20.362 20.9388 20.6114L15.6055 22.6907C15.2161 22.8425 14.784 22.8425 14.3947 22.6907L9.06136 20.6114C8.42143 20.362 8.00008 19.7455 8.00008 19.0586V13.7282C9.46511 14.2618 10.9583 14.6513 12.4411 15.038C13.1398 15.2202 13.8363 15.4019 14.5263 15.5977C14.8509 15.6898 15.1934 15.6897 15.518 15.5973C16.2093 15.4006 16.9072 15.2184 17.6074 15.0356Z" fill="#468CE7"/>
</svg>
