<svg width="16" height="17" viewBox="0 0 16 17" fill="none" xmlns="http://www.w3.org/2000/svg">
<path d="M10.9707 9.0706C11.7589 8.45048 12.3342 7.60011 12.6166 6.6378C12.899 5.67549 12.8744 4.64908 12.5463 3.70139C12.2182 2.7537 11.6028 1.93183 10.7859 1.35015C9.96892 0.768459 8.99097 0.455872 7.98808 0.455872C6.98519 0.455872 6.00723 0.768459 5.19027 1.35015C4.37331 1.93183 3.75797 2.7537 3.42985 3.70139C3.10173 4.64908 3.07716 5.67549 3.35954 6.6378C3.64193 7.60011 4.21723 8.45048 5.00542 9.0706C3.65485 9.61169 2.47642 10.5091 1.59578 11.6673C0.715138 12.8254 0.165288 14.2009 0.0048493 15.6469C-0.00676409 15.7525 0.00253114 15.8593 0.0322041 15.9613C0.061877 16.0633 0.111346 16.1584 0.177788 16.2413C0.311974 16.4086 0.507144 16.5158 0.720365 16.5393C0.933586 16.5628 1.14739 16.5005 1.31475 16.3664C1.4821 16.2322 1.5893 16.037 1.61275 15.8238C1.78929 14.2522 2.53865 12.8008 3.71767 11.7468C4.89669 10.6928 6.4227 10.1101 8.00416 10.1101C9.58561 10.1101 11.1116 10.6928 12.2906 11.7468C13.4697 12.8008 14.219 14.2522 14.3956 15.8238C14.4174 16.0213 14.5117 16.2038 14.6601 16.3359C14.8086 16.468 15.0008 16.5405 15.1995 16.5393H15.2879C15.4987 16.515 15.6913 16.4085 15.8238 16.2428C15.9563 16.0772 16.018 15.8659 15.9954 15.655C15.8342 14.2048 15.2814 12.8258 14.3962 11.6659C13.5111 10.506 12.3269 9.60883 10.9707 9.0706ZM7.98808 8.49979C7.35205 8.49979 6.73031 8.31119 6.20147 7.95783C5.67264 7.60448 5.26046 7.10224 5.01706 6.51463C4.77367 5.92702 4.70998 5.28043 4.83407 4.65662C4.95815 4.03282 5.26442 3.45981 5.71416 3.01008C6.1639 2.56034 6.7369 2.25406 7.36071 2.12998C7.98451 2.0059 8.6311 2.06958 9.21871 2.31298C9.80632 2.55638 10.3086 2.96855 10.6619 3.49739C11.0153 4.02622 11.2039 4.64797 11.2039 5.28399C11.2039 6.13688 10.8651 6.95483 10.262 7.55791C9.65891 8.16099 8.84096 8.49979 7.98808 8.49979Z" fill="#5F5F5F"/>
</svg>
