<svg width="100" height="100" viewBox="0 0 100 100" fill="none" xmlns="http://www.w3.org/2000/svg">
<circle cx="50" cy="50" r="50" fill="#F3F3F3"/>
<path d="M64.5455 47.5455C64.0632 47.5455 63.6008 47.737 63.2598 48.078C62.9188 48.419 62.7273 48.8814 62.7273 49.3636V62.0909C62.7273 62.5731 62.5357 63.0356 62.1947 63.3766C61.8538 63.7175 61.3913 63.9091 60.9091 63.9091H35.4545C34.9723 63.9091 34.5099 63.7175 34.1689 63.3766C33.8279 63.0356 33.6364 62.5731 33.6364 62.0909V47.5455C33.6364 47.0632 33.8279 46.6008 34.1689 46.2598C34.5099 45.9188 34.9723 45.7273 35.4545 45.7273H39.0909C39.4874 45.748 39.8798 45.6383 40.2081 45.4151C40.5364 45.1918 40.7826 44.8672 40.9091 44.4909L41.8909 41.5091C42.0129 41.148 42.2453 40.8343 42.5552 40.6124C42.8652 40.3906 43.237 40.2717 43.6182 40.2727H53.6364C54.1186 40.2727 54.581 40.0812 54.922 39.7402C55.263 39.3992 55.4545 38.9368 55.4545 38.4545C55.4545 37.9723 55.263 37.5099 54.922 37.1689C54.581 36.8279 54.1186 36.6364 53.6364 36.6364H43.5273C42.3846 36.6385 41.2715 36.9994 40.345 37.6682C39.4185 38.337 38.7255 39.2798 38.3636 40.3636L37.7818 42.1818H35.4545C34.0079 42.1818 32.6205 42.7565 31.5976 43.7794C30.5747 44.8023 30 46.1897 30 47.6364V62.1818C30 63.6285 30.5747 65.0158 31.5976 66.0388C32.6205 67.0617 34.0079 67.6364 35.4545 67.6364H60.9091C62.3557 67.6364 63.7431 67.0617 64.766 66.0388C65.789 65.0158 66.3636 63.6285 66.3636 62.1818V49.4545C66.376 49.2082 66.3381 48.962 66.2522 48.7308C66.1664 48.4996 66.0344 48.2883 65.8643 48.1097C65.6943 47.9311 65.4896 47.789 65.2629 47.692C65.0362 47.595 64.7921 47.5451 64.5455 47.5455ZM48.1818 45.7273C46.7434 45.7273 45.3373 46.1538 44.1413 46.9529C42.9453 47.7521 42.0132 48.8879 41.4627 50.2168C40.9122 51.5458 40.7682 53.0081 41.0488 54.4188C41.3295 55.8296 42.0221 57.1255 43.0392 58.1426C44.0563 59.1597 45.3522 59.8524 46.763 60.133C48.1738 60.4136 49.6361 60.2696 50.965 59.7191C52.2939 59.1687 53.4297 58.2365 54.2289 57.0405C55.028 55.8445 55.4545 54.4384 55.4545 53C55.4545 51.0712 54.6883 49.2213 53.3244 47.8574C51.9605 46.4935 50.1107 45.7273 48.1818 45.7273ZM48.1818 56.6364C47.4626 56.6364 46.7596 56.4231 46.1616 56.0235C45.5636 55.624 45.0975 55.056 44.8223 54.3916C44.547 53.7271 44.475 52.996 44.6153 52.2906C44.7556 51.5852 45.102 50.9373 45.6105 50.4287C46.1191 49.9201 46.767 49.5738 47.4724 49.4335C48.1778 49.2932 48.9089 49.3652 49.5734 49.6404C50.2379 49.9157 50.8058 50.3817 51.2053 50.9797C51.6049 51.5777 51.8182 52.2808 51.8182 53C51.8182 53.9644 51.4351 54.8893 50.7531 55.5713C50.0712 56.2532 49.1462 56.6364 48.1818 56.6364ZM68.1818 36.6364H66.3636V34.8182C66.3636 34.336 66.1721 33.8735 65.8311 33.5325C65.4901 33.1916 65.0277 33 64.5455 33C64.0632 33 63.6008 33.1916 63.2598 33.5325C62.9188 33.8735 62.7273 34.336 62.7273 34.8182V36.6364H60.9091C60.4269 36.6364 59.9644 36.8279 59.6234 37.1689C59.2825 37.5099 59.0909 37.9723 59.0909 38.4545C59.0909 38.9368 59.2825 39.3992 59.6234 39.7402C59.9644 40.0812 60.4269 40.2727 60.9091 40.2727H62.7273V42.0909C62.7273 42.5731 62.9188 43.0356 63.2598 43.3766C63.6008 43.7175 64.0632 43.9091 64.5455 43.9091C65.0277 43.9091 65.4901 43.7175 65.8311 43.3766C66.1721 43.0356 66.3636 42.5731 66.3636 42.0909V40.2727H68.1818C68.664 40.2727 69.1265 40.0812 69.4675 39.7402C69.8084 39.3992 70 38.9368 70 38.4545C70 37.9723 69.8084 37.5099 69.4675 37.1689C69.1265 36.8279 68.664 36.6364 68.1818 36.6364Z" fill="#BABABA"/>
</svg>
